<svg width="288" height="108" viewBox="0 0 288 108" fill="none" xmlns="http://www.w3.org/2000/svg">
<path d="M27.2158 45.6046C27.1304 45.7752 26.9384 46.1379 26.6398 46.6926C26.3838 47.2046 26.0851 47.8019 25.7438 48.4846C25.4024 49.1246 25.0611 49.7646 24.7198 50.4046C24.3784 51.0446 24.1011 51.5779 23.8878 52.0046C23.5038 52.7299 23.3758 53.0499 23.5038 52.9646C23.6318 52.8792 23.9304 52.4526 24.3998 51.6846C24.9971 50.7886 25.7224 49.7859 26.5758 48.6766C27.4291 47.5672 28.3038 46.5006 29.1998 45.4766C30.0958 44.4099 30.9491 43.4499 31.7598 42.5966C32.6131 41.7006 33.2958 41.0606 33.8078 40.6766C35.2584 39.5672 36.4531 38.9699 37.3918 38.8846C38.3304 38.7566 39.3331 39.0979 40.3998 39.9086C41.6798 40.8899 42.3838 42.1272 42.5118 43.6206C42.5544 44.2179 42.5331 44.8792 42.4478 45.6046C42.3624 46.2872 42.2344 46.8419 42.0638 47.2686C42.0211 47.3966 41.9358 47.6739 41.8078 48.1006C41.6798 48.4846 41.5305 48.8899 41.3598 49.3166C41.0184 50.3406 40.6771 51.2152 40.3358 51.9406C39.9944 52.6659 39.5465 53.4339 38.9918 54.2446C38.5651 54.8846 38.0958 55.5032 37.5838 56.1006C37.0718 56.6552 36.4531 57.2526 35.7278 57.8926C35.0451 58.5326 34.2344 59.2579 33.2958 60.0686C32.3571 60.8366 31.2264 61.7326 29.9038 62.7566C28.1118 64.1219 26.5544 65.1032 25.2318 65.7006C23.9091 66.2979 22.6291 66.5966 21.3918 66.5966C21.0078 66.5966 20.6451 66.5966 20.3038 66.5966C19.9624 66.5539 19.7491 66.5112 19.6638 66.4686C19.5358 66.4686 19.4291 66.5112 19.3438 66.5966C19.2584 66.6392 19.1304 66.8312 18.9598 67.1726C18.7891 67.4712 18.5331 67.9619 18.1918 68.6446C17.8931 69.2846 17.4878 70.2232 16.9758 71.4606C16.5064 72.4846 16.1011 73.4232 15.7598 74.2766C15.4611 75.0872 15.1624 75.9406 14.8638 76.8366C14.5651 77.7326 14.2451 78.7566 13.9038 79.9086C13.6051 81.0606 13.2424 82.4899 12.8158 84.1966C12.5598 85.1779 12.3464 86.0099 12.1758 86.6926C12.0051 87.3752 11.8558 87.9726 11.7278 88.4846C11.6424 89.0392 11.5571 89.5512 11.4718 90.0206C11.4291 90.5326 11.3651 91.0446 11.2798 91.5566C11.1944 92.2819 11.1518 92.9219 11.1518 93.4766C11.1518 94.0312 11.1518 94.3512 11.1518 94.4366C11.2371 94.6072 11.1304 94.7566 10.8318 94.8846C10.6184 95.0126 10.4478 95.0552 10.3198 95.0126C10.1918 94.9699 9.95711 94.7779 9.61578 94.4366C9.27445 94.0952 9.06111 93.9032 8.97578 93.8606C8.89045 93.8179 8.84778 93.9032 8.84778 94.1166C8.89045 94.5432 8.67711 94.5859 8.20778 94.2446C7.78111 93.9032 7.50378 93.4552 7.37578 92.9006C7.29045 92.3459 7.31178 91.4072 7.43978 90.0846C7.56778 89.1032 7.69578 88.1219 7.82378 87.1406C7.99445 86.2019 8.14378 85.3272 8.27178 84.5166C8.44245 83.7486 8.61311 83.1086 8.78378 82.5966C8.95445 82.0419 9.10378 81.6792 9.23178 81.5086C9.31711 81.4232 9.48778 81.0179 9.74378 80.2926C9.99978 79.5246 10.2771 78.6499 10.5758 77.6686C12.1971 71.9512 14.0104 66.5539 16.0158 61.4766C18.0211 56.3566 20.1331 51.7059 22.3518 47.5246C22.7358 46.8419 23.0984 46.1592 23.4398 45.4766C23.8238 44.7939 24.1011 44.2819 24.2718 43.9406C24.4424 43.6419 24.6984 43.1939 25.0398 42.5966C25.4238 41.9992 25.7864 41.4232 26.1278 40.8686C26.4691 40.2712 26.7464 39.7806 26.9598 39.3966C27.2158 38.9699 27.3224 38.7566 27.2798 38.7566C27.1091 38.8419 26.9171 38.9272 26.7038 39.0126C26.5331 39.0979 26.3198 39.2046 26.0638 39.3326C25.8504 39.4179 25.6158 39.5459 25.3598 39.7166C24.2078 40.3139 22.8211 40.9752 21.1998 41.7006C19.5784 42.3832 17.9571 43.0232 16.3358 43.6206C16.2078 43.6632 16.1651 44.1966 16.2078 45.2206C16.2931 46.7992 16.1224 48.3139 15.6958 49.7646C15.3118 51.2152 14.6078 52.8366 13.5838 54.6286C12.8158 55.9512 12.1331 57.0606 11.5358 57.9566C10.9811 58.8526 10.4691 59.6206 9.99978 60.2606C9.53045 60.8579 9.08245 61.3699 8.65578 61.7966C8.27178 62.1806 7.84511 62.5219 7.37578 62.8206C6.18111 63.7166 5.09311 63.9726 4.11178 63.5886C3.89845 63.5032 3.66378 63.3966 3.40778 63.2686C3.10911 63.1406 2.85311 63.0339 2.63978 62.9486C1.74378 62.6072 1.01845 61.7539 0.463781 60.3886C-0.517552 57.7006 0.0584476 53.8819 2.19178 48.9326C2.49045 48.2072 2.78911 47.5886 3.08778 47.0766C3.34378 46.5219 3.64245 45.9886 3.98378 45.4766C4.32511 44.9219 4.73045 44.3459 5.19978 43.7486C5.66911 43.1086 6.24511 42.3406 6.92778 41.4446C7.18378 41.1032 7.31178 40.8686 7.31178 40.7406C7.31178 40.6126 7.46111 40.5486 7.75978 40.5486C7.93045 40.5059 8.18645 40.4632 8.52778 40.4206C8.86911 40.3352 9.21045 40.2499 9.55178 40.1646C10.3624 39.9512 11.0024 39.8019 11.4718 39.7166C11.9411 39.6312 12.3038 39.5886 12.5598 39.5886C12.8584 39.5886 13.1144 39.6312 13.3278 39.7166C13.5838 39.7592 13.9038 39.8659 14.2878 40.0366L15.5038 40.5486L17.4878 39.9086C18.6824 39.5246 19.8984 39.0552 21.1358 38.5006C22.3731 37.9032 23.3544 37.3699 24.0798 36.9006C24.3784 36.7299 24.7198 36.5379 25.1038 36.3246C25.4878 36.0686 25.8078 35.8552 26.0638 35.6846C26.6611 35.3006 27.2798 34.8739 27.9198 34.4046C28.6024 33.9352 29.2211 33.4872 29.7758 33.0606C30.3731 32.6339 30.8851 32.2499 31.3118 31.9086C31.7384 31.5672 32.0158 31.3112 32.1438 31.1406C32.3571 30.9272 32.5918 30.6499 32.8478 30.3086C33.1464 29.9246 33.4024 29.5619 33.6158 29.2206C33.8718 28.8366 34.1704 28.4099 34.5118 27.9406C34.8958 27.4286 35.2584 26.9379 35.5998 26.4686C35.9838 25.9992 36.3251 25.5939 36.6238 25.2526C36.9651 24.8686 37.2211 24.5912 37.3918 24.4206C37.7758 24.0366 38.3091 23.7379 38.9918 23.5246C39.4611 23.3966 39.7811 23.3326 39.9518 23.3326C40.1651 23.2899 40.4211 23.3112 40.7198 23.3966C41.1891 23.5672 41.6371 23.8446 42.0638 24.2286C42.5331 24.5699 42.7678 24.8686 42.7678 25.1246C42.7678 25.2952 42.6185 25.5939 42.3198 26.0206C42.0211 26.4472 41.5945 26.9592 41.0398 27.5566C40.4851 28.1539 39.8238 28.8152 39.0558 29.5406C38.2878 30.2659 37.4771 30.9912 36.6238 31.7166C35.7704 32.4846 35.0238 33.2312 34.3838 33.9566C33.7438 34.6819 33.2104 35.4286 32.7838 36.1966C32.6984 36.3672 32.4851 36.7299 32.1438 37.2846C31.8024 37.7966 31.4611 38.3512 31.1198 38.9486C30.7784 39.5459 30.4371 40.1646 30.0958 40.8046C29.7544 41.4019 29.5198 41.8072 29.3918 42.0206C29.2211 42.2339 29.0291 42.5326 28.8158 42.9166C28.6024 43.3006 28.3891 43.6419 28.1758 43.9406C27.9624 44.2392 27.7704 44.5592 27.5998 44.9006C27.4291 45.1992 27.3011 45.4339 27.2158 45.6046ZM13.7758 45.2846C13.7758 44.5592 13.7118 44.1326 13.5838 44.0046C13.4558 43.8339 13.0931 43.7699 12.4958 43.8126C12.1544 43.8552 11.8771 43.9192 11.6638 44.0046C11.4504 44.0899 11.1731 44.3032 10.8318 44.6446C10.4051 45.0286 10.0851 45.2632 9.87178 45.3486C9.70111 45.4339 9.35978 45.4766 8.84778 45.4766C8.33578 45.5192 7.99445 45.5619 7.82378 45.6046C7.69578 45.6472 7.52511 45.8392 7.31178 46.1806C6.24511 47.6312 5.39178 49.1246 4.75178 50.6606C4.15445 52.1966 3.68511 53.9886 3.34378 56.0366C3.13045 57.1459 3.02378 58.0206 3.02378 58.6606C2.98111 59.3006 3.04511 59.9406 3.21578 60.5806C3.30111 60.9646 3.40778 61.1779 3.53578 61.2206C3.62111 61.2206 3.91978 61.1139 4.43178 60.9006C4.77311 60.7299 5.11445 60.4739 5.45578 60.1326C5.83978 59.7912 6.03178 59.5352 6.03178 59.3646C6.03178 59.2366 6.22378 58.9806 6.60778 58.5966C7.20511 57.9566 7.65311 57.5086 7.95178 57.2526C8.25045 56.9539 8.35711 56.8686 8.27178 56.9966C8.14378 57.2952 8.16511 57.3379 8.33578 57.1246C8.50645 56.8686 8.76245 56.5059 9.10378 56.0366C9.44511 55.5672 9.78645 55.0552 10.1278 54.5006C10.5118 53.9032 10.8318 53.3912 11.0878 52.9646C11.2158 52.7512 11.3224 52.5379 11.4078 52.3246C11.5358 52.1112 11.5998 51.9619 11.5998 51.8766C11.5998 51.7059 11.6851 51.5352 11.8558 51.3646C11.9838 51.2792 12.1118 51.1086 12.2398 50.8526C12.4104 50.5539 12.5811 50.2126 12.7518 49.8286C12.9224 49.4019 13.0718 48.9752 13.1998 48.5486C13.3704 48.1219 13.4771 47.7592 13.5198 47.4606C13.6051 47.2046 13.6478 46.8632 13.6478 46.4366C13.6904 46.0099 13.7331 45.6259 13.7758 45.2846ZM19.9838 65.8286C20.1544 65.7859 20.1971 65.7432 20.1118 65.7006C19.8984 65.7006 19.7918 65.7219 19.7918 65.7646C19.7491 65.8072 19.8131 65.8286 19.9838 65.8286ZM35.0878 56.8686C36.0691 55.8446 36.5384 55.2899 36.4958 55.2046C36.4958 55.1192 35.9838 55.5672 34.9598 56.5486C34.5331 56.9326 34.0211 57.3806 33.4238 57.8926C32.8691 58.4046 32.2718 58.9166 31.6318 59.4286C31.0344 59.8979 30.4584 60.3459 29.9038 60.7726C29.3491 61.1992 28.9011 61.5406 28.5598 61.7966C28.3464 61.9246 28.0691 62.0952 27.7278 62.3086C27.3864 62.5219 27.1091 62.7352 26.8958 62.9486C26.0424 63.5459 25.1464 64.1006 24.2078 64.6126C23.2691 65.0819 22.5011 65.3806 21.9038 65.5086C21.5624 65.5939 21.2638 65.6792 21.0078 65.7646C20.7944 65.8072 20.6664 65.8712 20.6238 65.9566C20.5811 65.9992 20.6878 66.0206 20.9438 66.0206C21.1998 65.9779 21.5198 65.9139 21.9038 65.8286C22.2878 65.7006 22.6931 65.5726 23.1198 65.4446C23.5464 65.3166 23.8878 65.1886 24.1438 65.0606C24.4851 64.9326 24.7838 64.8046 25.0398 64.6766C25.2958 64.5059 25.4451 64.3992 25.4878 64.3566C25.5731 64.2712 25.8078 64.1006 26.1918 63.8446C26.6184 63.5459 27.0878 63.2259 27.5998 62.8846C28.8371 62.0739 30.1598 61.0926 31.5678 59.9406C32.9758 58.7886 34.1491 57.7646 35.0878 56.8686ZM25.7438 55.5246C25.2318 56.2926 24.7411 57.0392 24.2718 57.7646C23.8024 58.4472 23.5038 58.8952 23.3758 59.1086C23.2051 59.3646 22.9491 59.7699 22.6078 60.3246C22.3091 60.8366 21.9891 61.3699 21.6478 61.9246C21.3491 62.4792 21.0718 62.9912 20.8158 63.4606C20.6024 63.8872 20.4958 64.1219 20.4958 64.1646C20.5384 64.2926 20.6878 64.3566 20.9438 64.3566C21.2424 64.3139 21.5838 64.1859 21.9678 63.9726C23.3331 63.3326 24.8691 62.4366 26.5758 61.2846C28.2824 60.0899 30.0958 58.6819 32.0158 57.0606C32.3571 56.7619 32.7624 56.3566 33.2318 55.8446C33.7438 55.2899 34.2558 54.7139 34.7678 54.1166C35.2798 53.5192 35.7491 52.9432 36.1758 52.3886C36.6451 51.7912 36.9651 51.3219 37.1358 50.9806C37.5625 50.2979 37.9678 49.4872 38.3518 48.5486C38.7358 47.6099 39.0131 46.8419 39.1838 46.2446C39.2265 46.0312 39.2691 45.6686 39.3118 45.1566C39.3544 44.6019 39.3544 44.0686 39.3118 43.5566C39.3118 42.8312 39.2691 42.2979 39.1838 41.9566C39.1411 41.5726 39.0131 41.3592 38.7998 41.3166C38.5864 41.2312 38.2664 41.3166 37.8398 41.5726C37.4558 41.8286 36.9224 42.2126 36.2398 42.7246C34.8744 43.7912 33.2958 45.4126 31.5038 47.5886C29.7544 49.7646 27.8344 52.4099 25.7438 55.5246ZM19.4078 59.1726C19.4078 59.0019 19.6424 58.3832 20.1118 57.3166C20.5811 56.2072 21.1571 54.9272 21.8398 53.4766C22.5224 52.0259 23.2478 50.5539 24.0158 49.0606C24.8264 47.5246 25.5091 46.2446 26.0638 45.2206C26.5331 44.3672 26.9384 43.6206 27.2798 42.9806C27.6211 42.3406 27.7918 41.9779 27.7918 41.8926C27.7918 41.7646 27.9411 41.4872 28.2398 41.0606C28.3251 40.8899 28.4104 40.7406 28.4958 40.6126C28.5811 40.4419 28.6024 40.3566 28.5598 40.3566C28.4744 40.2712 28.0904 40.7406 27.4078 41.7646C26.7251 42.7886 25.9784 44.0046 25.1678 45.4126C25.0824 45.6259 24.9971 45.8179 24.9118 45.9886C24.8264 46.1166 24.7411 46.2232 24.6558 46.3086C24.6131 46.3939 24.5491 46.5006 24.4638 46.6286C24.4211 46.7566 24.3571 46.9059 24.2718 47.0766L23.7598 48.1006C23.4184 48.6979 22.9918 49.5299 22.4798 50.5966C21.9678 51.6206 21.4771 52.6446 21.0078 53.6686C20.5384 54.6926 20.1331 55.5886 19.7918 56.3566C19.4504 57.1246 19.2798 57.5726 19.2798 57.7006C19.2798 57.9139 19.1731 58.1912 18.9598 58.5326C18.8318 58.8312 18.6611 59.2152 18.4478 59.6846C18.2771 60.1112 18.1064 60.5379 17.9358 60.9646C17.7651 61.3486 17.6158 61.6899 17.4878 61.9886C17.4024 62.2872 17.3811 62.4366 17.4238 62.4366C17.5091 62.5219 17.6371 62.4579 17.8078 62.2446C17.9784 61.9886 18.2771 61.4979 18.7038 60.7726C18.9171 60.3886 19.0878 60.0472 19.2158 59.7486C19.3438 59.4499 19.4078 59.2579 19.4078 59.1726Z" fill="#3F2419"/>
<path d="M70.4113 47.0126C71.222 46.1592 71.6913 45.7752 71.8193 45.8606C71.9473 45.9032 71.8833 46.4152 71.6273 47.3966C71.5419 47.6526 71.4566 47.8659 71.3713 48.0366C71.3286 48.2072 71.2433 48.3992 71.1153 48.6126C71.0299 48.7832 70.902 48.9752 70.7313 49.1886C70.5606 49.4019 70.3259 49.6792 70.0273 50.0206C69.6433 50.4472 69.3019 50.8099 69.0033 51.1086C68.7046 51.4072 68.406 51.6419 68.1073 51.8126C67.8513 51.9832 67.574 52.1112 67.2753 52.1966C66.9766 52.2392 66.6353 52.2819 66.2513 52.3246C65.3979 52.3672 64.8433 52.3246 64.5873 52.1966C64.5019 52.1112 64.374 52.0472 64.2033 52.0046C64.0326 51.9192 63.8833 51.8339 63.7553 51.7486C63.4993 51.6206 63.1793 51.3646 62.7953 50.9806C62.4113 50.5966 62.0273 50.1486 61.6433 49.6366C61.302 49.1246 60.982 48.5912 60.6833 48.0366C60.4273 47.4819 60.2353 47.0126 60.1073 46.6286C60.022 46.3726 59.9366 45.9672 59.8513 45.4126C59.8086 44.8152 59.7659 44.2392 59.7233 43.6846C59.6806 43.1299 59.638 42.6606 59.5953 42.2766C59.5526 41.8499 59.5099 41.5939 59.4673 41.5086C59.3393 41.3806 59.1046 41.4232 58.7633 41.6366C58.4219 41.8072 58.2726 41.9566 58.3153 42.0846C58.358 42.1699 58.3366 42.1912 58.2513 42.1486C58.1233 42.0632 57.9099 42.1699 57.6113 42.4686C57.3553 42.7246 57.2913 42.8952 57.4193 42.9806C57.5046 43.0232 57.4833 43.0446 57.3553 43.0446C57.2273 43.0019 56.9073 43.2152 56.3953 43.6846C55.9259 44.1539 55.4993 44.6232 55.1153 45.0926C54.902 45.3912 54.7313 45.5406 54.6033 45.5406C54.4753 45.5832 54.3046 45.7112 54.0913 45.9246C53.9206 46.1379 53.8139 46.3299 53.7713 46.5006C53.7713 46.6712 53.6646 46.8206 53.4513 46.9486C53.2379 47.0339 53.1313 47.1832 53.1313 47.3966C53.1739 47.5246 53.1099 47.7166 52.9393 47.9726C52.6833 48.2712 52.3846 48.6979 52.0433 49.2526C51.7019 49.7646 51.254 50.4899 50.6993 51.4286C50.358 51.9406 50.0593 52.4099 49.8033 52.8366C49.59 53.2632 49.462 53.5192 49.4193 53.6046C49.334 53.6899 49.2486 53.8179 49.1633 53.9886C49.1206 54.1592 49.0566 54.3512 48.9713 54.5646C48.6299 55.4606 48.3313 56.1646 48.0753 56.6766C47.8193 57.1886 47.4566 57.8499 46.9873 58.6606C46.7313 59.1299 46.4539 59.5992 46.1553 60.0686C45.8993 60.4952 45.7286 60.7939 45.6433 60.9646C45.558 61.1352 45.3873 61.4339 45.1313 61.8606C44.9179 62.2446 44.7046 62.6286 44.4913 63.0126C44.2353 63.4392 43.9793 63.8659 43.7233 64.2926C43.5099 64.6766 43.3606 64.9752 43.2753 65.1886C43.062 65.6579 42.7206 66.1699 42.2513 66.7246C41.7819 67.2366 41.4406 67.4926 41.2273 67.4926C41.142 67.4926 41.0566 67.4926 40.9713 67.4926C40.8859 67.4926 40.8006 67.4712 40.7153 67.4286C40.5446 67.4286 40.4166 67.3432 40.3313 67.1726C40.2886 67.0446 40.1179 66.9379 39.8193 66.8526C39.5633 66.7672 39.3926 66.6606 39.3073 66.5326C39.2219 66.2339 39.0513 65.9352 38.7953 65.6366L38.4753 64.9966L38.7953 63.5246C39.0513 62.2019 39.4993 60.6659 40.1393 58.9166C40.7366 57.1246 41.5259 55.1192 42.5073 52.9006C42.6779 52.5166 42.8699 52.0472 43.0833 51.4926C43.2966 50.9379 43.4886 50.4686 43.6593 50.0846C43.8299 49.7432 44.0219 49.2952 44.2353 48.7406C44.4486 48.1432 44.6619 47.6312 44.8753 47.2046C45.0886 46.7352 45.3019 46.2019 45.5153 45.6046C45.7713 45.0072 46.006 44.4739 46.2193 44.0046C46.6033 43.1512 46.9446 42.4046 47.2433 41.7646C47.5846 41.0819 47.9899 40.3139 48.4593 39.4606C48.6299 39.1192 48.8219 38.7139 49.0353 38.2446C49.2913 37.7752 49.526 37.3486 49.7393 36.9646C49.91 36.6232 50.0806 36.3032 50.2513 36.0046C50.4646 35.6632 50.614 35.4499 50.6993 35.3646C50.8699 35.1086 50.9553 34.9379 50.9553 34.8526C50.9553 34.7246 51.062 34.6606 51.2753 34.6606C52.1286 34.4899 52.6193 34.4046 52.7473 34.4046C52.918 34.4046 53.0673 34.5112 53.1953 34.7246C53.4086 34.9379 53.5793 35.0446 53.7073 35.0446C53.8779 35.0446 53.9633 35.1512 53.9633 35.3646C53.9633 35.5779 53.8779 35.8552 53.7073 36.1966C53.5793 36.4526 53.5153 36.6872 53.5153 36.9006C53.5153 36.9859 53.4513 37.1566 53.3233 37.4126C53.1953 37.6686 53.0246 37.9672 52.8113 38.3086C52.2139 39.2899 51.6806 40.2712 51.2113 41.2526C50.742 42.1912 50.4006 43.0232 50.1873 43.7486C50.0593 44.0899 49.8246 44.6872 49.4833 45.5406C49.142 46.3512 48.8006 47.1832 48.4593 48.0366C47.8619 49.5299 47.4353 50.5539 47.1793 51.1086C46.966 51.6632 46.9019 51.9406 46.9873 51.9406C47.0299 51.9406 47.0939 51.8552 47.1793 51.6846C47.3073 51.4712 47.478 51.2152 47.6913 50.9166C48.0326 50.4472 48.2673 50.1486 48.3953 50.0206C48.5659 49.8499 48.5873 49.9352 48.4593 50.2766C48.4166 50.4472 48.3313 50.5966 48.2033 50.7246C48.1606 50.7672 48.0539 50.9379 47.8833 51.2366C47.7126 51.5352 47.4993 51.8766 47.2433 52.2606C47.0299 52.6446 46.8166 53.0072 46.6033 53.3486C46.4326 53.6899 46.3046 53.9459 46.2193 54.1166C45.9206 54.7139 45.8779 54.9059 46.0913 54.6926C46.3046 54.4366 46.7313 53.7539 47.3713 52.6446C47.7553 52.0472 48.1606 51.3859 48.5873 50.6606C49.0566 49.9352 49.4406 49.3806 49.7393 48.9966C50.1233 48.4419 50.614 47.7592 51.2113 46.9486C51.8513 46.1379 52.4913 45.3272 53.1313 44.5166C53.8139 43.7059 54.454 42.9592 55.0513 42.2766C55.6486 41.5939 56.0966 41.1246 56.3953 40.8686C56.6939 40.6126 56.9286 40.3992 57.0993 40.2286C57.27 40.0579 57.3339 39.9726 57.2913 39.9726C57.2486 39.9726 57.1206 40.0366 56.9073 40.1646C56.7366 40.2926 56.5233 40.4632 56.2673 40.6766C56.0113 40.8472 55.7553 41.0392 55.4993 41.2526C55.2859 41.4659 55.1153 41.6366 54.9873 41.7646C54.6886 42.0632 54.3046 42.4899 53.8353 43.0446C53.3659 43.5992 52.8753 44.1966 52.3633 44.8366C51.8513 45.4766 51.3606 46.1166 50.8913 46.7566C50.4219 47.3539 50.038 47.8872 49.7393 48.3566C49.398 48.9539 49.0993 49.3806 48.8433 49.6366C48.5873 49.8499 48.5446 49.7859 48.7153 49.4446C48.8006 49.3166 49.0353 48.9752 49.4193 48.4206C49.8033 47.8659 50.2513 47.2472 50.7633 46.5646C51.2753 45.8392 51.8086 45.1352 52.3633 44.4526C52.9179 43.7272 53.3873 43.1512 53.7713 42.7246C54.5819 41.7859 55.2646 41.0819 55.8193 40.6126C56.3739 40.1006 56.8859 39.7379 57.3553 39.5246C57.5686 39.4392 57.8246 39.3966 58.1233 39.3966C58.4646 39.3539 58.7846 39.3752 59.0833 39.4606C59.4246 39.5032 59.7233 39.5886 59.9793 39.7166C60.2353 39.8446 60.4059 39.9939 60.4913 40.1646C60.5766 40.2499 60.6406 40.3566 60.6833 40.4846C60.7686 40.5699 60.8539 40.6339 60.9393 40.6766C61.1953 40.8472 61.4513 41.1459 61.7073 41.5726C62.0059 41.9992 62.2193 42.4472 62.3473 42.9166C62.4326 43.1299 62.5393 43.5566 62.6673 44.1966C62.7953 44.8366 62.9019 45.5192 62.9873 46.2446C63.4139 48.6339 63.8406 49.9566 64.2673 50.2126C64.3953 50.2979 64.758 50.2979 65.3553 50.2126C65.7393 50.1699 66.0593 50.1059 66.3153 50.0206C66.614 49.8926 67.1046 49.5939 67.7873 49.1246C68.214 48.8259 68.662 48.4846 69.1313 48.1006C69.6433 47.6739 70.07 47.3112 70.4113 47.0126ZM45.5153 49.2526C45.3446 49.5086 45.2806 49.6579 45.3233 49.7006V49.7646C45.3233 49.7646 45.4086 49.6366 45.5793 49.3806C45.6646 49.2099 45.7073 49.1246 45.7073 49.1246C45.7073 49.1246 45.6433 49.1672 45.5153 49.2526ZM40.6513 63.4606C40.8219 63.1192 40.8006 63.0766 40.5873 63.3326C40.4166 63.5032 40.3313 63.6526 40.3313 63.7806C40.374 63.8232 40.3953 63.8446 40.3953 63.8446C40.3953 63.8446 40.4806 63.7166 40.6513 63.4606ZM44.4913 52.9646C44.5766 52.8366 44.6833 52.6232 44.8113 52.3246C44.9819 51.9832 45.1313 51.6632 45.2593 51.3646C45.4299 51.0232 45.558 50.7246 45.6433 50.4686C45.7286 50.2126 45.7713 50.0632 45.7713 50.0206C45.7713 49.9779 45.6646 49.9566 45.4513 49.9566C45.2806 49.9566 45.1313 50.1272 45.0033 50.4686C44.9606 50.5539 44.9393 50.6179 44.9393 50.6606C44.9393 50.7032 44.9179 50.7459 44.8753 50.7886C44.8753 50.8312 44.8753 50.8739 44.8753 50.9166C44.9606 50.9166 44.918 51.0446 44.7473 51.3006C44.7046 51.3859 44.598 51.5779 44.4273 51.8766C44.2993 52.1326 44.1713 52.4312 44.0433 52.7726C43.9153 53.0712 43.7873 53.3486 43.6593 53.6046C43.5739 53.8606 43.5313 54.0312 43.5313 54.1166C43.574 54.1592 43.6379 54.1379 43.7233 54.0526C43.8086 54.0099 43.8513 54.0312 43.8513 54.1166C43.766 54.2872 43.6806 54.3299 43.5953 54.2446C43.51 54.2446 43.4246 54.3086 43.3393 54.4366C43.2966 54.5219 43.1899 54.7779 43.0193 55.2046C42.8913 55.6312 42.7206 56.0792 42.5073 56.5486C41.6539 58.5539 41.3553 59.4712 41.6113 59.3006C41.6539 59.2579 41.6966 59.2579 41.7393 59.3006C41.7393 59.3006 41.7179 59.3432 41.6753 59.4286C41.5899 59.5566 41.5046 59.6206 41.4193 59.6206C41.3766 59.5779 41.3553 59.5566 41.3553 59.5566C41.3126 59.5566 41.3339 59.5992 41.4193 59.6846C41.5046 59.7699 41.526 59.9406 41.4833 60.1966C41.398 60.4099 41.3126 60.4739 41.2273 60.3886C41.142 60.3886 41.142 60.4526 41.2273 60.5806C41.3126 60.7512 41.2486 60.8366 41.0353 60.8366C40.9073 60.8366 40.8646 60.9219 40.9073 61.0926C40.9926 61.2632 40.9499 61.5406 40.7793 61.9246C40.4379 62.6499 40.4593 62.7352 40.8433 62.1806C40.9286 62.0526 41.0993 61.7112 41.3553 61.1566C41.5686 60.5592 41.8033 59.8979 42.0593 59.1726C42.3153 58.4472 42.5499 57.8286 42.7633 57.3166C42.9766 56.8046 43.1046 56.5059 43.1473 56.4206C43.2326 56.3352 43.2966 56.1859 43.3393 55.9726C43.4246 55.7166 43.51 55.4819 43.5953 55.2686C43.6806 55.0126 43.7446 54.7779 43.7873 54.5646C43.8726 54.3512 43.9579 54.2446 44.0433 54.2446C44.1286 54.0739 44.1713 53.9246 44.1713 53.7966C44.1713 53.5832 44.278 53.3059 44.4913 52.9646ZM45.8993 48.6766C45.8993 48.5486 45.8566 48.5059 45.7713 48.5486C45.6859 48.6339 45.6433 48.7192 45.6433 48.8046C45.686 49.0179 45.7713 48.9752 45.8993 48.6766Z" fill="#3F2419"/>
<path d="M100.703 42.5326C101.215 41.8926 101.471 41.5086 101.471 41.3806C101.471 41.2526 101.215 41.4659 100.703 42.0206C100.447 42.2766 100.234 42.5326 100.063 42.7886C99.9353 42.9166 99.8286 43.0446 99.7433 43.1726C99.7433 43.3006 99.85 43.3006 100.063 43.1726C100.277 43.0446 100.49 42.8312 100.703 42.5326ZM97.8233 45.8606C98.378 45.2632 98.762 44.8366 98.9753 44.5806C99.1886 44.2819 99.1886 44.2392 98.9753 44.4526C98.762 44.6659 98.5273 44.9006 98.2713 45.1566C98.058 45.4126 97.9086 45.5832 97.8233 45.6686C97.6526 45.8819 97.418 46.1592 97.1193 46.5006C96.8206 46.7992 96.5006 47.0979 96.1593 47.3966C95.8606 47.6526 95.5833 47.8872 95.3273 48.1006C95.0713 48.3139 94.922 48.4206 94.8793 48.4206C94.7513 48.3352 94.6873 48.4206 94.6873 48.6766C94.6873 48.8899 94.5806 48.9966 94.3673 48.9966C94.2393 48.9966 94.0473 49.1032 93.7913 49.3166C93.5779 49.5299 93.3433 49.7646 93.0873 50.0206C92.8313 50.2766 92.618 50.5326 92.4473 50.7886C92.2766 51.0019 92.2126 51.1512 92.2553 51.2366C92.2553 51.3219 92.426 51.2366 92.7673 50.9806C93.1086 50.7246 93.5353 50.3619 94.0473 49.8926C94.5593 49.3806 95.1353 48.7832 95.7753 48.1006C96.458 47.3752 97.1406 46.6286 97.8233 45.8606ZM91.3593 52.5166C91.7433 52.0046 91.914 51.7486 91.8713 51.7486C91.786 51.7486 91.53 52.0046 91.1033 52.5166C90.7193 52.9859 90.5486 53.2206 90.5913 53.2206C90.634 53.2206 90.7193 53.1566 90.8473 53.0286C90.9753 52.9006 91.146 52.7299 91.3593 52.5166ZM96.6713 46.1806C96.458 46.4366 96.266 46.6712 96.0953 46.8846C95.9246 47.0552 95.8606 47.1406 95.9033 47.1406C95.9459 47.1406 96.0526 47.0552 96.2233 46.8846C96.4366 46.6712 96.65 46.4366 96.8633 46.1806C97.0766 45.9246 97.2686 45.6899 97.4393 45.4766C97.61 45.2632 97.674 45.1566 97.6313 45.1566C97.5886 45.1566 97.482 45.2632 97.3113 45.4766C97.1406 45.6899 96.9273 45.9246 96.6713 46.1806ZM78.8793 43.1726C78.4953 43.6419 78.0046 44.3672 77.4073 45.3486C76.81 46.3299 76.2126 47.3326 75.6153 48.3566C75.0606 49.3379 74.57 50.2339 74.1433 51.0446C73.7593 51.8552 73.5673 52.3246 73.5673 52.4526C73.5673 52.5806 73.6313 52.6232 73.7593 52.5806C73.93 52.4952 74.314 52.2819 74.9113 51.9406C75.2953 51.7272 75.7646 51.4072 76.3193 50.9806C76.8739 50.5539 77.4286 50.1059 77.9833 49.6366C78.538 49.1246 79.0713 48.6339 79.5833 48.1646C80.0953 47.6526 80.5006 47.2046 80.7993 46.8206C81.0553 46.4792 81.3326 46.0952 81.6313 45.6686C81.93 45.1992 82.186 44.7512 82.3993 44.3246C82.6553 43.8552 82.8686 43.4499 83.0393 43.1086C83.21 42.7246 83.2953 42.4686 83.2953 42.3406C83.2953 42.0419 83.3593 41.8712 83.4873 41.8286C83.6153 41.7432 83.6793 41.4232 83.6793 40.8686C83.6793 40.2712 83.6153 39.7806 83.4873 39.3966L83.2953 38.8846L82.7193 39.2686C82.25 39.5672 81.61 40.1219 80.7993 40.9326C79.9886 41.7432 79.3486 42.4899 78.8793 43.1726ZM153.631 46.7566C153.802 46.7566 153.887 46.8206 153.887 46.9486C153.887 47.0339 153.823 47.2259 153.695 47.5246C153.61 47.7806 153.503 48.0792 153.375 48.4206C153.247 48.7192 153.098 49.0392 152.927 49.3806C152.757 49.6792 152.607 49.9352 152.479 50.1486C152.351 50.3192 152.202 50.5539 152.031 50.8526C151.861 51.1512 151.711 51.4286 151.583 51.6846C151.242 52.4099 150.645 53.3059 149.791 54.3726C148.981 55.3966 148.17 56.3352 147.359 57.1886C146.762 57.7859 146.079 58.3192 145.311 58.7886C144.586 59.2579 143.839 59.6419 143.071 59.9406C142.303 60.2392 141.535 60.4526 140.767 60.5806C140.042 60.6659 139.359 60.6446 138.719 60.5166C137.61 60.3032 136.693 60.0046 135.967 59.6206C135.285 59.1939 134.495 58.5112 133.599 57.5726C132.959 56.9326 132.405 56.3139 131.935 55.7166C131.509 55.1192 131.125 54.4792 130.783 53.7966C130.485 53.0712 130.207 52.3032 129.951 51.4926C129.738 50.6392 129.525 49.6366 129.311 48.4846C129.183 47.7166 129.055 47.0552 128.927 46.5006C128.842 45.9032 128.778 45.5619 128.735 45.4766C128.65 45.2632 128.223 45.4339 127.455 45.9886C126.73 46.5432 125.898 47.2686 124.959 48.1646C123.893 49.2312 122.762 50.5539 121.567 52.1326C120.373 53.7112 119.349 55.2046 118.495 56.6126C118.026 57.5086 117.642 58.1912 117.343 58.6606C117.087 59.1299 116.874 59.4712 116.703 59.6846C116.575 59.8552 116.447 59.9619 116.319 60.0046C116.191 60.0046 116.042 59.9832 115.871 59.9406C115.615 59.8552 115.423 59.7486 115.295 59.6206C115.167 59.4926 115.039 59.2792 114.911 58.9806C114.826 58.7672 114.741 58.6179 114.655 58.5326C114.613 58.4046 114.57 58.3832 114.527 58.4686C114.357 58.9806 113.994 58.7032 113.439 57.6366C113.269 57.2526 113.119 56.8899 112.991 56.5486C112.906 56.2072 112.842 55.8232 112.799 55.3966C112.799 54.9272 112.821 54.3726 112.863 53.7326C112.906 53.0926 112.97 52.3032 113.055 51.3646C113.226 49.5726 113.311 48.0152 113.311 46.6926C113.354 45.3699 113.311 44.5806 113.183 44.3246C113.055 44.1112 112.842 44.0899 112.543 44.2606C112.245 44.3886 111.669 44.7726 110.815 45.4126C109.791 46.1379 108.554 47.3112 107.103 48.9326C105.653 50.5539 104.181 52.3246 102.687 54.2446C101.237 56.1646 99.8713 58.1059 98.5913 60.0686C97.354 61.9886 96.4366 63.6312 95.8393 64.9966C95.4126 65.9352 94.9433 66.6392 94.4313 67.1086C93.9619 67.5352 93.6419 67.5352 93.4713 67.1086C93.4713 67.0232 93.4073 66.9379 93.2793 66.8526C93.1513 66.7246 93.002 66.6179 92.8313 66.5326C92.49 66.4046 92.3193 66.2339 92.3193 66.0206C92.4046 65.4232 92.2979 65.1886 91.9993 65.3166C91.7859 65.4019 91.5726 65.1886 91.3593 64.6766C91.2313 64.2926 91.1673 64.0152 91.1673 63.8446C91.1673 63.6739 91.2526 63.3966 91.4233 63.0126C91.5513 62.7566 91.786 62.2232 92.1273 61.4126C92.5113 60.6019 92.938 59.6632 93.4073 58.5966C93.9193 57.4872 94.4739 56.3139 95.0713 55.0766C95.6686 53.8392 96.2446 52.6446 96.7993 51.4926C97.226 50.6392 97.6313 49.8286 98.0153 49.0606C98.3993 48.2499 98.6553 47.7166 98.7833 47.4606C98.9113 47.1619 98.6766 47.3326 98.0793 47.9726C97.482 48.5699 96.394 49.7646 94.8153 51.5566C94.218 52.2392 93.642 52.9219 93.0873 53.6046C92.5326 54.2446 92.0206 54.8419 91.5513 55.3966C91.082 55.9086 90.6766 56.3566 90.3353 56.7406C90.0366 57.0819 89.8233 57.3166 89.6953 57.4446C89.0553 58.2552 88.266 59.1299 87.3273 60.0686C86.4313 61.0072 85.6846 61.7112 85.0873 62.1806C84.746 62.4366 84.3406 62.7992 83.8713 63.2686C83.402 63.6952 82.9753 64.0792 82.5913 64.4206C81.866 65.1886 81.162 65.8072 80.4793 66.2766C79.8393 66.7032 78.922 67.1512 77.7273 67.6206C77.0446 67.9192 76.49 68.1112 76.0633 68.1966C75.6793 68.2392 75.1246 68.2606 74.3993 68.2606C73.93 68.2606 73.4393 68.2606 72.9273 68.2606C72.458 68.2179 72.1166 68.1539 71.9033 68.0686C71.6899 68.0259 71.434 67.9619 71.1353 67.8766C70.8793 67.7486 70.666 67.5992 70.4953 67.4286C70.0686 67.0872 69.5993 66.4686 69.0873 65.5726C68.5753 64.6766 68.17 63.7806 67.8713 62.8846C67.7433 62.5432 67.658 62.2659 67.6153 62.0526C67.53 61.7966 67.4873 61.5406 67.4873 61.2846C67.4446 61.0286 67.4233 60.7299 67.4233 60.3886C67.4233 60.0472 67.4233 59.5992 67.4233 59.0446C67.5086 58.0632 67.5939 57.2952 67.6793 56.7406C67.7219 56.1432 67.8713 55.4179 68.1273 54.5646C68.2979 53.9672 68.554 53.2419 68.8953 52.3886C69.2366 51.5352 69.6206 50.6392 70.0473 49.7006C70.474 48.7619 70.9006 47.8446 71.3273 46.9486C71.7966 46.0099 72.2446 45.1779 72.6713 44.4526C73.1833 43.5139 73.7593 42.5752 74.3993 41.6366C75.0393 40.6979 75.6366 39.8446 76.1913 39.0766C76.7886 38.3086 77.3219 37.6899 77.7913 37.2206C78.2606 36.7086 78.602 36.4312 78.8153 36.3886C78.9006 36.3459 79.0499 36.2819 79.2633 36.1966C79.4766 36.1112 79.6686 36.0046 79.8393 35.8766C80.0526 35.7486 80.3086 35.6206 80.6073 35.4926C80.9486 35.3219 81.29 35.1939 81.6313 35.1086C82.186 34.8952 82.5486 34.8099 82.7193 34.8526C82.89 34.8952 83.1673 35.0232 83.5513 35.2366C84.0633 35.5352 84.3193 35.7912 84.3193 36.0046C84.2339 36.1752 84.3406 36.3032 84.6393 36.3886C84.8953 36.4739 85.0233 36.5806 85.0233 36.7086C85.0233 36.8792 85.2153 37.2632 85.5993 37.8606C85.7699 38.1592 85.9406 38.5859 86.1113 39.1406C86.3246 39.6526 86.4953 40.1646 86.6233 40.6766C86.8366 41.4872 86.9433 42.0632 86.9433 42.4046C86.986 42.7032 86.9646 43.1512 86.8793 43.7486C86.794 44.2606 86.602 44.9006 86.3033 45.6686C86.0046 46.3939 85.642 47.1406 85.2153 47.9086C84.8313 48.6766 84.4046 49.4019 83.9353 50.0846C83.466 50.7672 82.9966 51.3219 82.5273 51.7486C82.2713 52.0046 81.866 52.3246 81.3113 52.7086C80.7566 53.0926 80.1593 53.4766 79.5193 53.8606C78.922 54.2446 78.3459 54.5859 77.7913 54.8846C77.2793 55.1406 76.8953 55.2899 76.6393 55.3326C76.0846 55.4179 75.4446 55.3752 74.7193 55.2046C74.0366 54.9912 73.546 54.7139 73.2473 54.3726L72.7353 53.8606L72.6073 54.5006C72.522 54.6712 72.3939 54.9912 72.2233 55.4606C72.0953 55.8872 71.946 56.3352 71.7753 56.8046C71.4766 57.7006 71.2206 58.7672 71.0073 60.0046C70.794 61.1992 70.6873 62.1592 70.6873 62.8846C70.6873 63.5246 70.794 63.9299 71.0073 64.1006C71.2206 64.2286 71.8606 64.2712 72.9273 64.2286C73.738 64.1859 74.314 64.1219 74.6553 64.0366C75.0393 63.9512 75.466 63.8019 75.9353 63.5886C76.4473 63.3326 77.0446 62.9699 77.7273 62.5006C78.4526 62.0312 79.1993 61.4979 79.9673 60.9006C80.778 60.3032 81.5886 59.6846 82.3993 59.0446C83.21 58.3619 83.9566 57.6792 84.6393 56.9966C86.0046 55.6739 87.562 54.1592 89.3113 52.4526C91.0606 50.7032 92.746 49.0179 94.3673 47.3966C95.3486 46.4152 96.2446 45.5406 97.0553 44.7726C97.9086 43.9619 98.442 43.4712 98.6553 43.3006C98.8686 43.1726 99.1886 42.8952 99.6153 42.4686C100.042 42.0419 100.469 41.6152 100.895 41.1886C101.322 40.7192 101.706 40.2926 102.047 39.9086C102.389 39.5246 102.581 39.2899 102.623 39.2046C102.709 39.0339 102.922 38.6926 103.263 38.1806C103.647 37.6259 104.01 37.1139 104.351 36.6446C104.693 36.2179 105.055 36.0472 105.439 36.1326C105.823 36.2179 106.314 36.5592 106.911 37.1566C107.295 37.5832 107.53 37.8819 107.615 38.0526C107.701 38.2232 107.722 38.4792 107.679 38.8206C107.637 39.0339 107.573 39.2686 107.487 39.5246C107.445 39.7379 107.381 39.8872 107.295 39.9726C107.21 40.0579 107.039 40.3566 106.783 40.8686C106.57 41.3379 106.314 41.8712 106.015 42.4686C105.717 43.0659 105.397 43.7059 105.055 44.3886C104.757 45.0712 104.522 45.6046 104.351 45.9886L103.711 47.2686L105.695 45.2846C106.293 44.6872 106.826 44.1752 107.295 43.7486C107.765 43.2792 108.191 42.8952 108.575 42.5966C108.959 42.2552 109.322 41.9779 109.663 41.7646C110.005 41.5512 110.346 41.3592 110.687 41.1886C111.882 40.5486 112.778 40.5486 113.375 41.1886C113.546 41.3166 113.695 41.4446 113.823 41.5726C113.951 41.6579 114.037 41.7006 114.079 41.7006C114.165 41.7006 114.293 41.7859 114.463 41.9566C114.634 42.0846 114.826 42.2552 115.039 42.4686C115.253 42.6392 115.445 42.8526 115.615 43.1086C115.829 43.3219 115.978 43.4926 116.063 43.6206C116.277 44.0472 116.447 44.9219 116.575 46.2446C116.746 47.5672 116.81 48.9539 116.767 50.4046L116.639 52.8366L117.215 52.0046C117.514 51.5779 117.919 51.0446 118.431 50.4046C118.986 49.7219 119.541 49.0392 120.095 48.3566C120.693 47.6739 121.247 47.0552 121.759 46.5006C122.271 45.9032 122.634 45.4979 122.847 45.2846C123.914 44.3032 124.917 43.5139 125.855 42.9166C126.837 42.2766 127.583 41.9566 128.095 41.9566C128.607 41.9566 129.013 42.1699 129.311 42.5966C129.482 42.7672 129.631 42.9166 129.759 43.0446C129.887 43.1726 129.994 43.2366 130.079 43.2366C130.335 43.2366 130.613 43.6206 130.911 44.3886C131.253 45.1566 131.53 46.0739 131.743 47.1406C132.042 48.9752 132.405 50.6819 132.831 52.2606C133.301 53.7966 133.706 54.7779 134.047 55.2046C134.431 55.7166 134.965 56.1006 135.647 56.3566C136.33 56.6126 137.077 56.7406 137.887 56.7406C138.741 56.7406 139.594 56.6339 140.447 56.4206C141.343 56.2072 142.197 55.8659 143.007 55.3966C143.903 54.8846 144.842 54.2446 145.823 53.4766C146.805 52.6659 147.722 51.8552 148.575 51.0446C149.471 50.1912 150.239 49.3592 150.879 48.5486C151.519 47.6952 151.967 46.9912 152.223 46.4366C152.394 45.9672 152.501 45.6899 152.543 45.6046C152.586 45.5192 152.714 45.5832 152.927 45.7966C153.055 45.8819 153.141 45.9886 153.183 46.1166C153.269 46.2446 153.311 46.3512 153.311 46.4366C153.311 46.6499 153.418 46.7566 153.631 46.7566Z" fill="#3F2419"/>
<path d="M182.672 50.2126C182.886 50.0846 182.971 50.1699 182.928 50.4686C182.928 50.7672 182.843 51.1512 182.672 51.6206C182.502 52.0472 182.267 52.5166 181.968 53.0286C181.712 53.5406 181.414 53.9672 181.072 54.3086C180.731 54.6926 180.496 54.7992 180.368 54.6286C180.24 54.4579 180.347 54.1166 180.688 53.6046L181.136 52.8366L180.56 53.3486C180.39 53.4766 180.134 53.7966 179.792 54.3086C179.451 54.7779 179.11 55.2899 178.768 55.8446C178.384 56.4846 177.68 57.4659 176.656 58.7886C175.675 60.0686 174.608 61.4126 173.456 62.8206C172.347 64.2286 171.28 65.5299 170.256 66.7246C169.232 67.9192 168.507 68.7299 168.08 69.1566C167.696 69.4979 167.376 69.8179 167.12 70.1166C166.864 70.4152 166.715 70.6072 166.672 70.6926C166.587 71.0339 166.459 71.2899 166.288 71.4606C166.118 71.7166 166.075 71.8446 166.16 71.8446C166.203 71.8446 166.331 71.7592 166.544 71.5886C166.8 71.4179 167.056 71.2046 167.312 70.9486C167.611 70.6926 167.91 70.4366 168.208 70.1806C168.507 69.9246 168.742 69.7112 168.912 69.5406C169.723 68.6872 170.576 67.7486 171.472 66.7246C172.368 65.6579 173.072 64.8046 173.584 64.1646C174.438 63.0126 175.227 61.9672 175.952 61.0286C176.72 60.0472 177.36 59.2366 177.872 58.5966C178.427 57.9139 178.854 57.4019 179.152 57.0606C179.451 56.7192 179.6 56.5912 179.6 56.6766C179.6 56.7619 179.472 57.0179 179.216 57.4446C179.003 57.8286 178.726 58.2766 178.384 58.7886C178.043 59.2579 177.659 59.7912 177.232 60.3886C176.848 60.9859 176.55 61.4766 176.336 61.8606C176.123 62.2019 175.696 62.7992 175.056 63.6526C174.459 64.4632 173.776 65.3379 173.008 66.2766C172.283 67.2152 171.558 68.1326 170.832 69.0286C170.107 69.8819 169.552 70.5006 169.168 70.8846C168.784 71.2686 168.315 71.7166 167.76 72.2286C167.248 72.7406 166.715 73.2739 166.16 73.8286C165.606 74.3406 165.051 74.8526 164.496 75.3646C163.984 75.8339 163.558 76.2179 163.216 76.5166C162.832 76.8579 162.342 77.2419 161.744 77.6686C161.19 78.0952 160.614 78.5006 160.016 78.8846C159.462 79.2259 158.928 79.5459 158.416 79.8446C157.947 80.1006 157.606 80.2499 157.392 80.2926C157.222 80.3779 157.008 80.4632 156.752 80.5486C156.539 80.6339 156.326 80.7192 156.112 80.8046C155.899 80.8899 155.579 80.9752 155.152 81.0606C154.726 81.1032 154.235 81.1459 153.68 81.1886C153.296 81.1886 152.976 81.1886 152.72 81.1886C152.464 81.1886 152.23 81.1886 152.016 81.1886C151.803 81.1459 151.59 81.0819 151.376 80.9966C151.206 80.9112 150.971 80.8046 150.672 80.6766C147.984 79.3966 146.214 77.6259 145.36 75.3646C145.232 75.0232 145.104 74.6606 144.976 74.2766C144.806 73.8926 144.656 73.5939 144.528 73.3806C144.102 72.4419 143.846 71.2259 143.76 69.7326C143.675 68.2392 143.782 66.6819 144.08 65.0606C144.294 63.8232 144.614 62.3726 145.04 60.7086C145.467 59.0446 145.958 57.3379 146.512 55.5886C147.067 53.7966 147.643 52.0686 148.24 50.4046C148.88 48.6979 149.478 47.2259 150.032 45.9886C150.203 45.6046 150.352 45.2632 150.48 44.9646C150.608 44.6659 150.672 44.4952 150.672 44.4526C150.672 44.3246 150.928 43.7059 151.44 42.5966C151.995 41.4872 152.635 40.2286 153.36 38.8206C154.086 37.3699 154.832 35.9406 155.6 34.5326C156.411 33.1246 157.051 32.0366 157.52 31.2686C157.862 30.6712 158.182 30.0952 158.48 29.5406C158.822 28.9432 159.056 28.5379 159.184 28.3246C159.312 28.0686 159.782 27.3219 160.592 26.0846C161.403 24.8046 162.448 23.2686 163.728 21.4766C165.008 19.6846 166.459 17.7219 168.08 15.5886C169.702 13.4552 171.408 11.3859 173.2 9.38057C174.992 7.37524 176.784 5.5619 178.576 3.94057C180.411 2.31923 182.139 1.10324 183.76 0.292571C184.4 -0.0487626 185.126 -0.0914288 185.936 0.164573C186.747 0.377906 187.323 0.761906 187.664 1.31657C188.262 2.25524 188.624 2.89524 188.752 3.23657C188.88 3.53524 188.902 3.9619 188.816 4.51657C188.774 4.8579 188.71 5.19924 188.624 5.54057C188.539 5.83924 188.411 6.2019 188.24 6.62857C188.112 7.01257 187.92 7.4819 187.664 8.03657C187.451 8.54857 187.152 9.2099 186.768 10.0206C186.256 11.1299 185.531 12.6019 184.592 14.4366C183.654 16.2286 182.672 18.0846 181.648 20.0046C180.624 21.8819 179.643 23.6526 178.704 25.3166C177.766 26.9379 177.062 28.1326 176.592 28.9006C176.507 28.9859 176.294 29.3059 175.952 29.8606C175.654 30.4152 175.27 31.0552 174.8 31.7806C174.331 32.5059 173.819 33.3166 173.264 34.2126C172.71 35.1086 172.24 35.8339 171.856 36.3886L169.296 40.2286C168.358 41.6366 167.227 43.2152 165.904 44.9646C164.624 46.7139 163.323 48.4419 162 50.1486C160.72 51.8126 159.462 53.3699 158.224 54.8206C157.03 56.2286 156.048 57.3379 155.28 58.1486C154.854 58.5752 154.384 58.9806 153.872 59.3646C153.403 59.7486 152.912 60.0686 152.4 60.3246C151.888 60.5806 151.398 60.7726 150.928 60.9006C150.502 61.0286 150.139 61.0712 149.84 61.0286C149.542 60.9432 149.35 60.9646 149.264 61.0926C149.179 61.2206 149.008 61.7112 148.752 62.5646C148.624 63.0339 148.454 63.7166 148.24 64.6126C148.07 65.4659 147.899 66.2766 147.728 67.0446C147.344 69.3912 147.238 71.3112 147.408 72.8046C147.536 74.2552 147.963 75.5139 148.688 76.5806C148.902 76.9219 149.094 77.1566 149.264 77.2846C149.478 77.4126 149.776 77.5192 150.16 77.6046C150.459 77.6472 150.758 77.6899 151.056 77.7326C151.355 77.7326 151.611 77.7326 151.824 77.7326C152.55 77.6899 153.595 77.3699 154.96 76.7726C156.326 76.1326 157.691 75.3432 159.056 74.4046C159.611 74.0206 160.315 73.4659 161.168 72.7406C162.022 71.9726 162.918 71.1406 163.856 70.2446C164.795 69.3059 165.712 68.3459 166.608 67.3646C167.547 66.3832 168.379 65.4446 169.104 64.5486C170.128 63.3539 170.854 62.5432 171.28 62.1166C171.707 61.6472 171.984 61.3912 172.112 61.3486C172.326 61.3059 172.582 61.1352 172.88 60.8366C173.222 60.4952 173.563 60.0899 173.904 59.6206C174.075 59.3646 174.31 59.0659 174.608 58.7246C174.95 58.3406 175.27 58.0206 175.568 57.7646C175.867 57.4659 176.251 57.0392 176.72 56.4846C177.19 55.9299 177.702 55.3112 178.256 54.6286C178.811 53.9032 179.344 53.1779 179.856 52.4526C180.411 51.7272 180.902 51.0446 181.328 50.4046C181.627 49.9352 181.883 49.5512 182.096 49.2526C182.352 48.9112 182.523 48.6979 182.608 48.6126C182.864 48.3992 182.992 48.4206 182.992 48.6766C183.035 48.8899 182.95 49.1886 182.736 49.5726C182.31 50.2126 182.288 50.4259 182.672 50.2126ZM148.944 53.7326C148.859 54.0739 148.944 53.9032 149.2 53.2206C149.499 52.5379 149.926 51.4926 150.48 50.0846C150.822 49.1886 151.099 48.4419 151.312 47.8446C151.526 47.2472 151.611 46.9912 151.568 47.0766C151.526 47.1192 151.355 47.4819 151.056 48.1646C150.8 48.8046 150.502 49.5299 150.16 50.3406C149.862 51.1086 149.584 51.8339 149.328 52.5166C149.072 53.1992 148.944 53.6046 148.944 53.7326ZM179.856 21.4766C179.984 21.1352 180.006 21.0072 179.92 21.0926C179.835 21.1779 179.707 21.3699 179.536 21.6686C179.408 21.9246 179.387 22.0526 179.472 22.0526C179.558 22.0526 179.686 21.8606 179.856 21.4766ZM175.696 12.6446C175.483 12.9006 175.099 13.3912 174.544 14.1166C174.032 14.7992 173.435 15.6099 172.752 16.5486C172.112 17.4446 171.43 18.4046 170.704 19.4286C169.979 20.4099 169.318 21.3272 168.72 22.1806C168.123 22.9912 167.611 23.6739 167.184 24.2286C166.8 24.7832 166.587 25.0819 166.544 25.1246C166.331 25.3806 165.99 25.8499 165.52 26.5326C165.094 27.1726 164.624 27.8766 164.112 28.6446C163.6 29.4126 163.088 30.1806 162.576 30.9486C162.107 31.7166 161.702 32.3779 161.36 32.9326C160.72 34.0846 160.08 35.2152 159.44 36.3246C158.843 37.3912 158.31 38.3726 157.84 39.2686C157.371 40.1646 156.987 40.9112 156.688 41.5086C156.432 42.0632 156.283 42.4046 156.24 42.5326C156.198 42.8312 156.006 43.3859 155.664 44.1966C155.323 44.9646 154.704 46.3086 153.808 48.2286C153.68 48.5699 153.424 49.1886 153.04 50.0846C152.699 50.9806 152.336 51.9192 151.952 52.9006C151.611 53.8819 151.291 54.7779 150.992 55.5886C150.694 56.3992 150.523 56.9112 150.48 57.1246C150.395 57.3806 150.395 57.5086 150.48 57.5086C150.608 57.4659 150.907 57.2312 151.376 56.8046C152.742 55.6526 154.384 53.9246 156.304 51.6206C158.267 49.2739 160.422 46.4792 162.768 43.2366C163.622 42.1272 164.411 41.0819 165.136 40.1006C165.862 39.0766 166.331 38.4152 166.544 38.1166C166.758 37.8606 167.035 37.4979 167.376 37.0286C167.718 36.5166 168.038 36.0259 168.336 35.5566C168.592 35.0872 168.912 34.5752 169.296 34.0206C169.723 33.4232 170.086 32.9539 170.384 32.6126C170.683 32.2712 170.96 31.9299 171.216 31.5886C171.472 31.2046 171.771 30.7566 172.112 30.2446C172.454 29.6899 172.859 29.0072 173.328 28.1966C173.84 27.3859 174.48 26.3406 175.248 25.0606C176.614 22.7566 177.83 20.6446 178.896 18.7246C180.006 16.8046 181.094 14.8206 182.16 12.7726C182.715 11.6632 183.142 10.7886 183.44 10.1486C183.782 9.50857 184.038 9.0179 184.208 8.67657C184.379 8.33524 184.464 8.10057 184.464 7.97257C184.507 7.84457 184.507 7.75924 184.464 7.71657C184.379 7.63124 184.422 7.50324 184.592 7.33257C184.806 7.11924 185.019 6.7139 185.232 6.11657C185.488 5.47657 185.659 4.7939 185.744 4.06857L185.936 2.72457L185.296 3.17257C185.083 3.30057 184.87 3.4499 184.656 3.62057C184.443 3.79124 184.272 3.94057 184.144 4.06857C183.974 4.23924 183.718 4.4739 183.376 4.77257C183.078 5.07124 182.758 5.36991 182.416 5.66857C181.478 6.5219 180.454 7.50324 179.344 8.61257C178.278 9.72191 177.062 11.0659 175.696 12.6446ZM151.632 46.5646C151.675 46.7352 151.718 46.8206 151.76 46.8206C151.803 46.7779 151.846 46.6499 151.888 46.4366C151.931 46.2659 151.91 46.2019 151.824 46.2446C151.696 46.2872 151.632 46.3939 151.632 46.5646ZM152.72 44.3246C152.635 44.4526 152.55 44.6232 152.464 44.8366C152.379 45.0072 152.294 45.1992 152.208 45.4126C152.123 45.5832 152.059 45.7112 152.016 45.7966C152.016 45.8819 152.038 45.8819 152.08 45.7966C152.251 45.6259 152.443 45.2846 152.656 44.7726C152.827 44.3032 152.848 44.1539 152.72 44.3246ZM153.68 42.3406V42.4686C153.766 42.3832 153.872 42.2126 154 41.9566C154.086 41.7432 154.128 41.6366 154.128 41.6366C154.128 41.6366 154.064 41.7006 153.936 41.8286C153.723 42.0419 153.638 42.2126 153.68 42.3406ZM155.472 38.5006C155.472 38.7566 155.622 38.6072 155.92 38.0526L156.176 37.4766L155.792 37.8606C155.579 38.1592 155.472 38.3726 155.472 38.5006ZM157.328 35.3006C157.286 35.3432 157.179 35.4712 157.008 35.6846C156.88 35.8979 156.752 36.1326 156.624 36.3886C156.496 36.6446 156.39 36.8792 156.304 37.0926C156.262 37.2632 156.262 37.3486 156.304 37.3486C156.39 37.3486 156.475 37.2419 156.56 37.0286C156.688 36.8152 156.838 36.5592 157.008 36.2606C157.307 35.5779 157.414 35.2579 157.328 35.3006ZM157.776 34.5966C157.691 34.8099 157.648 34.9379 157.648 34.9806C157.691 34.9806 157.776 34.8952 157.904 34.7246C157.947 34.5966 158.032 34.4046 158.16 34.1486C158.331 33.8499 158.523 33.5512 158.736 33.2526C158.907 32.9539 159.035 32.7192 159.12 32.5486C159.248 32.3352 159.27 32.2286 159.184 32.2286C159.056 32.2286 158.992 32.2712 158.992 32.3566C158.992 32.3992 158.928 32.5272 158.8 32.7406C158.715 32.9112 158.587 33.1032 158.416 33.3166C158.246 33.5299 158.096 33.7646 157.968 34.0206C157.84 34.2766 157.776 34.4686 157.776 34.5966ZM159.312 31.7806C159.355 32.0366 159.44 31.9939 159.568 31.6526C159.654 31.3966 159.632 31.3326 159.504 31.4606C159.376 31.5886 159.312 31.6952 159.312 31.7806ZM160.464 29.4766C160.507 29.5619 160.528 29.6046 160.528 29.6046C160.614 29.5192 160.72 29.3486 160.848 29.0926C161.104 28.7086 161.083 28.6659 160.784 28.9646C160.571 29.1779 160.464 29.3486 160.464 29.4766ZM165.968 23.7806C165.798 23.9939 165.712 24.1219 165.712 24.1646C165.712 24.1646 165.819 24.0792 166.032 23.9086C166.288 23.7379 166.416 23.5886 166.416 23.4606C166.416 23.2046 166.267 23.3112 165.968 23.7806ZM150.608 47.2046C150.352 47.8446 150.054 48.6126 149.712 49.5086C149.371 50.3619 149.051 51.1939 148.752 52.0046C148.454 52.7726 148.198 53.4552 147.984 54.0526C147.771 54.6499 147.664 54.9912 147.664 55.0766C147.664 55.1192 147.707 55.0766 147.792 54.9486C147.92 54.7779 148.048 54.5646 148.176 54.3086C148.304 54.0526 148.432 53.7752 148.56 53.4766C148.731 53.1779 148.838 52.9432 148.88 52.7726C148.923 52.5592 149.008 52.2606 149.136 51.8766C149.307 51.4499 149.456 51.0659 149.584 50.7246C149.755 50.3406 149.926 49.9139 150.096 49.4446C150.31 48.9326 150.502 48.5059 150.672 48.1646C150.8 47.8232 150.95 47.4392 151.12 47.0126C151.291 46.5859 151.419 46.2659 151.504 46.0526C151.632 45.8392 151.782 45.5619 151.952 45.2206C152.123 44.8366 152.251 44.4952 152.336 44.1966C152.464 43.9406 152.678 43.4926 152.976 42.8526C153.318 42.1699 153.659 41.4659 154 40.7406C154.342 40.1006 154.64 39.4819 154.896 38.8846C155.195 38.2872 155.387 37.8819 155.472 37.6686C155.558 37.4979 155.728 37.1779 155.984 36.7086C156.24 36.1966 156.518 35.6846 156.816 35.1726C157.158 34.6606 157.435 34.2126 157.648 33.8286C157.862 33.4019 157.968 33.1672 157.968 33.1246C157.968 32.9966 158.118 32.7406 158.416 32.3566C158.8 31.9726 158.992 31.6952 158.992 31.5246C158.95 31.4392 159.035 31.2472 159.248 30.9486C159.504 30.6499 159.675 30.5006 159.76 30.5006C159.888 30.5006 160.038 30.3726 160.208 30.1166C160.294 29.9459 160.336 29.8606 160.336 29.8606C160.336 29.8606 160.251 29.9246 160.08 30.0526C159.91 30.2232 159.824 30.2232 159.824 30.0526C159.824 29.7539 159.888 29.5832 160.016 29.5406C160.102 29.4552 160.208 29.3059 160.336 29.0926C160.464 28.8792 160.614 28.6446 160.784 28.3886C160.912 28.0899 161.19 27.6419 161.616 27.0446C162.086 26.4046 162.555 25.7646 163.024 25.1246C163.494 24.4846 163.899 23.9512 164.24 23.5246C164.582 23.0552 164.752 22.7779 164.752 22.6926C164.752 22.5646 164.902 22.3086 165.2 21.9246C165.286 21.8392 165.328 21.7539 165.328 21.6686C165.371 21.5832 165.414 21.4979 165.456 21.4126C165.456 21.3272 165.478 21.2632 165.52 21.2206C165.478 21.2206 165.264 21.4766 164.88 21.9886C164.539 22.4579 164.112 23.0552 163.6 23.7806C163.088 24.5059 162.555 25.2952 162 26.1486C161.446 26.9592 160.955 27.6846 160.528 28.3246C159.718 29.5619 158.864 30.9699 157.968 32.5486C157.072 34.0846 156.176 35.6846 155.28 37.3486C154.427 39.0126 153.595 40.6979 152.784 42.4046C151.974 44.0686 151.248 45.6686 150.608 47.2046ZM145.68 65.7646C145.766 65.4659 145.83 65.1886 145.872 64.9326C145.915 64.6766 145.936 64.5059 145.936 64.4206C145.851 64.2072 145.744 64.4419 145.616 65.1246C145.531 65.4659 145.467 65.7646 145.424 66.0206C145.382 66.2766 145.36 66.4472 145.36 66.5326C145.36 66.6606 145.467 66.4046 145.68 65.7646ZM146.64 61.7326C146.811 61.1352 146.918 60.6872 146.96 60.3886C147.003 60.0472 146.982 59.9406 146.896 60.0686C146.768 60.3246 146.704 60.5379 146.704 60.7086C146.704 60.7939 146.662 60.9859 146.576 61.2846C146.491 61.5832 146.406 61.9032 146.32 62.2446C146.107 62.8419 145.979 63.3112 145.936 63.6526C145.894 63.9939 145.915 64.1006 146 63.9726C146.043 63.9299 146.128 63.6952 146.256 63.2686C146.342 62.8419 146.47 62.3299 146.64 61.7326Z" fill="#3F2419"/>
<path d="M195.524 56.2926C194.714 55.9939 193.178 56.0792 190.916 56.5486C188.698 56.9752 186.18 57.7006 183.364 58.7246L181.252 59.4926L180.164 61.9886C179.652 63.1406 179.226 64.1219 178.884 64.9326C178.543 65.7432 178.202 66.5112 177.86 67.2366C177.519 67.9619 177.178 68.7299 176.836 69.5406C176.452 70.3086 175.983 71.2686 175.428 72.4206C174.831 73.6579 174.234 74.9166 173.636 76.1966C172.996 77.4766 172.506 78.3939 172.164 78.9486C171.866 79.5032 171.567 80.0579 171.268 80.6126C170.97 81.1672 170.756 81.5512 170.628 81.7646C170.244 82.4899 169.818 83.2366 169.348 84.0046C168.879 84.7726 168.431 85.4979 168.004 86.1806C167.535 86.8632 167.108 87.4819 166.724 88.0366C166.34 88.5912 166.02 88.9966 165.764 89.2526C165.636 89.3379 165.444 89.5299 165.188 89.8286C164.932 90.1272 164.698 90.4472 164.484 90.7886C162.436 93.3486 160.324 95.6952 158.148 97.8286C155.972 99.9619 153.796 101.797 151.62 103.333C150.639 104.058 149.508 104.762 148.228 105.445C146.948 106.127 145.924 106.597 145.156 106.853C144.9 106.938 144.559 107.023 144.132 107.109C143.663 107.194 143.215 107.237 142.788 107.237C142.319 107.279 141.871 107.301 141.444 107.301C141.018 107.301 140.698 107.279 140.484 107.237C140.228 107.194 139.93 107.045 139.588 106.789C139.204 106.575 138.842 106.298 138.5 105.957C138.116 105.658 137.775 105.338 137.476 104.997C137.135 104.698 136.9 104.421 136.772 104.165C136.516 103.653 136.282 102.885 136.068 101.861C135.812 100.879 135.642 99.9192 135.556 98.9806C135.428 97.8286 135.364 97.0819 135.364 96.7406C135.364 96.4419 135.45 96.2926 135.62 96.2926C135.791 96.2926 135.876 96.1646 135.876 95.9086C135.876 95.6099 135.812 95.5459 135.684 95.7166C135.514 95.8872 135.364 95.9726 135.236 95.9726C135.066 95.9726 134.98 95.8659 134.98 95.6526C134.98 95.4819 135.066 95.3539 135.236 95.2686C135.45 95.1832 135.556 95.0552 135.556 94.8846C135.556 94.7566 135.642 94.7139 135.812 94.7566C135.898 94.7992 135.962 94.7566 136.004 94.6286C136.047 94.5006 136.047 94.2019 136.004 93.7326C135.962 93.2632 135.962 92.8792 136.004 92.5806C136.047 92.2819 136.175 91.8979 136.388 91.4286C136.516 91.0872 136.687 90.7459 136.9 90.4046C137.071 90.1059 137.22 89.8712 137.348 89.7006C137.69 89.3592 137.839 89.0819 137.796 88.8686C137.711 88.6552 137.796 88.3566 138.052 87.9726C138.308 87.5886 138.5 87.4392 138.628 87.5246C138.756 87.6099 138.778 87.5672 138.692 87.3966C138.65 87.3539 138.692 87.2259 138.82 87.0126C138.906 86.7992 139.034 86.5646 139.204 86.3086C139.332 86.0952 139.46 85.8819 139.588 85.6686C139.716 85.4979 139.823 85.4126 139.908 85.4126C140.164 85.4126 140.036 85.6686 139.524 86.1806C139.183 86.5219 139.012 86.7779 139.012 86.9486C139.012 87.0339 139.119 86.9272 139.332 86.6286C139.46 86.5006 139.588 86.3726 139.716 86.2446C139.802 86.1592 139.887 86.1166 139.972 86.1166C140.015 86.1166 140.164 85.9672 140.42 85.6686C140.676 85.4126 140.975 85.0712 141.316 84.6446C141.743 84.0899 142.276 83.4499 142.916 82.7246C143.556 81.9992 144.282 81.2312 145.092 80.4206C145.86 79.6099 146.692 78.7992 147.588 77.9886C148.442 77.1352 149.295 76.3246 150.148 75.5566C151.642 74.1912 152.986 73.0392 154.18 72.1006C155.375 71.1619 156.036 70.6926 156.164 70.6926C156.207 70.6926 156.378 70.6072 156.676 70.4366C156.932 70.2232 157.231 70.0099 157.572 69.7966C158.468 69.1566 159.556 68.4312 160.836 67.6206C162.116 66.7672 163.247 66.0419 164.228 65.4446C164.698 65.1459 165.146 64.8686 165.572 64.6126C165.956 64.3139 166.234 64.1219 166.404 64.0366C166.532 63.9086 166.703 63.8019 166.916 63.7166C167.087 63.5886 167.236 63.4819 167.364 63.3966C167.535 63.3112 167.77 63.2046 168.068 63.0766C168.367 62.9486 168.687 62.8206 169.028 62.6926C169.327 62.5219 169.626 62.3726 169.924 62.2446C170.18 62.1166 170.372 62.0099 170.5 61.9246C170.586 61.8392 170.756 61.7326 171.012 61.6046C171.268 61.4339 171.503 61.2632 171.716 61.0926C171.972 60.9219 172.442 60.6659 173.124 60.3246C173.807 59.9406 174.511 59.5779 175.236 59.2366C175.962 58.8952 176.602 58.5752 177.156 58.2766C177.668 57.9352 177.946 57.7219 177.988 57.6366C177.988 57.5512 178.074 57.2952 178.244 56.8686C178.372 56.4419 178.543 55.9726 178.756 55.4606C178.97 54.9059 179.247 54.1806 179.588 53.2846C179.93 52.3459 180.25 51.4926 180.548 50.7246C180.804 49.9566 181.039 49.2739 181.252 48.6766C181.466 48.0792 181.594 47.7592 181.636 47.7166C181.722 47.6312 181.807 47.4606 181.892 47.2046C181.978 46.9486 182.084 46.6499 182.212 46.3086C182.426 45.7112 182.532 45.3486 182.532 45.2206C182.532 45.0926 182.447 44.9219 182.276 44.7086C182.106 44.4526 182.042 44.2392 182.084 44.0686C182.17 43.8979 182.148 43.8126 182.02 43.8126C181.679 43.8126 181.807 43.1299 182.404 41.7646C182.532 41.4232 182.66 41.0819 182.788 40.7406C182.916 40.3992 182.98 40.1859 182.98 40.1006C183.066 39.5886 183.62 39.5032 184.644 39.8446C184.986 39.9726 185.199 40.1006 185.284 40.2286C185.412 40.3139 185.519 40.5059 185.604 40.8046C185.732 41.2739 185.924 41.5726 186.18 41.7006C186.394 41.7859 186.5 41.9139 186.5 42.0846C186.543 42.2126 186.564 42.6392 186.564 43.3646C186.564 43.8339 186.543 44.2606 186.5 44.6446C186.5 44.9859 186.436 45.3912 186.308 45.8606C186.223 46.2872 186.074 46.7992 185.86 47.3966C185.647 47.9512 185.37 48.6979 185.028 49.6366C184.687 50.4899 184.346 51.3646 184.004 52.2606C183.706 53.1139 183.471 53.7326 183.3 54.1166L182.788 55.5886L183.62 55.3326C185.54 54.7779 187.119 54.3939 188.356 54.1806C189.636 53.9246 190.81 53.7966 191.876 53.7966C192.858 53.7539 193.668 53.8392 194.308 54.0526C194.991 54.2659 195.631 54.6072 196.228 55.0766C196.655 55.4179 197.018 55.8659 197.316 56.4206C197.615 56.9752 197.658 57.3166 197.444 57.4446C197.103 57.6579 196.932 57.6579 196.932 57.4446C196.932 57.2312 196.826 57.1886 196.612 57.3166C196.399 57.4019 196.228 57.2952 196.1 56.9966C196.015 56.6552 195.823 56.4206 195.524 56.2926ZM149.508 102.565C149.85 102.437 150.02 102.309 150.02 102.181C150.02 102.181 149.85 102.245 149.508 102.373C149.124 102.586 148.932 102.714 148.932 102.757C148.932 102.799 149.124 102.735 149.508 102.565ZM152.708 100.325C153.178 99.9832 153.754 99.5139 154.436 98.9166C155.076 98.3192 155.695 97.7219 156.292 97.1246C156.89 96.5699 157.402 96.0792 157.828 95.6526C158.212 95.2259 158.383 94.9912 158.34 94.9486C158.212 94.7779 157.572 95.3326 156.42 96.6126L155.268 97.7646C155.226 97.7646 155.119 97.8499 154.948 98.0206C154.735 98.1912 154.5 98.3832 154.244 98.5966C153.988 98.8526 153.626 99.1726 153.156 99.5566C152.687 99.9406 152.239 100.303 151.812 100.645C151.343 100.986 150.98 101.285 150.724 101.541C150.426 101.797 150.276 101.946 150.276 101.989C150.276 102.117 150.362 102.095 150.532 101.925C150.618 101.839 150.874 101.626 151.3 101.285C151.727 100.986 152.196 100.666 152.708 100.325ZM159.684 93.4766C159.94 93.1352 160.068 92.9646 160.068 92.9646C160.026 93.0072 159.791 93.2419 159.364 93.6686C159.108 93.9246 158.895 94.1379 158.724 94.3086C158.511 94.4792 158.404 94.5859 158.404 94.6286C158.404 94.7139 158.554 94.6286 158.852 94.3726C159.151 94.1166 159.428 93.8179 159.684 93.4766ZM161.028 91.9406C161.37 91.4712 161.519 91.2366 161.476 91.2366C161.391 91.2366 161.156 91.4712 160.772 91.9406C160.388 92.4099 160.26 92.6446 160.388 92.6446C160.431 92.6446 160.644 92.4099 161.028 91.9406ZM161.348 89.5726C161.604 89.1886 161.711 88.9966 161.668 88.9966C161.583 89.0392 161.37 89.2739 161.028 89.7006C160.9 89.9139 160.815 90.0632 160.772 90.1486C160.687 90.2766 160.687 90.2979 160.772 90.2126C160.815 90.1699 160.9 90.0846 161.028 89.9566C161.114 89.8712 161.22 89.7432 161.348 89.5726ZM162.82 87.7166C162.906 87.5032 162.948 87.3966 162.948 87.3966C162.948 87.3966 162.842 87.4819 162.628 87.6526C162.372 87.9086 162.244 88.0792 162.244 88.1646C162.244 88.2926 162.308 88.2926 162.436 88.1646C162.564 88.0792 162.692 87.9299 162.82 87.7166ZM164.1 88.2286C164.271 87.8872 164.292 87.7592 164.164 87.8446C164.036 87.9299 163.823 88.1859 163.524 88.6126C163.226 89.0392 163.076 89.2739 163.076 89.3166C163.076 89.3592 163.183 89.2739 163.396 89.0606C163.695 88.7619 163.93 88.4846 164.1 88.2286ZM164.228 85.6686C164.314 85.5832 164.335 85.5406 164.292 85.5406C164.207 85.5832 164.1 85.6899 163.972 85.8606C163.844 86.0312 163.716 86.2019 163.588 86.3726C163.46 86.5432 163.354 86.6712 163.268 86.7566C163.183 87.0126 163.29 86.9486 163.588 86.5646C163.716 86.4366 163.844 86.2659 163.972 86.0526C164.1 85.8819 164.186 85.7539 164.228 85.6686ZM166.212 84.5166C166.383 84.2606 166.426 84.1326 166.34 84.1326C166.255 84.1326 166.17 84.2606 166.084 84.5166C165.956 84.7299 165.914 84.8366 165.956 84.8366C166.042 84.8366 166.127 84.7299 166.212 84.5166ZM167.94 82.2126C168.026 82.0419 168.026 81.9566 167.94 81.9566L167.684 82.2126C167.556 82.3832 167.535 82.4686 167.62 82.4686C167.791 82.4686 167.898 82.3832 167.94 82.2126ZM171.972 74.8526C172.143 74.4686 172.207 74.2552 172.164 74.2126C172.122 74.1699 171.994 74.3406 171.78 74.7246C171.567 75.0659 171.46 75.2792 171.46 75.3646C171.46 75.4499 171.524 75.4499 171.652 75.3646C171.738 75.2366 171.844 75.0659 171.972 74.8526ZM173.508 67.4286C173.722 67.0019 173.978 66.4686 174.276 65.8286C174.532 65.1886 174.788 64.5699 175.044 63.9726C175.3 63.3326 175.535 62.7992 175.748 62.3726C175.919 61.9459 176.004 61.7112 176.004 61.6686C176.004 61.6686 175.706 61.8179 175.108 62.1166C174.511 62.3726 173.828 62.6926 173.06 63.0766C172.292 63.4606 171.567 63.8446 170.884 64.2286C170.159 64.5699 169.711 64.8046 169.54 64.9326C169.327 65.0606 169.028 65.2526 168.644 65.5086C168.218 65.7219 167.812 65.9352 167.428 66.1486C167.087 66.3192 166.596 66.6179 165.956 67.0446C165.316 67.4286 164.612 67.8766 163.844 68.3886C163.076 68.9006 162.287 69.4339 161.476 69.9886C160.623 70.5432 159.834 71.0766 159.108 71.5886C158.639 71.9299 158.042 72.3992 157.316 72.9966C156.548 73.5512 155.78 74.1699 155.012 74.8526C154.202 75.5352 153.412 76.2392 152.644 76.9646C151.834 77.6472 151.13 78.2872 150.532 78.8846C143.578 85.4979 139.503 91.2792 138.308 96.2286C138.095 96.9539 137.946 97.5299 137.86 97.9566C137.732 98.4259 137.647 98.8312 137.604 99.1726C137.562 99.5566 137.54 99.8766 137.54 100.133C137.54 100.431 137.562 100.773 137.604 101.157C137.647 101.541 137.69 101.882 137.732 102.181C137.775 102.479 137.839 102.671 137.924 102.757C138.01 102.842 138.18 102.949 138.436 103.077C138.65 103.205 138.906 103.311 139.204 103.397C139.46 103.482 139.716 103.546 139.972 103.589C140.228 103.674 140.42 103.695 140.548 103.653C140.847 103.567 140.996 103.61 140.996 103.781C140.996 103.866 140.89 103.909 140.676 103.909C140.378 103.909 140.356 103.973 140.612 104.101C140.74 104.229 140.762 104.293 140.676 104.293C140.634 104.335 140.783 104.399 141.124 104.485C141.594 104.57 142.234 104.506 143.044 104.293C143.812 104.079 144.666 103.738 145.604 103.269C146.714 102.714 147.887 102.031 149.124 101.221C150.319 100.41 151.45 99.5352 152.516 98.5966C152.943 98.2126 153.54 97.6579 154.308 96.9326C155.034 96.2499 155.78 95.5459 156.548 94.8206C157.274 94.0952 157.935 93.4126 158.532 92.7726C159.087 92.1752 159.428 91.8126 159.556 91.6846C159.642 91.5139 159.578 91.5352 159.364 91.7486C159.151 91.9619 158.831 92.2819 158.404 92.7086C157.978 93.1779 157.594 93.5832 157.252 93.9246C156.868 94.2659 156.634 94.4579 156.548 94.5006C156.463 94.5859 156.527 94.4792 156.74 94.1806C156.954 93.8819 157.274 93.4979 157.7 93.0286C158.298 92.3886 158.959 91.6206 159.684 90.7246C160.41 89.8286 161.092 88.9539 161.732 88.1006C162.372 87.2899 162.927 86.5432 163.396 85.8606C163.866 85.2206 164.143 84.7726 164.228 84.5166C164.314 84.3886 164.527 84.0472 164.868 83.4926C165.167 82.9379 165.53 82.2979 165.956 81.5726C166.852 80.0792 167.684 78.6712 168.452 77.3486C169.22 76.0259 169.775 74.9806 170.116 74.2126C170.287 73.9139 170.522 73.5086 170.82 72.9966C171.076 72.4419 171.332 71.9299 171.588 71.4606C171.844 70.9912 172.079 70.5646 172.292 70.1806C172.506 69.7966 172.634 69.5406 172.676 69.4126C172.719 69.3272 172.826 69.0926 172.996 68.7086C173.124 68.3246 173.295 67.8979 173.508 67.4286ZM177.092 59.9406C177.135 59.8126 177.135 59.7272 177.092 59.6846C177.007 59.5992 176.815 59.6206 176.516 59.7486C176.175 59.8766 175.684 60.1112 175.044 60.4526C174.362 60.7939 173.423 61.2846 172.228 61.9246C171.802 62.1379 171.29 62.4366 170.692 62.8206C170.052 63.1619 169.37 63.5459 168.644 63.9726C167.876 64.3992 167.108 64.8472 166.34 65.3166C165.53 65.7859 164.74 66.2552 163.972 66.7246C162.863 67.4499 161.562 68.3459 160.068 69.4126C158.575 70.4366 157.21 71.4392 155.972 72.4206C155.332 72.9326 154.564 73.5726 153.668 74.3406C152.772 75.1086 151.94 75.8766 151.172 76.6446C150.362 77.3699 149.679 78.0099 149.124 78.5646C148.57 79.0766 148.314 79.3539 148.356 79.3966C148.399 79.4819 148.292 79.6952 148.036 80.0366C147.78 80.3352 147.439 80.6766 147.012 81.0606C146.031 82.0846 145.562 82.6392 145.604 82.7246C145.647 82.7672 146.18 82.2979 147.204 81.3166C147.674 80.8472 148.207 80.3352 148.804 79.7806C149.402 79.2259 149.892 78.7566 150.276 78.3726C150.618 78.0312 151.066 77.6259 151.62 77.1566C152.175 76.6446 152.644 76.2179 153.028 75.8766C153.455 75.5352 153.924 75.1299 154.436 74.6606C154.906 74.1912 155.29 73.8286 155.588 73.5726C156.356 72.8046 157.38 71.9512 158.66 71.0126C159.94 70.0312 161.37 69.0286 162.948 68.0046C164.527 66.9806 166.212 65.9566 168.004 64.9326C169.796 63.9086 171.588 62.9486 173.38 62.0526C175.812 60.8152 177.05 60.1112 177.092 59.9406ZM182.084 58.2126C182.34 58.1272 182.383 58.0632 182.212 58.0206C182.042 57.9352 181.914 57.9779 181.828 58.1486C181.743 58.2339 181.828 58.2552 182.084 58.2126ZM187.78 56.5486C187.951 56.4632 188.292 56.3779 188.804 56.2926C189.359 56.1646 189.935 56.0579 190.532 55.9726C191.13 55.8446 191.706 55.7592 192.26 55.7166C192.858 55.6312 193.284 55.5886 193.54 55.5886C193.754 55.5886 193.946 55.5886 194.116 55.5886C194.33 55.5459 194.436 55.5032 194.436 55.4606C194.479 55.4179 194.458 55.3966 194.372 55.3966C194.287 55.3539 194.202 55.3539 194.116 55.3966C193.775 55.4392 193.647 55.3966 193.732 55.2686C193.818 55.1406 193.54 55.0766 192.9 55.0766C192.218 55.0766 191.834 55.1406 191.748 55.2686C191.706 55.4392 191.642 55.4392 191.556 55.2686C191.471 55.1406 191.343 55.0766 191.172 55.0766C191.002 55.0766 190.916 55.1406 190.916 55.2686C190.916 55.3966 190.81 55.4606 190.596 55.4606C190.468 55.4606 190.234 55.5032 189.892 55.5886C189.551 55.6739 189.167 55.7592 188.74 55.8446C188.314 55.9299 187.908 56.0366 187.524 56.1646C187.14 56.2499 186.863 56.3352 186.692 56.4206L186.116 56.6766H186.692C186.991 56.6766 187.354 56.6339 187.78 56.5486ZM188.356 33.8286C188.271 33.8286 188.164 33.7432 188.036 33.5726C187.908 33.3592 187.78 33.1459 187.652 32.9326C187.524 32.6766 187.396 32.4206 187.268 32.1646C187.183 31.9086 187.14 31.7166 187.14 31.5886C187.14 30.9912 187.375 30.6926 187.844 30.6926C187.972 30.6926 188.164 30.6072 188.42 30.4366C188.634 30.2232 188.89 30.2019 189.188 30.3726C189.871 30.5859 190.212 30.8846 190.212 31.2686C190.212 31.3966 190.319 31.5032 190.532 31.5886C190.746 31.7166 190.81 31.9086 190.724 32.1646C190.639 32.4206 190.746 32.6126 191.044 32.7406C191.343 32.8259 191.492 32.9966 191.492 33.2526C191.578 33.9352 191.492 34.4046 191.236 34.6606C191.151 34.7886 190.916 34.8739 190.532 34.9166C190.191 34.9166 189.871 34.8526 189.572 34.7246C189.487 34.6819 189.359 34.6179 189.188 34.5326C189.06 34.4046 188.954 34.2979 188.868 34.2126C188.74 33.9566 188.57 33.8286 188.356 33.8286Z" fill="#3F2419"/>
<path d="M227.481 46.8206C227.311 47.0339 227.097 47.2899 226.841 47.5886C226.628 47.8872 226.415 48.1432 226.201 48.3566C225.988 48.6552 225.433 49.2952 224.537 50.2766C223.641 51.2152 222.66 52.2179 221.593 53.2846C220.527 54.3512 219.524 55.3539 218.585 56.2926C217.647 57.2312 217.028 57.8286 216.729 58.0846C215.065 59.4499 213.337 60.6872 211.545 61.7966C209.753 62.9059 207.897 63.9512 205.977 64.9326C205.636 65.1459 205.124 65.3592 204.441 65.5726C203.801 65.7859 203.076 65.9779 202.265 66.1486C201.497 66.2766 200.708 66.4046 199.897 66.5326C199.129 66.6179 198.447 66.6606 197.849 66.6606C197.167 66.6606 196.697 66.5966 196.441 66.4686C196.185 66.2552 195.972 66.1912 195.801 66.2766C195.588 66.2766 195.247 66.1272 194.777 65.8286C194.351 65.5299 193.881 65.1672 193.369 64.7406C192.857 64.2712 192.367 63.8019 191.897 63.3326C191.428 62.8206 191.087 62.3726 190.873 61.9886C190.575 61.4766 190.233 61.1779 189.849 61.0926C189.295 60.9646 189.273 60.7726 189.785 60.5166C190.127 60.3886 190.255 60.1966 190.169 59.9406C189.572 57.7646 189.999 55.0552 191.449 51.8126C192.345 49.8926 193.369 48.0792 194.521 46.3726C195.716 44.6659 197.017 43.0232 198.425 41.4446C199.151 40.5912 199.791 39.8872 200.345 39.3326C200.943 38.7779 201.391 38.4792 201.689 38.4366C201.86 38.3512 202.095 38.3299 202.393 38.3726C202.692 38.3726 202.991 38.4152 203.289 38.5006C203.588 38.5859 203.908 38.6712 204.249 38.7566C204.633 38.7992 204.932 38.8419 205.145 38.8846C205.913 39.0979 206.596 39.3752 207.193 39.7166C207.791 40.0579 208.452 40.5912 209.177 41.3166C210.116 42.2126 210.735 43.0019 211.033 43.6846C211.375 44.3246 211.503 45.0286 211.417 45.7966C211.289 47.5032 210.607 49.1459 209.369 50.7246C208.175 52.3032 206.724 53.7752 205.017 55.1406C203.311 56.4632 201.519 57.6579 199.641 58.7246C197.807 59.7486 196.164 60.5592 194.713 61.1566C194.372 61.3272 194.073 61.4766 193.817 61.6046C193.604 61.7326 193.497 61.8179 193.497 61.8606C193.497 62.2019 193.796 62.4792 194.393 62.6926C195.033 62.9059 195.737 63.0126 196.505 63.0126C197.572 63.0126 198.681 62.8846 199.833 62.6286C200.985 62.3726 202.116 62.0312 203.225 61.6046C204.335 61.1352 205.423 60.6232 206.489 60.0686C207.556 59.5139 208.537 58.9592 209.433 58.4046C209.86 58.1486 210.244 57.9352 210.585 57.7646C210.927 57.5512 211.14 57.4446 211.225 57.4446C211.439 57.4446 211.716 57.3166 212.057 57.0606C212.399 56.7619 212.569 56.5486 212.569 56.4206C212.569 56.3352 212.74 56.1432 213.081 55.8446C213.423 55.5459 213.828 55.2259 214.297 54.8846C214.639 54.6286 214.681 54.6499 214.425 54.9486C214.212 55.1619 214.169 55.2686 214.297 55.2686C214.34 55.2686 214.959 54.7992 216.153 53.8606C216.623 53.4339 217.113 53.0072 217.625 52.5806C218.18 52.1112 218.628 51.7486 218.969 51.4926C219.609 50.9806 220.356 50.3406 221.209 49.5726C222.063 48.7619 222.788 48.0579 223.385 47.4606C223.599 47.2046 223.919 46.8419 224.345 46.3726C224.815 45.9032 225.263 45.4339 225.689 44.9646C226.159 44.4952 226.628 44.0046 227.097 43.4926C227.609 42.9806 227.993 42.5752 228.249 42.2766C230.169 40.1432 231.215 39.0766 231.385 39.0766C231.428 39.1192 231.321 39.3112 231.065 39.6526C230.852 39.9512 230.553 40.3352 230.169 40.8046C229.615 41.5299 229.316 41.9139 229.273 41.9566C229.231 41.9992 229.444 41.7859 229.913 41.3166C230.553 40.6766 230.937 40.3566 231.065 40.3566C231.193 40.3566 231.129 40.5486 230.873 40.9326C230.66 41.1459 230.553 41.4019 230.553 41.7006C230.553 41.9139 230.639 41.9352 230.809 41.7646C230.895 41.6792 230.959 41.6366 231.001 41.6366C231.001 41.5939 231.023 41.5726 231.065 41.5726C231.193 41.5726 230.873 42.0206 230.105 42.9166C229.849 43.2152 229.572 43.5779 229.273 44.0046C229.017 44.3886 228.804 44.7299 228.633 45.0286C228.505 45.3272 228.335 45.6472 228.121 45.9886C227.908 46.3299 227.695 46.6072 227.481 46.8206ZM195.417 53.7966C195.204 54.2659 194.969 54.7566 194.713 55.2686C194.5 55.7379 194.287 56.2072 194.073 56.6766C193.903 57.1032 193.753 57.4872 193.625 57.8286C193.54 58.1272 193.497 58.3406 193.497 58.4686C193.583 58.4686 193.924 58.2552 194.521 57.8286C195.161 57.4019 195.844 56.9326 196.569 56.4206C197.337 55.9086 198.041 55.4179 198.681 54.9486C199.364 54.4366 199.769 54.1166 199.897 53.9886C199.897 53.9459 200.047 53.8179 200.345 53.6046C200.644 53.3486 200.985 53.0712 201.369 52.7726C201.753 52.4312 202.201 52.0259 202.713 51.5566C203.225 51.0446 203.737 50.5326 204.249 50.0206C204.761 49.4659 205.231 48.9539 205.657 48.4846C206.084 48.0152 206.404 47.6312 206.617 47.3326C207.001 46.7779 207.343 46.0312 207.641 45.0926C207.94 44.1539 208.047 43.4499 207.961 42.9806C207.876 42.4259 207.62 42.0419 207.193 41.8286C206.767 41.6152 206.297 41.5086 205.785 41.5086C205.273 41.5086 204.697 41.7646 204.057 42.2766C203.417 42.7459 202.735 43.3646 202.009 44.1326C201.327 44.9006 200.644 45.7539 199.961 46.6926C199.279 47.6312 198.617 48.5699 197.977 49.5086C197.38 50.4046 196.847 51.2366 196.377 52.0046C195.951 52.7726 195.631 53.3699 195.417 53.7966ZM221.529 52.2606C221.913 51.8339 222.063 51.6206 221.977 51.6206C221.892 51.6206 221.38 52.1539 220.441 53.2206C219.417 54.3726 219.268 54.5859 219.993 53.8606C220.292 53.6046 220.569 53.3272 220.825 53.0286C221.124 52.7299 221.359 52.4739 221.529 52.2606Z" fill="#3F2419"/>
<path d="M262.072 48.0366C262.286 48.7192 262.286 49.3806 262.072 50.0206C261.902 50.6179 261.39 51.5139 260.536 52.7086C260.195 53.1779 259.896 53.6046 259.64 53.9886C259.427 54.3726 259.299 54.6499 259.256 54.8206C259.214 54.9486 259.128 55.1192 259 55.3326C258.915 55.5032 258.83 55.6526 258.744 55.7806C258.488 56.0366 258.36 56.2499 258.36 56.4206C258.36 56.5486 258.168 56.8472 257.784 57.3166C257.4 57.7432 256.931 58.2552 256.376 58.8526C255.864 59.4072 255.31 59.9832 254.712 60.5806C254.158 61.1352 253.688 61.5832 253.304 61.9246C252.963 62.2659 252.622 62.5432 252.28 62.7566C251.939 62.9272 251.704 63.0126 251.576 63.0126C251.363 63.0126 251.128 63.0979 250.872 63.2686C250.659 63.4392 250.232 63.3752 249.592 63.0766C248.952 62.7779 248.312 62.3299 247.672 61.7326C247.416 61.5192 247.118 61.2206 246.776 60.8366C246.478 60.4099 246.158 59.9619 245.816 59.4926C245.518 59.0232 245.219 58.5326 244.92 58.0206C244.664 57.4659 244.451 56.9752 244.28 56.5486C244.067 55.9512 243.875 55.4179 243.704 54.9486C243.534 54.4366 243.384 53.8819 243.256 53.2846C243.128 52.6872 243.022 51.9832 242.936 51.1726C242.851 50.3619 242.744 49.3806 242.616 48.2286C242.488 46.9912 242.36 45.9246 242.232 45.0286C242.147 44.1326 242.083 43.6632 242.04 43.6206C241.955 43.6632 241.87 43.7059 241.784 43.7486C241.614 43.8339 241.443 43.9619 241.272 44.1326C240.462 44.7299 239.502 45.5832 238.392 46.6926C237.326 47.7592 236.195 48.9752 235 50.3406C233.848 51.7059 232.654 53.1566 231.416 54.6926C230.222 56.1859 229.091 57.6579 228.024 59.1086C226.958 60.5592 226.019 61.9459 225.208 63.2686C224.398 64.5486 223.8 65.6366 223.416 66.5326C222.563 68.6232 221.88 69.6259 221.368 69.5406C221.07 69.5406 220.707 69.3272 220.28 68.9006C220.067 68.6872 219.896 68.4739 219.768 68.2606C219.64 68.0046 219.555 67.8126 219.512 67.6846C219.427 67.3006 219.256 67.0659 219 66.9806C218.488 66.8952 218.232 66.3192 218.232 65.2526C218.232 64.1859 218.51 62.7992 219.064 61.0926C219.278 60.4526 219.747 59.1512 220.472 57.1886C221.155 55.2259 222.072 52.8792 223.224 50.1486C224.419 47.4179 225.806 44.4739 227.384 41.3166C229.006 38.1166 230.819 35.0232 232.824 32.0366C232.91 32.2072 233.08 32.3779 233.336 32.5486C233.635 32.6766 233.784 32.9112 233.784 33.2526C233.784 33.5939 233.848 33.8286 233.976 33.9566C234.104 34.0846 234.126 34.1912 234.04 34.2766C233.998 34.4046 234.126 34.5752 234.424 34.7886C234.51 34.8739 234.616 35.0232 234.744 35.2366C234.872 35.4499 234.979 35.6632 235.064 35.8766C235.15 36.2179 235.171 36.4739 235.128 36.6446C235.086 36.7726 234.894 37.0499 234.552 37.4766C234.211 37.9459 233.614 38.9699 232.76 40.5486C231.95 42.0846 231.075 43.8126 230.136 45.7326C229.795 46.4579 229.39 47.3326 228.92 48.3566C228.451 49.3806 228.003 50.3619 227.576 51.3006C227.192 52.1966 226.872 52.9859 226.616 53.6686C226.36 54.3086 226.232 54.6499 226.232 54.6926C226.232 54.7352 226.531 54.4152 227.128 53.7326C227.726 53.0072 228.43 52.1539 229.24 51.1726C232.184 47.5459 233.784 45.7326 234.04 45.7326C234.083 45.7326 234.211 45.6259 234.424 45.4126C234.638 45.1992 234.894 44.9219 235.192 44.5806C235.534 44.2392 235.875 43.8766 236.216 43.4926C236.558 43.1086 236.878 42.7672 237.176 42.4686C237.39 42.1699 237.667 41.8712 238.008 41.5726C238.392 41.2739 238.755 40.9966 239.096 40.7406C239.438 40.4846 239.758 40.2926 240.056 40.1646C240.398 39.9939 240.632 39.9086 240.76 39.9086C240.974 39.9086 241.208 39.9726 241.464 40.1006C241.763 40.1859 242.04 40.2926 242.296 40.4206C242.552 40.5486 242.787 40.6979 243 40.8686C243.214 40.9966 243.32 41.1032 243.32 41.1886C243.32 41.2739 243.406 41.4446 243.576 41.7006C243.747 41.9139 243.939 42.1486 244.152 42.4046C244.494 42.7459 244.728 43.0659 244.856 43.3646C244.984 43.6632 245.091 44.1752 245.176 44.9006C245.262 45.3699 245.347 46.1166 245.432 47.1406C245.56 48.1646 245.667 49.1886 245.752 50.2126C245.923 52.2606 246.115 53.8819 246.328 55.0766C246.542 56.2286 246.798 57.1246 247.096 57.7646C247.31 58.1912 247.48 58.4472 247.608 58.5326C247.779 58.5752 248.163 58.6179 248.76 58.6606C249.23 58.6606 249.614 58.6179 249.912 58.5326C250.211 58.4472 250.595 58.2766 251.064 58.0206C251.79 57.5512 252.728 56.7832 253.88 55.7166C255.075 54.6499 256.376 53.3272 257.784 51.7486C258.424 51.0232 258.979 50.4259 259.448 49.9566C259.918 49.4446 260.195 49.2099 260.28 49.2526C260.408 49.2526 260.43 49.1886 260.344 49.0606C260.302 48.9752 260.323 48.8472 260.408 48.6766C260.536 48.4632 260.707 48.2499 260.92 48.0366L261.624 47.2046L261.304 47.9726L260.92 48.6766L261.432 48.0366L261.88 47.4606L262.072 48.0366Z" fill="#3F2419"/>
<path d="M270.136 44.4526C269.752 44.3672 269.41 44.3246 269.112 44.3246C268.856 44.2819 268.749 44.2819 268.792 44.3246C268.792 44.3672 268.856 44.5379 268.984 44.8366C269.112 45.1352 269.261 45.4979 269.432 45.9246C269.773 46.8632 270.008 47.7592 270.136 48.6126C270.264 49.4659 270.285 50.4472 270.2 51.5566C270.157 52.7512 269.837 53.9886 269.24 55.2686C268.685 56.5059 267.96 57.6792 267.064 58.7886C266.168 59.8552 265.144 60.8152 263.992 61.6686C262.84 62.4792 261.688 63.0339 260.536 63.3326C260.109 63.4179 259.704 63.5246 259.32 63.6526C258.936 63.7806 258.68 63.8659 258.552 63.9086C258.296 64.0366 257.976 64.1006 257.592 64.1006C257.165 64.1006 256.696 64.0152 256.184 63.8446C255.928 63.7592 255.65 63.6312 255.352 63.4606C255.053 63.2472 254.776 63.0126 254.52 62.7566C254.264 62.5006 254.072 62.2659 253.944 62.0526C253.773 61.7966 253.688 61.5832 253.688 61.4126C253.688 61.2846 253.496 60.9859 253.112 60.5166C252.813 60.1326 252.578 59.5779 252.408 58.8526C252.194 58.0846 252.066 57.2739 252.024 56.4206C251.981 55.5672 252.002 54.6926 252.088 53.7966C252.173 52.9006 252.344 52.1112 252.6 51.4286C253.282 49.5086 254.285 47.5886 255.608 45.6686C256.888 43.7059 258.338 41.9992 259.96 40.5486L261.176 39.4606L260.728 38.8206C260.386 38.4366 260.28 38.1806 260.408 38.0526C260.493 37.9246 260.728 37.9032 261.112 37.9886C261.538 38.0312 261.922 38.1592 262.264 38.3726C262.52 38.5432 262.712 38.6499 262.84 38.6926C263.01 38.6926 263.202 38.6499 263.416 38.5646C263.586 38.4792 263.885 38.4366 264.312 38.4366C264.781 38.4366 265.208 38.5432 265.592 38.7566C265.762 38.8419 265.954 38.9912 266.168 39.2046C266.381 39.3752 266.594 39.5886 266.808 39.8446C267.021 40.0579 267.192 40.2712 267.32 40.4846C267.448 40.6979 267.512 40.8472 267.512 40.9326C267.512 41.1459 267.896 41.3166 268.664 41.4446C269.474 41.5299 270.52 41.5726 271.8 41.5726C273.933 41.5726 276.045 41.4446 278.136 41.1886C280.269 40.9326 282.381 40.5912 284.472 40.1646H285.752C285.837 40.1646 285.965 40.1859 286.136 40.2286C286.306 40.2286 286.434 40.2499 286.52 40.2926L286.776 40.4206H286.84L286.968 40.5486C286.882 40.5486 286.797 40.5699 286.712 40.6126C286.669 40.6126 286.605 40.6126 286.52 40.6126C286.178 40.6979 285.901 40.7619 285.688 40.8046C285.474 40.8472 285.389 40.8899 285.432 40.9326C285.474 40.9752 286.029 40.8899 287.096 40.6766C287.138 40.7192 287.16 40.7619 287.16 40.8046C287.202 40.8046 287.224 40.8046 287.224 40.8046C287.224 40.9752 287.266 41.0606 287.352 41.0606C287.352 41.1459 287.352 41.2099 287.352 41.2526C287.394 41.2952 287.416 41.3379 287.416 41.3806C287.373 41.2952 287.352 41.3166 287.352 41.4446C287.394 41.5299 287.416 41.5939 287.416 41.6366V42.0846C287.416 42.1699 287.394 42.2339 287.352 42.2766C287.352 42.3192 287.352 42.3619 287.352 42.4046L287.288 42.4686C287.288 42.5112 287.266 42.5539 287.224 42.5966C287.224 42.5966 287.224 42.6179 287.224 42.6606C287.181 42.7032 287.16 42.7459 287.16 42.7886H287.096C287.096 42.8312 287.053 42.8952 286.968 42.9806H286.904V43.0446C284.557 43.5566 282.21 43.9406 279.864 44.1966C277.517 44.4526 275.362 44.5806 273.4 44.5806C272.802 44.5806 272.226 44.5806 271.672 44.5806C271.117 44.5806 270.605 44.5379 270.136 44.4526ZM264.696 55.9086C265.464 55.0552 266.082 54.1379 266.552 53.1566C267.064 52.1326 267.426 51.1086 267.64 50.0846C267.853 49.0606 267.896 48.0792 267.768 47.1406C267.682 46.2019 267.426 45.3486 267 44.5806C266.786 44.1966 266.616 43.9619 266.488 43.8766C266.36 43.7912 266.146 43.7486 265.848 43.7486C265.464 43.7486 265.208 43.6846 265.08 43.5566C265.037 43.4712 264.888 43.3859 264.632 43.3006C264.418 43.3006 264.248 43.2152 264.12 43.0446C264.034 42.8312 264.034 42.6179 264.12 42.4046C264.12 42.2339 264.077 42.1699 263.992 42.2126C263.949 42.2126 263.757 42.3619 263.416 42.6606C263.117 42.9592 262.776 43.2792 262.392 43.6206C262.05 43.9619 261.73 44.2819 261.432 44.5806C261.176 44.8792 261.048 45.0499 261.048 45.0926C261.005 45.1779 260.92 45.3059 260.792 45.4766C260.706 45.6046 260.557 45.7752 260.344 45.9886C260.13 46.2019 259.81 46.6286 259.384 47.2686C259 47.8659 258.573 48.5486 258.104 49.3166C257.677 50.0419 257.272 50.7886 256.888 51.5566C256.504 52.2819 256.205 52.8792 255.992 53.3486C255.522 54.5432 255.202 55.8019 255.032 57.1246C254.818 58.4472 254.818 59.4712 255.032 60.1966C255.117 60.4526 255.224 60.6019 255.352 60.6446C255.437 60.6872 255.757 60.7086 256.312 60.7086C257.08 60.7086 257.848 60.5592 258.616 60.2606C259.426 59.9619 260.194 59.5779 260.92 59.1086C261.688 58.6392 262.392 58.1272 263.032 57.5726C263.672 56.9752 264.226 56.4206 264.696 55.9086ZM283.832 41.2526C283.746 41.2952 283.746 41.3166 283.832 41.3166C283.96 41.3166 284.13 41.2952 284.344 41.2526C284.813 41.1672 285.09 41.0819 285.176 40.9966C285.218 40.9539 285.176 40.9539 285.048 40.9966C284.962 40.9966 284.834 41.0179 284.664 41.0606C284.493 41.0606 284.322 41.0819 284.152 41.1246C283.981 41.1672 283.874 41.2099 283.832 41.2526Z" fill="#3F2419"/>
</svg>
