<svg width="310" height="96" viewBox="0 0 310 96" fill="none" xmlns="http://www.w3.org/2000/svg">
<path d="M56.256 50.1486C56.5547 50.6179 56.6827 50.9806 56.64 51.2366C56.64 51.4926 56.4693 51.9192 56.128 52.5166C55.4027 53.6259 54.592 54.6499 53.696 55.5886C52.8 56.4846 51.6907 57.4019 50.368 58.3406C49.6853 58.8099 49.28 59.1299 49.152 59.3006C49.024 59.4712 49.28 59.3219 49.92 58.8526C50.5173 58.4686 50.7947 58.3192 50.752 58.4046C50.752 58.4472 50.4533 58.7032 49.856 59.1726C48.96 59.8552 47.872 60.5592 46.592 61.2846C45.3547 62.0099 44.0533 62.7139 42.688 63.3966C41.3227 64.0792 39.9573 64.6979 38.592 65.2526C37.2693 65.8072 36.032 66.2552 34.88 66.5966C34.24 66.8099 33.5787 67.0232 32.896 67.2366C32.2133 67.4072 31.7013 67.5352 31.36 67.6206C31.0187 67.7059 30.4427 67.8126 29.632 67.9406C28.864 68.0686 28.096 68.1752 27.328 68.2606C26.688 68.3032 26.1547 68.3459 25.728 68.3886C25.3013 68.4312 24.896 68.4526 24.512 68.4526C24.128 68.4526 23.744 68.4312 23.36 68.3886C22.976 68.3459 22.528 68.3032 22.016 68.2606C20.7787 68.0899 19.6267 67.8979 18.56 67.6846C17.4933 67.4286 16.5547 67.1299 15.744 66.7886C15.0613 66.5326 14.4 66.2126 13.76 65.8286C13.1627 65.4446 12.864 65.1886 12.864 65.0606C12.864 64.9326 12.736 64.8259 12.48 64.7406C12.3947 64.6979 12.2453 64.5699 12.032 64.3566C11.8187 64.1432 11.6053 63.8872 11.392 63.5886L10.56 62.5646L10.176 63.5246C10.048 63.7806 9.92 64.0792 9.792 64.4206C9.70667 64.7192 9.64267 64.9752 9.6 65.1886C9.51467 65.4019 9.408 65.6792 9.28 66.0206C9.19467 66.3619 9.088 66.6606 8.96 66.9166C8.74667 67.3859 8.512 68.0259 8.256 68.8366C7.95733 69.6046 7.68 70.4792 7.424 71.4606C7.38133 71.6739 7.296 71.9512 7.168 72.2926C7.04 72.6339 6.93333 72.9326 6.848 73.1886C6.72 73.4019 6.592 73.7646 6.464 74.2766C6.29333 74.7886 6.16533 75.2792 6.08 75.7486C5.99467 76.2179 5.86667 76.7299 5.696 77.2846C5.52533 77.8392 5.39733 78.2872 5.312 78.6286C5.01333 79.3966 4.77867 80.1859 4.608 80.9966C4.39467 81.8072 4.26667 82.5112 4.224 83.1086L4.096 84.1326L4.8 84.4526C5.14133 84.6232 5.35467 84.7512 5.44 84.8366C5.48267 84.9646 5.504 85.2846 5.504 85.7966C5.504 86.3939 5.39733 86.7992 5.184 87.0126C4.97067 87.1832 4.8 87.2686 4.672 87.2686C4.50133 87.3112 4.224 87.2259 3.84 87.0126C3.2 86.7566 2.77333 86.5432 2.56 86.3726C2.304 86.2446 2.06933 86.0312 1.856 85.7326C1.728 85.5619 1.6 85.4126 1.472 85.2846C1.30133 85.1566 1.17333 85.0926 1.088 85.0926C0.789334 85.0499 0.533333 84.7086 0.32 84.0686C0.106667 83.3859 0 82.6179 0 81.7646C0 81.4232 0.0426668 80.9539 0.128 80.3566C0.213333 79.7166 0.32 79.0339 0.448 78.3086C0.576 77.5406 0.725334 76.7726 0.896 76.0046C1.06667 75.1939 1.25867 74.4259 1.472 73.7006C1.68533 72.8899 1.984 71.9299 2.368 70.8206C2.70933 69.7112 3.072 68.6019 3.456 67.4926C3.79733 66.3406 4.16 65.2526 4.544 64.2286C4.88533 63.2046 5.16267 62.4152 5.376 61.8606C5.58933 61.4339 5.824 60.8792 6.08 60.1966C6.336 59.5139 6.57067 58.8739 6.784 58.2766C6.99733 57.6792 7.27467 56.9966 7.616 56.2286C7.91467 55.4606 8.17067 54.7992 8.384 54.2446C8.64 53.7326 8.85333 53.2846 9.024 52.9006C9.19467 52.4739 9.28 52.2179 9.28 52.1326C9.28 52.0046 9.38667 51.7912 9.6 51.4926C9.81333 51.2366 9.87733 51.0232 9.792 50.8526C9.792 50.7672 9.83467 50.7032 9.92 50.6606C10.048 50.6606 10.112 50.5752 10.112 50.4046C10.112 50.3192 10.176 50.0846 10.304 49.7006C10.432 49.2739 10.6027 48.8046 10.816 48.2926C11.0293 47.7806 11.2427 47.2899 11.456 46.8206C11.712 46.3086 11.904 45.9246 12.032 45.6686C12.1173 45.5406 12.288 45.1779 12.544 44.5806C12.8427 43.9406 13.1627 43.2579 13.504 42.5326C13.8453 41.7646 14.272 40.8046 14.784 39.6526C15.3387 38.4579 15.8293 37.4126 16.256 36.5166C16.64 35.6632 16.9813 34.8952 17.28 34.2126C17.5787 33.5299 17.728 33.1672 17.728 33.1246C17.728 33.0392 17.7707 32.9326 17.856 32.8046C17.9413 32.6766 18.0267 32.5272 18.112 32.3566C18.24 32.1859 18.3467 31.9939 18.432 31.7806C18.5173 31.5672 18.5813 31.3752 18.624 31.2046C18.7093 30.8206 19.072 29.9459 19.712 28.5806C20.3947 27.2152 21.2053 25.6366 22.144 23.8446C23.1253 22.0099 24.1707 20.1112 25.28 18.1486C26.432 16.1432 27.4987 14.3299 28.48 12.7086C29.0773 11.7699 29.568 11.0019 29.952 10.4046C30.3787 9.76457 30.6347 9.4659 30.72 9.50857C30.8053 9.5939 30.9333 9.35924 31.104 8.80457C31.1893 8.59124 31.2533 8.39924 31.296 8.22857C31.3813 8.0579 31.4453 7.92991 31.488 7.84457C31.488 7.75924 31.4027 7.8019 31.232 7.97257C31.0613 8.10057 30.976 8.16457 30.976 8.16457C30.976 8.16457 31.0187 8.10057 31.104 7.97257L31.424 7.65257C31.5093 7.65257 31.68 7.56724 31.936 7.39657C32.192 7.2259 32.4267 7.2899 32.64 7.58857C32.8107 7.97257 33.1093 8.1219 33.536 8.03657C33.8773 8.03657 34.048 8.14323 34.048 8.35657C34.048 8.52724 34.1333 8.61257 34.304 8.61257C34.4747 8.61257 34.6453 8.6979 34.816 8.86857C34.9867 8.99657 35.1147 9.16724 35.2 9.38057C35.328 9.55124 35.392 9.74324 35.392 9.95657C35.4347 10.1272 35.392 10.2552 35.264 10.3406C35.2213 10.3832 35.0933 10.5539 34.88 10.8526C34.7093 11.1086 34.496 11.4286 34.24 11.8126C33.3867 13.1352 32.6827 14.2446 32.128 15.1406C31.616 15.9939 31.1893 16.6979 30.848 17.2526C30.5493 17.8072 30.3147 18.2339 30.144 18.5326C30.016 18.8312 29.9093 19.1086 29.824 19.3646C29.696 19.6632 29.5253 20.0259 29.312 20.4526C29.1413 20.8366 28.9707 21.1992 28.8 21.5406C28.5867 21.8819 28.3733 22.3086 28.16 22.8206C27.9467 23.2899 27.7333 23.7379 27.52 24.1646C27.3493 24.5912 27.136 25.0819 26.88 25.6366C26.6667 26.1486 26.4533 26.5752 26.24 26.9166C25.7707 27.6419 25.408 28.3032 25.152 28.9006C24.896 29.4979 24.8107 29.8606 24.896 29.9886C24.9813 30.1166 24.9387 30.1806 24.768 30.1806C24.4693 30.1806 24.384 30.2446 24.512 30.3726C24.512 30.4152 24.4267 30.6286 24.256 31.0126C24.0853 31.3539 23.872 31.7592 23.616 32.2286C23.4027 32.6979 23.168 33.1886 22.912 33.7006C22.6987 34.2126 22.5493 34.5752 22.464 34.7886C22.3787 35.0446 22.208 35.4072 21.952 35.8766C21.7387 36.3459 21.504 36.7726 21.248 37.1566C20.992 37.6259 20.6933 38.2019 20.352 38.8846C20.0533 39.5672 19.7973 40.2072 19.584 40.8046C19.3707 41.4019 19.1573 41.9566 18.944 42.4686C18.7307 42.9806 18.5813 43.3006 18.496 43.4286C18.24 43.6846 18.112 43.8766 18.112 44.0046C18.112 44.0899 18.0267 44.3246 17.856 44.7086C17.6853 45.0926 17.472 45.5406 17.216 46.0526C16.96 46.6072 16.704 47.1619 16.448 47.7166C16.2347 48.2712 16.0853 48.6979 16 48.9966C15.9147 49.2526 15.7867 49.5726 15.616 49.9566C15.488 50.3406 15.36 50.6606 15.232 50.9166C15.0613 51.3006 14.8053 51.8552 14.464 52.5806C14.1653 53.2632 13.8667 53.9672 13.568 54.6926C13.312 55.4179 13.0773 56.0579 12.864 56.6126C12.6933 57.1672 12.6293 57.4659 12.672 57.5086C12.7573 57.5512 13.184 57.3166 13.952 56.8046C14.72 56.2499 15.6587 55.5459 16.768 54.6926C17.8773 53.8392 19.0507 52.9006 20.288 51.8766C21.568 50.8526 22.72 49.8926 23.744 48.9966C24.8533 48.0152 25.984 46.9699 27.136 45.8606C28.3307 44.7086 29.4613 43.5779 30.528 42.4686C31.6373 41.3166 32.6613 40.2072 33.6 39.1406C34.5387 38.0739 35.3493 37.1139 36.032 36.2606C36.3733 35.8339 36.7147 35.3646 37.056 34.8526C37.44 34.3406 37.76 33.8499 38.016 33.3806C38.3147 32.9112 38.5493 32.5059 38.72 32.1646C38.9333 31.8232 38.9973 31.6526 38.912 31.6526C38.8693 31.6099 38.848 31.4392 38.848 31.1406C38.8907 30.8846 38.8053 30.7992 38.592 30.8846C38.5067 30.9699 38.4853 30.9699 38.528 30.8846C38.5707 30.7566 38.6773 30.6072 38.848 30.4366L39.488 29.7966L38.912 30.1166C38.4427 30.4152 38.2507 30.4792 38.336 30.3086C38.4213 30.0952 38.7413 29.7539 39.296 29.2846C40.448 28.3459 41.1733 27.4286 41.472 26.5326C41.6 26.1059 41.792 25.8712 42.048 25.8286C42.304 25.7432 42.5387 25.8712 42.752 26.2126C42.9227 26.5539 42.9653 26.7246 42.88 26.7246C42.7947 26.7246 42.88 26.8099 43.136 26.9806C43.3493 27.0659 43.4773 27.2152 43.52 27.4286C43.5627 27.5992 43.6053 27.9619 43.648 28.5166C43.6907 29.0712 43.6693 29.4979 43.584 29.7966C43.5413 30.0952 43.392 30.5432 43.136 31.1406C42.88 31.6952 42.5387 32.3566 42.112 33.1246C41.728 33.8926 41.3013 34.6819 40.832 35.4926C40.3627 36.3032 39.872 37.0926 39.36 37.8606C38.8907 38.5859 38.4427 39.2259 38.016 39.7806C37.632 40.2926 37.12 40.9112 36.48 41.6366C35.8827 42.3619 35.2427 43.0872 34.56 43.8126C33.92 44.5379 33.3013 45.2206 32.704 45.8606C32.1493 46.4579 31.7013 46.9059 31.36 47.2046C31.1893 47.3326 30.9973 47.5032 30.784 47.7166C30.5707 47.9299 30.3787 48.1006 30.208 48.2286C29.3973 49.0392 28.7787 49.6366 28.352 50.0206C27.968 50.4046 27.5413 50.8526 27.072 51.3646C26.2187 52.2179 25.152 53.1779 23.872 54.2446C22.6347 55.3112 21.3973 56.3352 20.16 57.3166C18.9653 58.2552 17.8773 59.0659 16.896 59.7486C15.9573 60.4312 15.36 60.7726 15.104 60.7726C15.0187 60.7726 14.848 60.8366 14.592 60.9646C14.3787 61.0926 14.1013 61.2419 13.76 61.4126L12.672 61.9886L14.144 62.6286C15.6373 63.2686 17.2587 63.7806 19.008 64.1646C20.7573 64.5059 22.464 64.6766 24.128 64.6766C24.64 64.6766 25.3227 64.6552 26.176 64.6126C27.0293 64.5272 27.8613 64.4419 28.672 64.3566C29.5253 64.2712 30.2933 64.1859 30.976 64.1006C31.7013 64.0152 32.192 63.9299 32.448 63.8446C32.576 63.8019 32.7253 63.7592 32.896 63.7166C33.1093 63.6739 33.28 63.6312 33.408 63.5886C33.5787 63.5459 33.7493 63.5032 33.92 63.4606C34.1333 63.4179 34.3253 63.3752 34.496 63.3326C34.6667 63.2899 34.8373 63.2472 35.008 63.2046C35.2213 63.1619 35.4133 63.1192 35.584 63.0766C36.9067 62.7352 38.528 62.1379 40.448 61.2846C42.4107 60.4312 44.3093 59.4499 46.144 58.3406C47.808 57.3166 49.28 56.3352 50.56 55.3966C51.84 54.4152 52.9067 53.4339 53.76 52.4526C54.1013 52.0686 54.4 51.7486 54.656 51.4926C54.912 51.2366 55.0613 51.1299 55.104 51.1726C55.1467 51.2152 55.2747 51.0872 55.488 50.7886L55.808 50.3406L55.424 50.7246C55.168 50.9806 55.04 51.0659 55.04 50.9806C55.04 50.8526 55.1893 50.5752 55.488 50.1486L55.872 49.4446L56.256 50.1486ZM4.8 67.3006L4.544 67.8126C4.288 68.3672 4.01067 69.1779 3.712 70.2446C3.37067 71.2686 3.05067 72.3779 2.752 73.5726C2.41067 74.7246 2.112 75.8766 1.856 77.0286C1.6 78.1379 1.42933 79.0552 1.344 79.7806C1.216 80.7192 1.17333 81.4019 1.216 81.8286C1.216 82.2126 1.28 81.9992 1.408 81.1886C1.45067 80.8899 1.51467 80.5272 1.6 80.1006C1.68533 79.6739 1.77067 79.2899 1.856 78.9486C1.94133 78.6072 2.048 78.1592 2.176 77.6046C2.304 77.0072 2.41067 76.4526 2.496 75.9406C2.624 75.4286 2.73067 74.9806 2.816 74.5966C2.85867 74.2126 2.88 73.9992 2.88 73.9566C2.79467 73.8286 2.83733 73.6792 3.008 73.5086C3.136 73.3806 3.264 73.1246 3.392 72.7406C3.47733 72.3139 3.47733 71.9939 3.392 71.7806C3.392 71.6526 3.43467 71.5886 3.52 71.5886C3.56267 71.6312 3.648 71.5032 3.776 71.2046C3.904 70.9059 4.032 70.5432 4.16 70.1166C4.288 69.6899 4.416 69.2632 4.544 68.8366C4.672 68.4099 4.736 68.0899 4.736 67.8766L4.8 67.3006ZM6.4 63.7166C6.69867 62.9059 6.93333 62.2019 7.104 61.6046C7.27467 61.0072 7.33867 60.6659 7.296 60.5806C7.25333 60.3672 7.21067 60.3246 7.168 60.4526C7.08267 60.5806 6.93333 60.9006 6.72 61.4126C6.54933 61.7966 6.4 62.2446 6.272 62.7566C6.10133 63.2686 5.97333 63.6952 5.888 64.0366C5.80267 64.4206 5.71733 64.7619 5.632 65.0606C5.504 65.3166 5.39733 65.4659 5.312 65.5086C5.14133 65.5939 5.01333 65.8286 4.928 66.2126C4.8 66.5966 4.77867 66.8526 4.864 66.9806C4.94933 67.1512 5.09867 67.0446 5.312 66.6606C5.48267 66.2339 5.84533 65.2526 6.4 63.7166ZM10.176 53.9886C10.304 53.6046 10.5173 53.0286 10.816 52.2606C11.1573 51.4926 11.52 50.6392 11.904 49.7006C12.288 48.7619 12.672 47.8019 13.056 46.8206C13.4827 45.7966 13.8667 44.8579 14.208 44.0046C14.592 43.1512 14.8907 42.4472 15.104 41.8926C15.36 41.3379 15.5093 41.0179 15.552 40.9326C15.6373 40.8472 15.7227 40.6766 15.808 40.4206C15.936 40.1219 16.0427 39.8232 16.128 39.5246C16.2133 39.2259 16.2773 38.9699 16.32 38.7566C16.4053 38.5432 16.4267 38.4366 16.384 38.4366C16.3413 38.4366 16.2347 38.6072 16.064 38.9486C15.936 39.2472 15.7653 39.6312 15.552 40.1006C15.3387 40.5699 15.104 41.0606 14.848 41.5726C14.6347 42.0419 14.464 42.4046 14.336 42.6606C14.208 42.9166 13.9093 43.5566 13.44 44.5806C13.0133 45.6046 12.544 46.7352 12.032 47.9726C11.776 48.5699 11.52 49.1886 11.264 49.8286C11.008 50.4686 10.752 51.0659 10.496 51.6206C10.2827 52.1752 10.0693 52.6872 9.856 53.1566C9.68533 53.5832 9.536 53.9246 9.408 54.1806C9.06667 54.9059 8.78933 55.6099 8.576 56.2926C8.32 56.9752 8.128 57.5726 8 58.0846C7.82933 58.5966 7.72267 59.0232 7.68 59.3646C7.63733 59.6632 7.65867 59.8126 7.744 59.8126C7.872 59.8126 7.872 59.7486 7.744 59.6206C7.65867 59.4926 7.68 59.4286 7.808 59.4286C7.85067 59.4286 7.936 59.3646 8.064 59.2366C8.14933 59.0659 8.23467 58.8739 8.32 58.6606C8.40533 58.4472 8.49067 58.2339 8.576 58.0206C8.61867 57.8072 8.64 57.6366 8.64 57.5086C8.64 57.2526 8.81067 56.8259 9.152 56.2286C9.32267 55.9726 9.49333 55.6312 9.664 55.2046C9.87733 54.7352 10.048 54.3299 10.176 53.9886ZM50.752 56.2286C51.3493 55.7166 51.84 55.2686 52.224 54.8846C52.6507 54.5006 52.8 54.3086 52.672 54.3086C52.5867 54.3086 52.3733 54.4792 52.032 54.8206C51.8187 55.0339 51.392 55.3752 50.752 55.8446C50.1547 56.2712 49.4507 56.7406 48.64 57.2526C47.872 57.7646 47.0613 58.2766 46.208 58.7886C45.3547 59.3006 44.608 59.7272 43.968 60.0686C43.2853 60.4099 42.6667 60.7299 42.112 61.0286C41.6 61.3272 41.3013 61.5192 41.216 61.6046C40.9173 61.8179 41.0667 61.8179 41.664 61.6046C42.2613 61.3486 43.0507 60.9859 44.032 60.5166C44.5013 60.2606 45.0347 59.9619 45.632 59.6206C46.272 59.2366 46.912 58.8526 47.552 58.4686C48.192 58.0846 48.7893 57.7006 49.344 57.3166C49.8987 56.8899 50.368 56.5272 50.752 56.2286Z" fill="#3F2419"/>
<path d="M138.009 47.3326C138.179 47.4606 138.243 47.8232 138.201 48.4206C138.073 49.1459 137.817 49.8712 137.433 50.5966C137.049 51.2792 136.366 52.1752 135.385 53.2846C134.915 53.8819 134.425 54.5006 133.913 55.1406C133.401 55.7806 133.017 56.2926 132.761 56.6766C132.505 57.0179 132.27 57.3166 132.057 57.5726C131.886 57.8286 131.779 57.9566 131.737 57.9566C131.694 57.9566 131.545 58.0632 131.289 58.2766C131.075 58.4899 130.798 58.7672 130.457 59.1086C128.707 61.1139 126.553 62.4366 123.993 63.0766C123.395 63.2472 122.926 63.3326 122.585 63.3326C122.286 63.3326 121.945 63.2899 121.561 63.2046C120.835 62.9912 120.046 62.6286 119.193 62.1166C118.339 61.5619 117.742 61.0072 117.401 60.4526C117.23 60.2392 117.017 59.9619 116.761 59.6206C116.547 59.2366 116.334 58.9379 116.12 58.7246C115.651 58.0846 115.225 57.3166 114.841 56.4206C114.457 55.4819 114.158 54.4792 113.945 53.4126C113.817 52.8152 113.689 52.1752 113.561 51.4926C113.433 50.7672 113.305 50.0419 113.177 49.3166C113.049 48.5486 112.921 47.8446 112.793 47.2046C112.707 46.5219 112.643 45.9246 112.601 45.4126C112.515 45.0286 112.451 44.6232 112.409 44.1966C112.409 43.7699 112.387 43.4499 112.345 43.2366C112.259 42.7672 112.195 42.5326 112.153 42.5326C112.067 42.5326 111.833 42.7246 111.449 43.1086C111.107 43.4499 110.702 43.8766 110.233 44.3886C109.721 44.9006 109.273 45.3486 108.889 45.7326C108.547 46.0739 108.334 46.2659 108.249 46.3086C108.121 46.3512 107.801 46.7139 107.289 47.3966C106.819 48.0366 106.243 48.8472 105.561 49.8286C104.921 50.7672 104.238 51.8126 103.513 52.9646C102.83 54.0739 102.169 55.1406 101.529 56.1646C100.931 57.1459 100.441 57.9992 100.057 58.7246C99.6725 59.4499 99.4805 59.8979 99.4805 60.0686C99.4805 60.1539 99.4165 60.2819 99.2885 60.4526C99.2032 60.6232 99.0965 60.8152 98.9685 61.0286C98.6698 61.4126 98.5205 61.7112 98.5205 61.9246C98.5205 62.0099 98.4138 62.1592 98.2005 62.3726C98.0298 62.5432 97.8165 62.7566 97.5605 63.0126C97.3472 63.2259 97.1125 63.4179 96.8565 63.5886C96.6432 63.7592 96.4725 63.8659 96.3445 63.9086C96.0885 64.0366 95.8325 63.9726 95.5765 63.7166C95.3205 63.4606 95.1285 63.3326 95.0005 63.3326C94.8298 63.3326 94.7018 63.1406 94.6165 62.7566C94.5312 62.4152 94.4032 62.3299 94.2325 62.5006C94.0192 62.6712 93.8485 62.6712 93.7205 62.5006C93.6352 62.3299 93.4432 61.8819 93.1445 61.1566C92.4618 59.4072 92.4405 56.6552 93.0805 52.9006C93.3792 51.0232 93.5712 49.5299 93.6565 48.4206C93.7845 47.3112 93.8058 46.7566 93.7205 46.7566C93.6352 46.7566 93.5925 46.5219 93.5925 46.0526C93.5925 45.5832 93.5925 45.0286 93.5925 44.3886L93.6565 42.0206L92.0565 43.8766C91.0325 45.0712 89.8805 46.5219 88.6005 48.2286C87.3632 49.9352 86.1045 51.7272 84.8245 53.6046C83.5445 55.4819 82.3072 57.3806 81.1125 59.3006C79.9605 61.1779 78.9578 62.9272 78.1045 64.5486C77.8912 64.9752 77.6778 65.3379 77.4645 65.6366C77.2938 65.9352 77.1872 66.0846 77.1445 66.0846C77.1018 66.0846 76.9312 66.3406 76.6325 66.8526C76.5472 67.0659 76.4405 67.2579 76.3125 67.4286C76.2272 67.5992 76.1632 67.7059 76.1205 67.7486C75.9072 67.9192 75.6725 67.9832 75.4165 67.9406C75.1605 67.8552 74.9685 67.7059 74.8405 67.4926C74.7125 67.2366 74.5418 67.1086 74.3285 67.1086C74.2432 67.1512 74.0938 67.0659 73.8805 66.8526C73.7098 66.6392 73.5392 66.3832 73.3685 66.0846C73.1978 65.7432 73.0485 65.4019 72.9205 65.0606C72.7925 64.7192 72.7285 64.4419 72.7285 64.2286C72.6858 64.0152 72.6645 63.6312 72.6645 63.0766C72.6645 62.4792 72.6432 61.8606 72.6005 61.2206C72.6005 60.7086 72.6005 60.2819 72.6005 59.9406C72.6005 59.5992 72.6005 59.3006 72.6005 59.0446C72.6432 58.7459 72.7072 58.4472 72.7925 58.1486C72.8778 57.8499 72.9845 57.4872 73.1125 57.0606C73.2405 56.5912 73.4965 55.8232 73.8805 54.7566C74.3072 53.6899 74.7125 52.6659 75.0965 51.6846C75.6085 50.4472 76.0352 49.4446 76.3765 48.6766C76.7178 47.8659 77.0165 47.1619 77.2725 46.5646C77.5285 45.9246 77.7632 45.3486 77.9765 44.8366C78.2325 44.2819 78.5312 43.6419 78.8725 42.9166C79.5978 41.2526 79.8752 40.4419 79.7045 40.4846C79.4912 40.5699 79.4058 40.5486 79.4485 40.4206C79.5338 40.2926 79.7472 39.9726 80.0885 39.4606C80.4298 38.9912 80.6432 38.6712 80.7285 38.5006C80.8138 38.3299 80.7285 38.3512 80.4725 38.5646C80.3445 38.6926 80.2805 38.7566 80.2805 38.7566C80.2805 38.7139 80.3232 38.5859 80.4085 38.3726C80.5792 38.0739 80.7072 37.9672 80.7925 38.0526C80.8352 38.0526 81.0058 37.8392 81.3045 37.4126C81.4325 37.1566 81.5818 36.8792 81.7525 36.5806C81.9232 36.2392 82.1152 35.8979 82.3285 35.5566C81.5178 35.6846 80.6005 35.8339 79.5765 36.0046C78.5952 36.1752 77.5925 36.3672 76.5685 36.5806C75.5445 36.7512 74.5418 36.9432 73.5605 37.1566C72.6218 37.3272 71.7898 37.5192 71.0645 37.7326C68.8032 38.3299 67.0965 38.8419 65.9445 39.2686C64.7925 39.6526 64.2805 39.9299 64.4085 40.1006C64.4512 40.1432 64.5578 40.2712 64.7285 40.4846C64.8992 40.6552 65.0912 40.8686 65.3045 41.1246C65.7738 41.5939 66.2218 42.3619 66.6485 43.4286C67.0752 44.4526 67.3738 45.4552 67.5445 46.4366C67.5872 46.9059 67.6085 47.3966 67.6085 47.9086C67.6085 48.3779 67.5658 48.9112 67.4805 49.5086C67.4378 49.9352 67.3952 50.2766 67.3525 50.5326C67.3098 50.7886 67.2245 51.0446 67.0965 51.3006C67.0112 51.5139 66.9045 51.7699 66.7765 52.0686C66.6485 52.3246 66.4565 52.6446 66.2005 53.0286C65.9445 53.4979 65.5178 54.0952 64.9205 54.8206C64.3658 55.5459 63.7472 56.3139 63.0645 57.1246C62.4245 57.9352 61.7418 58.7459 61.0165 59.5566C60.2912 60.3246 59.6298 60.9859 59.0325 61.5406C57.4112 63.1192 56.0672 64.1859 55.0005 64.7406C53.9765 65.2526 53.0378 65.3379 52.1845 64.9966C51.0752 64.5272 50.2005 63.8872 49.5605 63.0766C48.9205 62.2232 48.3872 61.0712 47.9605 59.6206C47.6192 58.3406 47.4698 57.1672 47.5125 56.1006C47.5552 55.0339 47.8538 53.7112 48.4085 52.1326C48.6645 51.4072 48.8992 50.7886 49.1125 50.2766C49.3258 49.7219 49.5605 49.1886 49.8165 48.6766C50.0298 48.1646 50.2858 47.6312 50.5845 47.0766C50.8832 46.4792 51.2672 45.7539 51.7365 44.9006C52.1205 44.2179 52.4405 43.6632 52.6965 43.2366C52.9525 42.7672 53.2085 42.3406 53.4645 41.9566C53.7632 41.5299 54.0618 41.1032 54.3605 40.6766C54.7018 40.2499 55.1072 39.7592 55.5765 39.2046C55.9178 38.8206 56.1952 38.4792 56.4085 38.1806C56.6645 37.8392 56.7925 37.6259 56.7925 37.5406C56.7925 37.3699 56.9632 37.2206 57.3045 37.0926C57.6458 36.9219 57.9872 36.8366 58.3285 36.8366C58.7552 36.8792 59.1392 37.1779 59.4805 37.7326C59.7792 38.2019 60.0352 38.7566 60.2485 39.3966C60.4618 40.0366 60.5685 40.5272 60.5685 40.8686C60.5258 41.0819 60.2272 41.6366 59.6725 42.5326C59.1178 43.3859 58.4352 44.3032 57.6245 45.2846C57.3258 45.6686 56.9205 46.2659 56.4085 47.0766C55.9392 47.8446 55.4485 48.6766 54.9365 49.5726C54.4245 50.4259 53.9338 51.2792 53.4645 52.1326C53.0378 52.9859 52.7178 53.6686 52.5045 54.1806C52.1205 55.1192 51.7578 56.0792 51.4165 57.0606C51.0752 58.0419 50.8618 58.7246 50.7765 59.1086C50.6912 59.4499 50.6698 59.6846 50.7125 59.8126C50.7552 59.8979 50.9258 59.9832 51.2245 60.0686C51.6512 60.2392 52.0138 60.3246 52.3125 60.3246C52.6538 60.3672 53.0805 60.2819 53.5925 60.0686C54.1472 59.8126 54.5098 59.5779 54.6805 59.3646C54.7658 59.2792 54.9152 59.1299 55.1285 58.9166C55.3845 58.6606 55.6832 58.4046 56.0245 58.1486C56.7072 57.6366 57.4325 57.0179 58.2005 56.2926C59.0112 55.5672 59.7792 54.8206 60.5045 54.0526C61.2725 53.2419 61.9552 52.4526 62.5525 51.6846C63.1925 50.9166 63.7045 50.2126 64.0885 49.5726C64.9845 47.9086 65.4325 46.4579 65.4325 45.2206C65.3898 44.4952 65.2405 43.8979 64.9845 43.4286C64.7285 42.9592 64.1952 42.3619 63.3845 41.6366C62.8298 41.1672 62.3818 40.7619 62.0405 40.4206C61.6992 40.0792 61.4005 39.7592 61.1445 39.4606C60.9312 39.1619 60.7605 38.8846 60.6325 38.6286C60.5472 38.3726 60.4618 38.0739 60.3765 37.7326C60.2058 37.2206 60.1632 36.8579 60.2485 36.6446C60.3765 36.4312 60.6112 36.2392 60.9525 36.0686C61.5498 35.8552 62.2325 35.6419 63.0005 35.4286C63.7685 35.2152 64.4725 35.0232 65.1125 34.8526C65.7952 34.6392 66.3712 34.4686 66.8405 34.3406C67.3098 34.2126 67.5445 34.1699 67.5445 34.2126C67.5872 34.2552 67.7578 34.2552 68.0565 34.2126C68.3978 34.1272 68.7818 33.9992 69.2085 33.8286C69.6778 33.7006 70.1258 33.5939 70.5525 33.5086C71.0218 33.3806 71.5125 33.2739 72.0245 33.1886C72.5792 33.1032 73.2192 32.9966 73.9445 32.8686C74.6698 32.7406 75.5232 32.6126 76.5045 32.4846C77.2298 32.3992 78.1258 32.2712 79.1925 32.1006C80.2592 31.9299 81.1552 31.7806 81.8805 31.6526C82.4778 31.5672 83.0965 31.5032 83.7365 31.4606C84.3765 31.3752 84.9098 31.3326 85.3365 31.3326C85.6778 31.1619 85.9765 31.0766 86.2325 31.0766C86.4885 31.0339 86.6165 31.0979 86.6165 31.2686C86.6165 31.4392 86.7445 31.4819 87.0005 31.3966C87.2992 31.3112 87.6832 31.3966 88.1525 31.6526C88.6218 31.8659 88.8778 32.0792 88.9205 32.2926C88.9205 32.4206 88.9632 32.5912 89.0485 32.8046C89.1338 32.9752 89.2192 33.1459 89.3045 33.3166C89.4752 33.6152 89.5605 33.8499 89.5605 34.0206C89.5605 34.1486 89.5178 34.3832 89.4325 34.7246C89.3472 34.9379 89.1978 35.2152 88.9845 35.5566C88.7712 35.8979 88.5365 36.2179 88.2805 36.5166C87.8965 36.9859 87.5552 37.4339 87.2565 37.8606C86.9578 38.2872 86.6378 38.7992 86.2965 39.3966C85.9552 39.9939 85.5712 40.7192 85.1445 41.5726C84.7605 42.3832 84.2698 43.4072 83.6725 44.6446C82.5632 46.9912 81.8592 48.5059 81.5605 49.1886C81.3045 49.8712 81.3472 49.9779 81.6885 49.5086C82.0725 48.9539 82.4565 48.4206 82.8405 47.9086C83.2245 47.3539 83.5658 46.8632 83.8645 46.4366C84.2058 46.0099 84.4832 45.6686 84.6965 45.4126C84.9098 45.1566 85.0378 45.0286 85.0805 45.0286C85.2085 45.0286 85.2725 44.9646 85.2725 44.8366C85.2298 44.7512 85.4858 44.3459 86.0405 43.6206C86.6378 42.8526 87.3205 42.0419 88.0885 41.1886C88.8565 40.2926 89.6032 39.4606 90.3285 38.6926C91.0538 37.8819 91.5658 37.3912 91.8645 37.2206C92.2058 37.0072 92.4832 36.8792 92.6965 36.8366C92.9098 36.7512 93.2298 36.7512 93.6565 36.8366C93.9552 36.8792 94.3178 36.9646 94.7445 37.0926C95.1712 37.2206 95.5552 37.3699 95.8965 37.5406C96.4085 37.8392 96.7285 38.0739 96.8565 38.2446C97.0272 38.3726 97.1125 38.5432 97.1125 38.7566C97.1125 38.8846 97.1552 39.0766 97.2405 39.3326C97.3258 39.5886 97.4112 39.8232 97.4965 40.0366C97.5818 40.2072 97.6458 40.3779 97.6885 40.5486C97.7312 40.7192 97.7738 40.9539 97.8165 41.2526C97.8592 41.5086 97.8805 41.8712 97.8805 42.3406C97.8805 42.7672 97.8805 43.3432 97.8805 44.0686C97.8805 44.9646 97.8592 45.7112 97.8165 46.3086C97.8165 46.9059 97.7952 47.5246 97.7525 48.1646C97.7098 48.7619 97.6245 49.4446 97.4965 50.2126C97.4112 50.9379 97.2832 51.8979 97.1125 53.0926C96.9845 54.0739 96.8778 54.8632 96.7925 55.4606C96.7072 56.0152 96.6432 56.4419 96.6005 56.7406C96.5578 57.0392 96.5365 57.2312 96.5365 57.3166C96.5365 57.4019 96.5578 57.4446 96.6005 57.4446C96.7712 57.1886 96.9418 56.9112 97.1125 56.6126C97.2832 56.3566 97.4538 56.0579 97.6245 55.7166C97.8378 55.3752 98.0512 55.0339 98.2645 54.6926C99.4592 52.6872 100.611 50.8526 101.721 49.1886C102.83 47.4819 103.854 45.9886 104.793 44.7086C105.774 43.3859 106.649 42.2979 107.417 41.4446C108.227 40.5912 108.889 40.0152 109.401 39.7166C109.998 39.3752 110.659 39.2259 111.385 39.2686C112.11 39.3112 112.771 39.5032 113.369 39.8446C113.582 40.0152 113.774 40.1859 113.945 40.3566C114.158 40.4846 114.307 40.5912 114.393 40.6766C114.649 41.0606 114.926 41.8499 115.225 43.0446C115.523 44.2392 115.801 45.6472 116.057 47.2686C116.313 48.9752 116.547 50.4259 116.761 51.6206C116.974 52.8152 117.166 53.8179 117.337 54.6286C117.507 55.4392 117.678 56.1219 117.849 56.6766C118.019 57.2312 118.211 57.7432 118.424 58.2126C118.638 58.6819 118.808 59.0232 118.937 59.2366C119.065 59.4499 119.278 59.5992 119.576 59.6846C119.918 59.8552 120.195 59.9192 120.409 59.8766C120.665 59.8339 121.198 59.6846 122.008 59.4286C122.905 59.0872 123.907 58.5752 125.017 57.8926C126.169 57.2099 127.342 56.3779 128.537 55.3966C129.731 54.4152 130.926 53.3272 132.121 52.1326C133.358 50.8952 134.531 49.5939 135.641 48.2286C136.238 47.5032 136.771 46.8846 137.241 46.3726C137.71 45.8606 137.966 45.6046 138.009 45.6046C138.137 45.6046 138.179 45.8179 138.137 46.2446C138.137 46.6712 138.073 46.9272 137.945 47.0126C137.774 47.0979 137.795 47.2046 138.009 47.3326ZM74.5205 59.7486C74.6058 59.5352 74.6058 59.3219 74.5205 59.1086C74.4778 59.0232 74.4565 59.1512 74.4565 59.4926C74.4138 59.7059 74.3925 59.8339 74.3925 59.8766C74.4352 59.8766 74.4778 59.8339 74.5205 59.7486ZM74.7765 58.4686C74.9045 58.2126 74.9685 57.9566 74.9685 57.7006C74.9685 57.4446 74.9258 57.4872 74.8405 57.8286C74.7125 58.0846 74.6485 58.3192 74.6485 58.5326C74.6485 58.8312 74.6912 58.8099 74.7765 58.4686ZM138.329 47.4606C138.329 46.5646 138.457 46.4366 138.713 47.0766C138.841 47.3752 138.798 47.6312 138.585 47.8446C138.499 47.9726 138.435 48.0366 138.393 48.0366C138.393 47.9939 138.371 47.8019 138.329 47.4606Z" fill="#3F2419"/>
<path d="M165.788 32.6126C166.13 32.6552 166.514 32.9539 166.941 33.5086C167.41 34.0206 167.751 34.5752 167.965 35.1726C168.562 36.6659 168.413 38.6499 167.517 41.1246C166.621 43.5566 164.935 46.7139 162.461 50.5966C161.821 51.6206 160.903 52.8792 159.709 54.3726C158.514 55.8659 157.213 57.4019 155.805 58.9806C154.397 60.5592 152.989 62.0952 151.581 63.5886C150.173 65.0392 148.914 66.2339 147.805 67.1726C147.165 67.6846 146.439 68.2392 145.629 68.8366C144.861 69.4339 144.029 69.9886 143.133 70.5006C142.237 71.0126 141.319 71.4392 140.381 71.7806C139.442 72.0792 138.546 72.2286 137.693 72.2286C136.925 72.2286 136.178 72.1432 135.452 71.9726C134.727 71.8019 134.13 71.5459 133.661 71.2046L132.637 70.5646L131.868 71.9726C131.655 72.3566 131.357 72.9752 130.973 73.8286C130.589 74.6392 130.183 75.5352 129.757 76.5166C129.33 77.4552 128.924 78.3726 128.54 79.2686C128.114 80.1646 127.773 80.9112 127.517 81.5086C127.346 81.9352 127.175 82.4046 127.005 82.9166C126.791 83.4286 126.599 83.8552 126.429 84.1966C125.746 85.7326 125.191 87.4606 124.765 89.3806C124.295 91.3432 123.954 93.4766 123.741 95.7806H122.589C122.119 95.7379 121.799 95.6952 121.629 95.6526C121.415 95.6099 121.266 95.5246 121.181 95.3966C121.053 95.1832 120.775 94.9912 120.349 94.8206C120.178 94.7352 120.029 94.6286 119.901 94.5006C119.73 94.4152 119.623 94.3086 119.581 94.1806C119.495 94.0526 119.41 93.8819 119.325 93.6686C119.197 93.4979 119.069 93.3272 118.941 93.1566C118.813 92.9432 118.727 92.7086 118.685 92.4526C118.642 92.2392 118.642 91.9406 118.685 91.5566C118.727 91.1726 118.813 90.6819 118.941 90.0846C119.069 89.5299 119.239 88.8259 119.452 87.9726C119.623 87.3752 119.879 86.5006 120.221 85.3486C120.519 84.2392 120.882 83.0019 121.309 81.6366C121.735 80.2712 122.183 78.8632 122.653 77.4126C123.122 75.9619 123.57 74.5966 123.997 73.3166C124.423 71.9939 124.807 70.8419 125.149 69.8606C125.49 68.8366 125.746 68.1112 125.917 67.6846C126.045 67.3859 126.258 66.8739 126.557 66.1486C126.813 65.3806 127.09 64.6339 127.389 63.9086C127.73 63.1406 128.05 62.4579 128.349 61.8606C128.605 61.2632 128.775 60.9219 128.861 60.8366C129.074 60.6659 129.266 60.2392 129.437 59.5566C129.522 59.3006 129.629 59.0019 129.757 58.6606C129.842 58.2766 129.927 57.9566 130.012 57.7006C130.098 57.4446 130.29 56.9966 130.589 56.3566C130.845 55.6739 131.122 54.9912 131.421 54.3086C131.762 53.4552 132.124 52.5592 132.508 51.6206C132.892 50.6819 133.277 49.8286 133.661 49.0606C134.045 48.2499 134.386 47.5459 134.685 46.9486C134.983 46.3086 135.197 45.8819 135.325 45.6686C135.623 45.1566 135.773 44.7939 135.773 44.5806C135.773 44.4952 135.837 44.3246 135.965 44.0686C136.093 43.8126 136.242 43.5352 136.413 43.2366C136.583 42.9379 136.861 42.4259 137.245 41.7006C137.671 40.9326 138.077 40.1646 138.461 39.3966C138.887 38.6712 139.271 37.9672 139.613 37.2846C139.997 36.6019 140.253 36.1539 140.381 35.9406C140.509 35.7272 140.658 35.4712 140.829 35.1726C140.999 34.8312 141.127 34.4899 141.213 34.1486C141.298 33.8072 141.405 33.5086 141.533 33.2526C141.661 32.9966 141.767 32.8259 141.853 32.7406C141.938 32.6552 142.066 32.4632 142.237 32.1646C142.407 31.8659 142.599 31.5246 142.812 31.1406C143.026 30.7139 143.239 30.2872 143.452 29.8606C143.666 29.3912 143.858 28.9646 144.029 28.5806C144.455 27.6419 145.095 27.1726 145.949 27.1726C146.162 27.1726 146.503 27.2152 146.973 27.3006C147.442 27.3432 147.719 27.4072 147.805 27.4926C147.933 27.7059 148.21 27.9406 148.637 28.1966C148.978 28.4099 149.191 28.6019 149.277 28.7726C149.362 28.9006 149.383 29.1779 149.34 29.6046C149.298 29.8606 149.213 30.1379 149.085 30.4366C148.999 30.6926 148.893 30.9272 148.765 31.1406C148.253 31.7806 147.676 32.6339 147.036 33.7006C146.396 34.7246 145.714 35.8552 144.989 37.0926C144.306 38.3299 143.623 39.6099 142.941 40.9326C142.258 42.2126 141.639 43.4286 141.085 44.5806C140.658 45.4766 140.146 46.6072 139.549 47.9726C138.951 49.3379 138.375 50.6606 137.821 51.9406C137.266 53.1779 136.797 54.2446 136.413 55.1406C136.071 56.0366 135.9 56.5059 135.9 56.5486C135.986 56.5486 136.157 56.3566 136.413 55.9726C136.669 55.5886 136.967 55.1406 137.309 54.6286C138.077 53.4766 138.802 52.4526 139.484 51.5566C140.21 50.6179 140.722 49.9992 141.021 49.7006C141.149 49.6152 141.426 49.3166 141.853 48.8046C142.279 48.2926 142.727 47.7166 143.197 47.0766C143.666 46.4792 144.242 45.7539 144.924 44.9006C145.65 44.0472 146.269 43.3219 146.781 42.7246C147.293 42.1272 147.741 41.5939 148.125 41.1246C148.509 40.6552 148.701 40.3779 148.701 40.2926C148.701 40.2072 148.786 40.0792 148.956 39.9086C149.17 39.6952 149.405 39.4819 149.661 39.2686C149.917 39.0552 150.365 38.6712 151.005 38.1166C151.687 37.5192 152.349 36.9219 152.989 36.3246C153.458 35.9406 154.013 35.4712 154.653 34.9166C155.335 34.3619 156.061 33.8286 156.829 33.3166C157.597 32.8046 158.365 32.3779 159.133 32.0366C159.943 31.6526 160.69 31.4606 161.373 31.4606C161.842 31.4606 162.439 31.5246 163.165 31.6526C163.89 31.7806 164.445 31.9512 164.829 32.1646C165.213 32.4632 165.532 32.6126 165.788 32.6126ZM128.861 67.8766C128.946 67.7059 128.946 67.5779 128.861 67.4926C128.775 67.4072 128.732 67.4926 128.732 67.7486C128.732 67.9192 128.775 67.9619 128.861 67.8766ZM130.012 62.8846C130.055 62.7566 130.119 62.6072 130.204 62.4366C130.247 62.2232 130.311 62.0312 130.396 61.8606C130.567 61.5619 130.866 60.9006 131.293 59.8766C131.677 58.8099 132.082 57.7219 132.508 56.6126C132.978 55.4606 133.362 54.4366 133.661 53.5406C134.002 52.6019 134.151 52.1112 134.109 52.0686C134.066 52.0686 133.895 52.3246 133.596 52.8366C133.34 53.3486 133.042 53.9672 132.701 54.6926C132.402 55.3752 132.103 56.0792 131.805 56.8046C131.506 57.4872 131.293 58.0419 131.165 58.4686C131.079 58.8099 130.93 59.2579 130.717 59.8126C130.503 60.3672 130.141 61.2419 129.629 62.4366C129.458 62.8206 129.181 63.5886 128.797 64.7406C128.413 65.8926 127.986 67.0872 127.517 68.3246C127.047 69.5619 126.642 70.6712 126.301 71.6526C125.959 72.6339 125.746 73.1672 125.661 73.2526C125.405 73.7646 125.149 74.4259 124.893 75.2366C124.637 76.0472 124.445 76.7512 124.317 77.3486C124.189 77.6046 124.167 77.7752 124.253 77.8606C124.295 77.8606 124.423 77.6686 124.637 77.2846C124.807 76.8579 124.999 76.3672 125.213 75.8126C125.426 75.2152 125.682 74.6392 125.981 74.0846C126.237 73.4872 126.429 73.0819 126.557 72.8686C126.727 72.6552 126.877 72.3566 127.005 71.9726C127.09 71.5459 127.175 71.1406 127.261 70.7566C127.303 70.4152 127.41 69.9672 127.581 69.4126C127.751 68.8152 127.922 68.3032 128.092 67.8766C128.647 66.6392 129.117 65.5512 129.501 64.6126C129.842 63.6739 130.012 63.0979 130.012 62.8846ZM145.821 65.4446C146.034 65.2312 146.055 65.1672 145.885 65.2526C145.757 65.2952 145.458 65.5086 144.989 65.8926C144.221 66.4472 143.73 66.8312 143.517 67.0446C143.474 67.0446 143.303 67.1512 143.005 67.3646C142.749 67.5779 142.45 67.8126 142.109 68.0686C141.426 68.5379 140.914 68.8366 140.573 68.9646C140.274 69.0926 140.188 68.9859 140.316 68.6446C140.487 68.4312 140.466 68.3672 140.253 68.4526C140.167 68.4952 140.103 68.5806 140.061 68.7086C140.061 68.8366 140.061 68.9646 140.061 69.0926C140.103 69.4339 139.911 69.6899 139.484 69.8606C138.844 70.0739 138.61 70.0739 138.781 69.8606C138.909 69.7326 138.887 69.6686 138.717 69.6686C138.674 69.6259 138.631 69.6472 138.589 69.7326C138.546 69.8179 138.525 69.9246 138.525 70.0526C138.525 70.3512 138.567 70.5006 138.653 70.5006C138.866 70.5006 139.314 70.3086 139.997 69.9246C140.722 69.4979 141.469 69.0499 142.237 68.5806C143.005 68.0686 143.687 67.5992 144.285 67.1726C144.925 66.7032 145.245 66.4259 145.245 66.3406C145.287 66.2552 145.351 66.1486 145.437 66.0206C145.522 65.8499 145.65 65.6579 145.821 65.4446ZM135.197 46.3726C135.197 46.5859 135.197 46.7139 135.197 46.7566C135.239 46.7566 135.303 46.6499 135.389 46.4366C135.559 46.1806 135.645 45.9886 135.645 45.8606C135.645 45.7326 135.58 45.7112 135.452 45.7966C135.282 45.8819 135.197 46.0739 135.197 46.3726ZM131.805 67.4286C131.847 67.5566 131.933 67.5566 132.061 67.4286C132.189 67.3006 132.423 66.9379 132.765 66.3406C133.021 65.9139 133.426 65.2526 133.98 64.3566C134.535 63.4179 135.09 62.5006 135.645 61.6046C138.973 56.0152 142.535 50.9166 146.333 46.3086C150.13 41.7006 153.948 37.8392 157.788 34.7246C158.684 33.9992 159.367 33.4872 159.837 33.1886C160.306 32.8472 160.69 32.6552 160.989 32.6126C162.226 32.3992 162.887 32.2712 162.973 32.2286C163.101 32.1859 162.908 32.1646 162.396 32.1646C161.244 32.1646 159.922 32.5699 158.429 33.3806C156.935 34.1486 155.186 35.3432 153.181 36.9646C152.455 37.5619 151.858 38.0739 151.389 38.5006C150.919 38.9272 150.685 39.1619 150.685 39.2046C150.642 39.2899 150.45 39.5459 150.109 39.9726C149.81 40.3566 149.426 40.8046 148.956 41.3166C147.634 42.7672 146.567 43.9832 145.757 44.9646C144.988 45.9032 144.647 46.3726 144.732 46.3726C144.903 46.3726 144.989 46.3939 144.989 46.4366C145.031 46.4792 145.01 46.5859 144.924 46.7566C144.882 46.8846 144.797 47.0339 144.669 47.2046C144.583 47.3752 144.477 47.5459 144.349 47.7166C144.263 47.8446 144.178 47.9086 144.092 47.9086C143.879 47.9512 143.773 47.9299 143.773 47.8446C143.815 47.7592 143.943 47.5246 144.157 47.1406C144.37 46.7992 144.455 46.6286 144.413 46.6286C144.327 46.6286 143.943 47.0766 143.26 47.9726C143.047 48.3139 142.855 48.6126 142.685 48.8686C142.514 49.1246 142.45 49.2952 142.493 49.3806C142.535 49.4232 142.471 49.5299 142.301 49.7006C142.173 49.8286 142.002 49.9992 141.788 50.2126C141.447 50.5112 141.234 50.7459 141.148 50.9166C141.063 51.0446 141.021 51.3006 141.021 51.6846C141.021 52.2819 140.957 52.5166 140.829 52.3886C140.701 52.3032 140.637 52.1326 140.637 51.8766C140.679 51.7486 140.679 51.6846 140.637 51.6846C140.637 51.6846 140.573 51.7486 140.445 51.8766C140.274 52.1326 140.231 52.3246 140.316 52.4526C140.359 52.5379 140.253 52.6659 139.997 52.8366C139.869 52.8792 139.741 52.9859 139.613 53.1566C139.527 53.3272 139.442 53.5192 139.357 53.7326C139.271 53.9459 139.143 54.2446 138.973 54.6286C138.802 55.0126 138.61 55.3752 138.396 55.7166C138.183 56.0579 137.991 56.3779 137.821 56.6766C137.693 56.9752 137.629 57.1672 137.629 57.2526C137.629 57.4659 137.522 57.6579 137.309 57.8286C137.095 57.9566 136.967 57.9139 136.924 57.7006C136.924 57.6152 136.86 57.6152 136.732 57.7006C136.647 57.7859 136.541 57.9139 136.413 58.0846C136.327 58.2979 136.242 58.4899 136.157 58.6606C136.071 58.7886 136.071 58.8739 136.157 58.9166C136.157 59.0019 136.199 58.9592 136.285 58.7886C136.285 58.6179 136.349 58.5326 136.477 58.5326C136.69 58.5752 136.754 58.7032 136.669 58.9166C136.583 59.1299 136.391 59.3432 136.092 59.5566C135.751 59.8126 135.581 60.0259 135.581 60.1966C135.623 60.2392 135.559 60.4099 135.389 60.7086C135.261 61.0072 135.069 61.3272 134.812 61.6686C134.599 62.0526 134.301 62.5432 133.917 63.1406C133.575 63.7379 133.277 64.2926 133.021 64.8046C132.807 65.2739 132.594 65.7006 132.381 66.0846C132.167 66.4686 132.018 66.7032 131.933 66.7886C131.762 66.9592 131.719 67.1726 131.805 67.4286ZM163.485 40.7406C163.613 40.5699 163.741 40.2072 163.868 39.6526C163.996 39.0979 164.103 38.5006 164.189 37.8606C164.317 37.2206 164.402 36.6019 164.445 36.0046C164.487 35.3646 164.487 34.9166 164.445 34.6606C164.359 34.1059 164.231 33.7432 164.061 33.5726C164.018 33.5299 163.826 33.5512 163.485 33.6366C163.143 33.7219 162.738 33.8499 162.269 34.0206C161.629 34.2766 161.01 34.5966 160.413 34.9806C159.815 35.3646 158.983 35.9832 157.917 36.8366C154.845 39.2686 151.815 42.2766 148.829 45.8606C145.842 49.4446 142.77 53.7539 139.613 58.7886C139.143 59.5139 138.674 60.2392 138.204 60.9646C137.778 61.6472 137.373 62.2872 136.989 62.8846C136.647 63.4819 136.327 64.0152 136.029 64.4846C135.773 64.9112 135.602 65.2099 135.517 65.3806C135.047 66.1912 134.684 66.8526 134.428 67.3646C134.172 67.8339 133.959 68.2179 133.788 68.5166C133.575 68.8152 133.426 69.0499 133.34 69.2206C133.34 69.2632 133.426 69.2846 133.596 69.2846C133.81 69.2846 134.045 69.2846 134.301 69.2846C134.599 69.2419 134.877 69.2206 135.133 69.2206C135.431 69.1779 135.666 69.1352 135.837 69.0926C136.69 68.9219 137.885 68.3886 139.421 67.4926C140.999 66.5539 142.599 65.4659 144.221 64.2286C144.647 63.8872 145.031 63.6312 145.372 63.4606C145.714 63.2472 145.949 63.1406 146.077 63.1406C146.375 63.1832 146.525 63.0552 146.525 62.7566C146.525 62.4579 146.674 62.2446 146.973 62.1166C147.186 62.0312 147.655 61.7112 148.381 61.1566C149.106 60.6019 149.938 59.8979 150.877 59.0446L151.517 58.4686L151.069 59.0446C150.77 59.4286 150.706 59.5779 150.877 59.4926C150.962 59.4499 151.175 59.2579 151.517 58.9166C151.858 58.5752 152.199 58.2126 152.541 57.8286C152.882 57.4019 153.181 57.0179 153.437 56.6766C153.735 56.3352 153.885 56.1219 153.885 56.0366C153.885 55.8659 154.034 55.6099 154.333 55.2686C154.631 54.8846 154.951 54.5219 155.293 54.1806C155.677 53.8392 156.231 53.1992 156.957 52.2606C157.682 51.2792 158.407 50.2552 159.133 49.1886C159.858 48.0792 160.519 47.0552 161.117 46.1166C161.714 45.1352 162.055 44.4952 162.141 44.1966C162.311 43.5992 162.525 42.9379 162.781 42.2126C163.079 41.4872 163.314 40.9966 163.485 40.7406Z" fill="#3F2419"/>
<path d="M201.897 50.2126C202.11 50.0846 202.196 50.1699 202.153 50.4686C202.153 50.7672 202.068 51.1512 201.897 51.6206C201.726 52.0472 201.492 52.5166 201.193 53.0286C200.937 53.5406 200.638 53.9672 200.297 54.3086C199.956 54.6926 199.721 54.7992 199.593 54.6286C199.465 54.4579 199.572 54.1166 199.913 53.6046L200.361 52.8366L199.785 53.3486C199.614 53.4766 199.358 53.7966 199.017 54.3086C198.676 54.7779 198.334 55.2899 197.993 55.8446C197.609 56.4846 196.905 57.4659 195.881 58.7886C194.9 60.0686 193.833 61.4126 192.681 62.8206C191.572 64.2286 190.505 65.5299 189.481 66.7246C188.457 67.9192 187.732 68.7299 187.305 69.1566C186.921 69.4979 186.601 69.8179 186.345 70.1166C186.089 70.4152 185.94 70.6072 185.897 70.6926C185.812 71.0339 185.684 71.2899 185.513 71.4606C185.342 71.7166 185.3 71.8446 185.385 71.8446C185.428 71.8446 185.556 71.7592 185.769 71.5886C186.025 71.4179 186.281 71.2046 186.537 70.9486C186.836 70.6926 187.134 70.4366 187.433 70.1806C187.732 69.9246 187.966 69.7112 188.137 69.5406C188.948 68.6872 189.801 67.7486 190.697 66.7246C191.593 65.6579 192.297 64.8046 192.809 64.1646C193.662 63.0126 194.452 61.9672 195.177 61.0286C195.945 60.0472 196.585 59.2366 197.097 58.5966C197.652 57.9139 198.078 57.4019 198.377 57.0606C198.676 56.7192 198.825 56.5912 198.825 56.6766C198.825 56.7619 198.697 57.0179 198.441 57.4446C198.228 57.8286 197.95 58.2766 197.609 58.7886C197.268 59.2579 196.884 59.7912 196.457 60.3886C196.073 60.9859 195.774 61.4766 195.561 61.8606C195.348 62.2019 194.921 62.7992 194.281 63.6526C193.684 64.4632 193.001 65.3379 192.233 66.2766C191.508 67.2152 190.782 68.1326 190.057 69.0286C189.332 69.8819 188.777 70.5006 188.393 70.8846C188.009 71.2686 187.54 71.7166 186.985 72.2286C186.473 72.7406 185.94 73.2739 185.385 73.8286C184.83 74.3406 184.276 74.8526 183.721 75.3646C183.209 75.8339 182.782 76.2179 182.441 76.5166C182.057 76.8579 181.566 77.2419 180.969 77.6686C180.414 78.0952 179.838 78.5006 179.241 78.8846C178.686 79.2259 178.153 79.5459 177.641 79.8446C177.172 80.1006 176.83 80.2499 176.617 80.2926C176.446 80.3779 176.233 80.4632 175.977 80.5486C175.764 80.6339 175.55 80.7192 175.337 80.8046C175.124 80.8899 174.804 80.9752 174.377 81.0606C173.95 81.1032 173.46 81.1459 172.905 81.1886C172.521 81.1886 172.201 81.1886 171.945 81.1886C171.689 81.1886 171.454 81.1886 171.241 81.1886C171.028 81.1459 170.814 81.0819 170.601 80.9966C170.43 80.9112 170.196 80.8046 169.897 80.6766C167.209 79.3966 165.438 77.6259 164.585 75.3646C164.457 75.0232 164.329 74.6606 164.201 74.2766C164.03 73.8926 163.881 73.5939 163.753 73.3806C163.326 72.4419 163.07 71.2259 162.985 69.7326C162.9 68.2392 163.006 66.6819 163.305 65.0606C163.518 63.8232 163.838 62.3726 164.265 60.7086C164.692 59.0446 165.182 57.3379 165.737 55.5886C166.292 53.7966 166.868 52.0686 167.465 50.4046C168.105 48.6979 168.702 47.2259 169.257 45.9886C169.428 45.6046 169.577 45.2632 169.705 44.9646C169.833 44.6659 169.897 44.4952 169.897 44.4526C169.897 44.3246 170.153 43.7059 170.665 42.5966C171.22 41.4872 171.86 40.2286 172.585 38.8206C173.31 37.3699 174.057 35.9406 174.825 34.5326C175.636 33.1246 176.276 32.0366 176.745 31.2686C177.086 30.6712 177.406 30.0952 177.705 29.5406C178.046 28.9432 178.281 28.5379 178.409 28.3246C178.537 28.0686 179.006 27.3219 179.817 26.0846C180.628 24.8046 181.673 23.2686 182.953 21.4766C184.233 19.6846 185.684 17.7219 187.305 15.5886C188.926 13.4552 190.633 11.3859 192.425 9.38057C194.217 7.37524 196.009 5.5619 197.801 3.94057C199.636 2.31923 201.364 1.10324 202.985 0.292571C203.625 -0.0487626 204.35 -0.0914288 205.161 0.164573C205.972 0.377906 206.548 0.761906 206.889 1.31657C207.486 2.25524 207.849 2.89524 207.977 3.23657C208.105 3.53524 208.126 3.9619 208.041 4.51657C207.998 4.8579 207.934 5.19924 207.849 5.54057C207.764 5.83924 207.636 6.2019 207.465 6.62857C207.337 7.01257 207.145 7.4819 206.889 8.03657C206.676 8.54857 206.377 9.2099 205.993 10.0206C205.481 11.1299 204.756 12.6019 203.817 14.4366C202.878 16.2286 201.897 18.0846 200.873 20.0046C199.849 21.8819 198.868 23.6526 197.929 25.3166C196.99 26.9379 196.286 28.1326 195.817 28.9006C195.732 28.9859 195.518 29.3059 195.177 29.8606C194.878 30.4152 194.494 31.0552 194.025 31.7806C193.556 32.5059 193.044 33.3166 192.489 34.2126C191.934 35.1086 191.465 35.8339 191.081 36.3886L188.521 40.2286C187.582 41.6366 186.452 43.2152 185.129 44.9646C183.849 46.7139 182.548 48.4419 181.225 50.1486C179.945 51.8126 178.686 53.3699 177.449 54.8206C176.254 56.2286 175.273 57.3379 174.505 58.1486C174.078 58.5752 173.609 58.9806 173.097 59.3646C172.628 59.7486 172.137 60.0686 171.625 60.3246C171.113 60.5806 170.622 60.7726 170.153 60.9006C169.726 61.0286 169.364 61.0712 169.065 61.0286C168.766 60.9432 168.574 60.9646 168.489 61.0926C168.404 61.2206 168.233 61.7112 167.977 62.5646C167.849 63.0339 167.678 63.7166 167.465 64.6126C167.294 65.4659 167.124 66.2766 166.953 67.0446C166.569 69.3912 166.462 71.3112 166.633 72.8046C166.761 74.2552 167.188 75.5139 167.913 76.5806C168.126 76.9219 168.318 77.1566 168.489 77.2846C168.702 77.4126 169.001 77.5192 169.385 77.6046C169.684 77.6472 169.982 77.6899 170.281 77.7326C170.58 77.7326 170.836 77.7326 171.049 77.7326C171.774 77.6899 172.82 77.3699 174.185 76.7726C175.55 76.1326 176.916 75.3432 178.281 74.4046C178.836 74.0206 179.54 73.4659 180.393 72.7406C181.246 71.9726 182.142 71.1406 183.081 70.2446C184.02 69.3059 184.937 68.3459 185.833 67.3646C186.772 66.3832 187.604 65.4446 188.329 64.5486C189.353 63.3539 190.078 62.5432 190.505 62.1166C190.932 61.6472 191.209 61.3912 191.337 61.3486C191.55 61.3059 191.806 61.1352 192.105 60.8366C192.446 60.4952 192.788 60.0899 193.129 59.6206C193.3 59.3646 193.534 59.0659 193.833 58.7246C194.174 58.3406 194.494 58.0206 194.793 57.7646C195.092 57.4659 195.476 57.0392 195.945 56.4846C196.414 55.9299 196.926 55.3112 197.481 54.6286C198.036 53.9032 198.569 53.1779 199.081 52.4526C199.636 51.7272 200.126 51.0446 200.553 50.4046C200.852 49.9352 201.108 49.5512 201.321 49.2526C201.577 48.9112 201.748 48.6979 201.833 48.6126C202.089 48.3992 202.217 48.4206 202.217 48.6766C202.26 48.8899 202.174 49.1886 201.961 49.5726C201.534 50.2126 201.513 50.4259 201.897 50.2126ZM168.169 53.7326C168.084 54.0739 168.169 53.9032 168.425 53.2206C168.724 52.5379 169.15 51.4926 169.705 50.0846C170.046 49.1886 170.324 48.4419 170.537 47.8446C170.75 47.2472 170.836 46.9912 170.793 47.0766C170.75 47.1192 170.58 47.4819 170.281 48.1646C170.025 48.8046 169.726 49.5299 169.385 50.3406C169.086 51.1086 168.809 51.8339 168.553 52.5166C168.297 53.1992 168.169 53.6046 168.169 53.7326ZM199.081 21.4766C199.209 21.1352 199.23 21.0072 199.145 21.0926C199.06 21.1779 198.932 21.3699 198.761 21.6686C198.633 21.9246 198.612 22.0526 198.697 22.0526C198.782 22.0526 198.91 21.8606 199.081 21.4766ZM194.921 12.6446C194.708 12.9006 194.324 13.3912 193.769 14.1166C193.257 14.7992 192.66 15.6099 191.977 16.5486C191.337 17.4446 190.654 18.4046 189.929 19.4286C189.204 20.4099 188.542 21.3272 187.945 22.1806C187.348 22.9912 186.836 23.6739 186.409 24.2286C186.025 24.7832 185.812 25.0819 185.769 25.1246C185.556 25.3806 185.214 25.8499 184.745 26.5326C184.318 27.1726 183.849 27.8766 183.337 28.6446C182.825 29.4126 182.313 30.1806 181.801 30.9486C181.332 31.7166 180.926 32.3779 180.585 32.9326C179.945 34.0846 179.305 35.2152 178.665 36.3246C178.068 37.3912 177.534 38.3726 177.065 39.2686C176.596 40.1646 176.212 40.9112 175.913 41.5086C175.657 42.0632 175.508 42.4046 175.465 42.5326C175.422 42.8312 175.23 43.3859 174.889 44.1966C174.548 44.9646 173.929 46.3086 173.033 48.2286C172.905 48.5699 172.649 49.1886 172.265 50.0846C171.924 50.9806 171.561 51.9192 171.177 52.9006C170.836 53.8819 170.516 54.7779 170.217 55.5886C169.918 56.3992 169.748 56.9112 169.705 57.1246C169.62 57.3806 169.62 57.5086 169.705 57.5086C169.833 57.4659 170.132 57.2312 170.601 56.8046C171.966 55.6526 173.609 53.9246 175.529 51.6206C177.492 49.2739 179.646 46.4792 181.993 43.2366C182.846 42.1272 183.636 41.0819 184.361 40.1006C185.086 39.0766 185.556 38.4152 185.769 38.1166C185.982 37.8606 186.26 37.4979 186.601 37.0286C186.942 36.5166 187.262 36.0259 187.561 35.5566C187.817 35.0872 188.137 34.5752 188.521 34.0206C188.948 33.4232 189.31 32.9539 189.609 32.6126C189.908 32.2712 190.185 31.9299 190.441 31.5886C190.697 31.2046 190.996 30.7566 191.337 30.2446C191.678 29.6899 192.084 29.0072 192.553 28.1966C193.065 27.3859 193.705 26.3406 194.473 25.0606C195.838 22.7566 197.054 20.6446 198.121 18.7246C199.23 16.8046 200.318 14.8206 201.385 12.7726C201.94 11.6632 202.366 10.7886 202.665 10.1486C203.006 9.50857 203.262 9.0179 203.433 8.67657C203.604 8.33524 203.689 8.10057 203.689 7.97257C203.732 7.84457 203.732 7.75924 203.689 7.71657C203.604 7.63124 203.646 7.50324 203.817 7.33257C204.03 7.11924 204.244 6.7139 204.457 6.11657C204.713 5.47657 204.884 4.7939 204.969 4.06857L205.161 2.72457L204.521 3.17257C204.308 3.30057 204.094 3.4499 203.881 3.62057C203.668 3.79124 203.497 3.94057 203.369 4.06857C203.198 4.23924 202.942 4.4739 202.601 4.77257C202.302 5.07124 201.982 5.36991 201.641 5.66857C200.702 6.5219 199.678 7.50324 198.569 8.61257C197.502 9.72191 196.286 11.0659 194.921 12.6446ZM170.857 46.5646C170.9 46.7352 170.942 46.8206 170.985 46.8206C171.028 46.7779 171.07 46.6499 171.113 46.4366C171.156 46.2659 171.134 46.2019 171.049 46.2446C170.921 46.2872 170.857 46.3939 170.857 46.5646ZM171.945 44.3246C171.86 44.4526 171.774 44.6232 171.689 44.8366C171.604 45.0072 171.518 45.1992 171.433 45.4126C171.348 45.5832 171.284 45.7112 171.241 45.7966C171.241 45.8819 171.262 45.8819 171.305 45.7966C171.476 45.6259 171.668 45.2846 171.881 44.7726C172.052 44.3032 172.073 44.1539 171.945 44.3246ZM172.905 42.3406V42.4686C172.99 42.3832 173.097 42.2126 173.225 41.9566C173.31 41.7432 173.353 41.6366 173.353 41.6366C173.353 41.6366 173.289 41.7006 173.161 41.8286C172.948 42.0419 172.862 42.2126 172.905 42.3406ZM174.697 38.5006C174.697 38.7566 174.846 38.6072 175.145 38.0526L175.401 37.4766L175.017 37.8606C174.804 38.1592 174.697 38.3726 174.697 38.5006ZM176.553 35.3006C176.51 35.3432 176.404 35.4712 176.233 35.6846C176.105 35.8979 175.977 36.1326 175.849 36.3886C175.721 36.6446 175.614 36.8792 175.529 37.0926C175.486 37.2632 175.486 37.3486 175.529 37.3486C175.614 37.3486 175.7 37.2419 175.785 37.0286C175.913 36.8152 176.062 36.5592 176.233 36.2606C176.532 35.5779 176.638 35.2579 176.553 35.3006ZM177.001 34.5966C176.916 34.8099 176.873 34.9379 176.873 34.9806C176.916 34.9806 177.001 34.8952 177.129 34.7246C177.172 34.5966 177.257 34.4046 177.385 34.1486C177.556 33.8499 177.748 33.5512 177.961 33.2526C178.132 32.9539 178.26 32.7192 178.345 32.5486C178.473 32.3352 178.494 32.2286 178.409 32.2286C178.281 32.2286 178.217 32.2712 178.217 32.3566C178.217 32.3992 178.153 32.5272 178.025 32.7406C177.94 32.9112 177.812 33.1032 177.641 33.3166C177.47 33.5299 177.321 33.7646 177.193 34.0206C177.065 34.2766 177.001 34.4686 177.001 34.5966ZM178.537 31.7806C178.58 32.0366 178.665 31.9939 178.793 31.6526C178.878 31.3966 178.857 31.3326 178.729 31.4606C178.601 31.5886 178.537 31.6952 178.537 31.7806ZM179.689 29.4766C179.732 29.5619 179.753 29.6046 179.753 29.6046C179.838 29.5192 179.945 29.3486 180.073 29.0926C180.329 28.7086 180.308 28.6659 180.009 28.9646C179.796 29.1779 179.689 29.3486 179.689 29.4766ZM185.193 23.7806C185.022 23.9939 184.937 24.1219 184.937 24.1646C184.937 24.1646 185.044 24.0792 185.257 23.9086C185.513 23.7379 185.641 23.5886 185.641 23.4606C185.641 23.2046 185.492 23.3112 185.193 23.7806ZM169.833 47.2046C169.577 47.8446 169.278 48.6126 168.937 49.5086C168.596 50.3619 168.276 51.1939 167.977 52.0046C167.678 52.7726 167.422 53.4552 167.209 54.0526C166.996 54.6499 166.889 54.9912 166.889 55.0766C166.889 55.1192 166.932 55.0766 167.017 54.9486C167.145 54.7779 167.273 54.5646 167.401 54.3086C167.529 54.0526 167.657 53.7752 167.785 53.4766C167.956 53.1779 168.062 52.9432 168.105 52.7726C168.148 52.5592 168.233 52.2606 168.361 51.8766C168.532 51.4499 168.681 51.0659 168.809 50.7246C168.98 50.3406 169.15 49.9139 169.321 49.4446C169.534 48.9326 169.726 48.5059 169.897 48.1646C170.025 47.8232 170.174 47.4392 170.345 47.0126C170.516 46.5859 170.644 46.2659 170.729 46.0526C170.857 45.8392 171.006 45.5619 171.177 45.2206C171.348 44.8366 171.476 44.4952 171.561 44.1966C171.689 43.9406 171.902 43.4926 172.201 42.8526C172.542 42.1699 172.884 41.4659 173.225 40.7406C173.566 40.1006 173.865 39.4819 174.121 38.8846C174.42 38.2872 174.612 37.8819 174.697 37.6686C174.782 37.4979 174.953 37.1779 175.209 36.7086C175.465 36.1966 175.742 35.6846 176.041 35.1726C176.382 34.6606 176.66 34.2126 176.873 33.8286C177.086 33.4019 177.193 33.1672 177.193 33.1246C177.193 32.9966 177.342 32.7406 177.641 32.3566C178.025 31.9726 178.217 31.6952 178.217 31.5246C178.174 31.4392 178.26 31.2472 178.473 30.9486C178.729 30.6499 178.9 30.5006 178.985 30.5006C179.113 30.5006 179.262 30.3726 179.433 30.1166C179.518 29.9459 179.561 29.8606 179.561 29.8606C179.561 29.8606 179.476 29.9246 179.305 30.0526C179.134 30.2232 179.049 30.2232 179.049 30.0526C179.049 29.7539 179.113 29.5832 179.241 29.5406C179.326 29.4552 179.433 29.3059 179.561 29.0926C179.689 28.8792 179.838 28.6446 180.009 28.3886C180.137 28.0899 180.414 27.6419 180.841 27.0446C181.31 26.4046 181.78 25.7646 182.249 25.1246C182.718 24.4846 183.124 23.9512 183.465 23.5246C183.806 23.0552 183.977 22.7779 183.977 22.6926C183.977 22.5646 184.126 22.3086 184.425 21.9246C184.51 21.8392 184.553 21.7539 184.553 21.6686C184.596 21.5832 184.638 21.4979 184.681 21.4126C184.681 21.3272 184.702 21.2632 184.745 21.2206C184.702 21.2206 184.489 21.4766 184.105 21.9886C183.764 22.4579 183.337 23.0552 182.825 23.7806C182.313 24.5059 181.78 25.2952 181.225 26.1486C180.67 26.9592 180.18 27.6846 179.753 28.3246C178.942 29.5619 178.089 30.9699 177.193 32.5486C176.297 34.0846 175.401 35.6846 174.505 37.3486C173.652 39.0126 172.82 40.6979 172.009 42.4046C171.198 44.0686 170.473 45.6686 169.833 47.2046ZM164.905 65.7646C164.99 65.4659 165.054 65.1886 165.097 64.9326C165.14 64.6766 165.161 64.5059 165.161 64.4206C165.076 64.2072 164.969 64.4419 164.841 65.1246C164.756 65.4659 164.692 65.7646 164.649 66.0206C164.606 66.2766 164.585 66.4472 164.585 66.5326C164.585 66.6606 164.692 66.4046 164.905 65.7646ZM165.865 61.7326C166.036 61.1352 166.142 60.6872 166.185 60.3886C166.228 60.0472 166.206 59.9406 166.121 60.0686C165.993 60.3246 165.929 60.5379 165.929 60.7086C165.929 60.7939 165.886 60.9859 165.801 61.2846C165.716 61.5832 165.63 61.9032 165.545 62.2446C165.332 62.8419 165.204 63.3112 165.161 63.6526C165.118 63.9939 165.14 64.1006 165.225 63.9726C165.268 63.9299 165.353 63.6952 165.481 63.2686C165.566 62.8419 165.694 62.3299 165.865 61.7326Z" fill="#3F2419"/>
<path d="M270.045 14.5006C270.13 14.4579 270.408 14.4366 270.877 14.4366C271.346 14.4366 271.901 14.4152 272.541 14.3726C273.224 14.3726 273.8 14.3726 274.269 14.3726C274.738 14.3299 274.994 14.2872 275.037 14.2446C275.08 14.2446 274.802 14.2446 274.205 14.2446C273.65 14.2019 273.01 14.1806 272.285 14.1806C271.56 14.1806 270.856 14.2019 270.173 14.2446C269.533 14.2446 269.149 14.2659 269.021 14.3086C268.808 14.3512 268.701 14.3726 268.701 14.3726C268.744 14.3726 268.936 14.3939 269.277 14.4366C269.448 14.4792 269.597 14.5006 269.725 14.5006C269.896 14.5006 270.002 14.5006 270.045 14.5006ZM267.997 14.5006C268.21 14.5859 268.317 14.5646 268.317 14.4366C268.317 14.3512 268.018 14.3086 267.421 14.3086C266.824 14.3086 266.034 14.3512 265.053 14.4366C264.626 14.4792 264.136 14.5219 263.581 14.5646C263.026 14.5646 262.578 14.5859 262.237 14.6286C261.384 14.6712 260.85 14.7139 260.637 14.7566C260.424 14.7566 260.274 14.7992 260.189 14.8846C260.146 14.8846 260.168 14.9059 260.253 14.9486C260.338 14.9486 260.466 14.9272 260.637 14.8846C261.106 14.7992 261.277 14.8206 261.149 14.9486C261.106 14.9912 261.298 15.0126 261.725 15.0126C262.066 15.0126 262.237 15.0126 262.237 15.0126C262.237 15.0126 262.109 14.9912 261.853 14.9486C261.64 14.9059 261.512 14.8846 261.469 14.8846C261.469 14.8846 261.533 14.8632 261.661 14.8206C261.746 14.7779 261.917 14.7779 262.173 14.8206C262.429 14.8206 262.685 14.8419 262.941 14.8846C263.368 14.9699 263.752 15.0126 264.093 15.0126C264.477 14.9699 264.776 14.9059 264.989 14.8206C265.032 14.7779 265.181 14.7352 265.437 14.6926C265.693 14.6499 265.97 14.6286 266.269 14.6286C266.61 14.5859 266.93 14.5646 267.229 14.5646C267.57 14.5219 267.826 14.5006 267.997 14.5006ZM276.765 14.1806C276.424 14.1806 276.146 14.2019 275.933 14.2446C275.72 14.2446 275.634 14.2446 275.677 14.2446C275.72 14.2872 276.018 14.3086 276.573 14.3086C277.128 14.3086 277.405 14.3512 277.405 14.4366C277.405 14.5219 277.512 14.5646 277.725 14.5646C278.024 14.5646 278.045 14.5219 277.789 14.4366C277.533 14.3512 277.533 14.3086 277.789 14.3086C277.874 14.2659 277.81 14.2446 277.597 14.2446C277.384 14.2019 277.106 14.1806 276.765 14.1806ZM279.005 14.2446C278.578 14.3299 278.408 14.4152 278.493 14.5006C278.621 14.5432 278.92 14.5432 279.389 14.5006C279.944 14.4152 280.285 14.4366 280.413 14.5646C280.498 14.6499 280.818 14.6926 281.373 14.6926C281.629 14.6926 281.949 14.7139 282.333 14.7566C282.717 14.7566 283.101 14.7779 283.485 14.8206C283.912 14.8632 284.296 14.9272 284.637 15.0126C284.978 15.0552 285.234 15.0979 285.405 15.1406C285.746 15.2259 285.981 15.2686 286.109 15.2686C286.28 15.2686 286.194 15.2046 285.853 15.0766C285.426 14.9486 284.893 14.8206 284.253 14.6926C283.613 14.5646 282.973 14.4579 282.333 14.3726C281.693 14.2872 281.074 14.2446 280.477 14.2446C279.88 14.2019 279.389 14.2019 279.005 14.2446ZM247.069 22.3086C247.538 21.3699 247.816 20.7939 247.901 20.5806C247.986 20.3672 247.858 20.4739 247.517 20.9006C247.389 21.0712 247.218 21.2846 247.005 21.5406C246.834 21.7539 246.664 21.9459 246.493 22.1166C246.365 22.2446 246.066 22.6926 245.597 23.4606C245.17 24.2286 244.722 25.0819 244.253 26.0206C243.784 26.9166 243.357 27.7699 242.973 28.5806C242.589 29.3912 242.376 29.9032 242.333 30.1166C242.248 30.4152 242.162 30.5646 242.077 30.5646C241.949 30.5646 241.885 30.6712 241.885 30.8846C241.97 31.2686 241.224 32.8899 239.645 35.7486C239.432 36.1752 239.261 36.5379 239.133 36.8366C239.005 37.1352 238.941 37.3272 238.941 37.4126C238.941 37.4552 238.877 37.5832 238.749 37.7966C238.664 38.0099 238.536 38.2232 238.365 38.4366C238.152 38.7352 237.81 39.4179 237.341 40.4846C236.914 41.5512 236.424 42.7886 235.869 44.1966C235.357 45.6046 234.802 47.0979 234.205 48.6766C233.65 50.2126 233.138 51.6632 232.669 53.0286C232.2 54.3512 231.794 55.4606 231.453 56.3566C231.154 57.2526 230.962 57.7006 230.877 57.7006C230.792 57.6579 230.621 58.0206 230.365 58.7886C230.109 59.5566 229.81 60.5166 229.469 61.6686C229.17 62.7779 228.936 63.6526 228.765 64.2926C228.594 64.9326 228.466 65.4232 228.381 65.7646C228.296 66.1059 228.253 66.3406 228.253 66.4686C228.296 66.5539 228.36 66.5966 228.445 66.5966C228.573 66.5966 228.573 66.7459 228.445 67.0446C228.36 67.3432 228.232 67.5352 228.061 67.6206C228.018 67.6632 227.933 67.8979 227.805 68.3246C227.677 68.7086 227.528 69.1992 227.357 69.7966C227.144 70.6072 227.016 71.1832 226.973 71.5246C226.973 71.8659 227.016 72.1432 227.101 72.3566C227.229 72.6979 227.272 72.9112 227.229 72.9966C227.229 73.0819 227.144 73.1032 226.973 73.0606C226.888 73.0179 226.76 73.4232 226.589 74.2766C226.461 75.1299 226.333 76.1326 226.205 77.2846C226.077 78.3939 225.97 79.4819 225.885 80.5486C225.8 81.6152 225.778 82.3619 225.821 82.7886C225.864 83.1299 225.885 83.5566 225.885 84.0686C225.928 84.5379 225.949 84.9859 225.949 85.4126C225.864 88.1859 226.184 86.7566 226.909 81.1246C227.122 79.3752 227.336 77.7966 227.549 76.3886C227.805 74.9806 228.04 73.8499 228.253 72.9966C228.424 72.2712 228.594 71.5246 228.765 70.7566C228.978 69.9459 229.128 69.3486 229.213 68.9646C229.298 68.5806 229.405 68.1112 229.533 67.5566C229.704 67.0019 229.853 66.4899 229.981 66.0206C230.109 65.5512 230.28 64.9752 230.493 64.2926C230.706 63.6099 230.898 63.0126 231.069 62.5006C231.197 61.9886 231.368 61.3912 231.581 60.7086C231.794 59.9832 231.965 59.3859 232.093 58.9166C232.264 58.4472 232.413 57.9779 232.541 57.5086C232.669 56.9966 232.776 56.6339 232.861 56.4206C232.904 56.2072 232.968 55.9726 233.053 55.7166C233.138 55.4179 233.224 55.1619 233.309 54.9486C233.48 54.4792 233.65 53.9886 233.821 53.4766C234.034 52.9219 234.226 52.4099 234.397 51.9406C234.568 51.4712 234.717 51.0659 234.845 50.7246C234.973 50.3406 235.037 50.1059 235.037 50.0206C235.037 49.9352 235.186 49.4659 235.485 48.6126C235.826 47.7592 236.232 46.7352 236.701 45.5406C237.17 44.3032 237.661 43.0019 238.173 41.6366C238.728 40.2712 239.24 39.0339 239.709 37.9246C240.008 37.1992 240.477 36.1326 241.117 34.7246C241.757 33.3166 242.44 31.8446 243.165 30.3086C243.89 28.7299 244.616 27.2152 245.341 25.7646C246.066 24.2712 246.642 23.1192 247.069 22.3086ZM243.229 32.8686C243.229 32.6126 243.101 32.6766 242.845 33.0606C242.632 33.4446 242.333 34.0206 241.949 34.7886C241.565 35.5566 241.138 36.4739 240.669 37.5406C240.2 38.6072 239.73 39.7166 239.261 40.8686C238.792 42.1059 238.493 42.9379 238.365 43.3646C238.237 43.7486 238.237 43.9832 238.365 44.0686C238.578 44.2392 238.557 44.3246 238.301 44.3246C238.173 44.2819 238.002 44.4739 237.789 44.9006C237.576 45.2846 237.256 45.9886 236.829 47.0126C235.976 49.1459 235.208 51.2366 234.525 53.2846C233.842 55.2899 233.245 57.1886 232.733 58.9806C232.605 59.4499 232.392 60.1752 232.093 61.1566C231.837 62.0952 231.581 62.9912 231.325 63.8446C231.069 64.6979 230.792 65.6366 230.493 66.6606C230.237 67.6846 230.045 68.4952 229.917 69.0926C229.789 69.6899 229.64 70.3726 229.469 71.1406C229.298 71.9086 229.149 72.5272 229.021 72.9966C228.936 73.4659 228.829 74.0206 228.701 74.6606C228.616 75.2579 228.552 75.7486 228.509 76.1326C228.338 77.2419 228.36 77.5192 228.573 76.9646C228.786 76.4099 229.042 75.3219 229.341 73.7006C229.554 72.5912 229.725 71.8232 229.853 71.3966C229.981 70.9699 230.13 70.6926 230.301 70.5646C230.514 70.4366 230.621 70.3512 230.621 70.3086C230.621 70.2232 230.557 70.0739 230.429 69.8606C230.301 69.6472 230.237 69.4979 230.237 69.4126C230.237 69.2846 230.344 69.0712 230.557 68.7726C230.642 68.5592 230.728 68.3246 230.813 68.0686C230.941 67.7699 231.026 67.5139 231.069 67.3006C231.112 66.9592 231.24 66.4046 231.453 65.6366C231.666 64.8259 232.114 63.3752 232.797 61.2846C232.882 61.0286 232.946 60.7939 232.989 60.5806C233.032 60.3672 233.032 60.2392 232.989 60.1966C232.861 60.1966 232.84 60.0046 232.925 59.6206C233.096 59.3219 233.245 59.2366 233.373 59.3646C233.501 59.4499 233.65 59.2152 233.821 58.6606C233.992 58.0632 234.184 57.2099 234.397 56.1006C234.482 55.5459 234.632 55.1192 234.845 54.8206C234.93 54.6926 235.058 54.4152 235.229 53.9886C235.4 53.5192 235.549 53.0286 235.677 52.5166C236.104 51.2366 236.488 50.1486 236.829 49.2526C237.17 48.3139 237.448 47.6739 237.661 47.3326C237.917 46.8632 238.109 46.3299 238.237 45.7326C238.322 45.0926 238.429 44.7086 238.557 44.5806C238.642 44.5379 238.728 44.3886 238.813 44.1326C238.898 43.8339 238.984 43.5139 239.069 43.1726C239.282 42.3192 239.453 41.9352 239.581 42.0206C239.624 42.1059 239.645 42.1272 239.645 42.0846C239.688 42.0419 239.688 41.9566 239.645 41.8286C239.602 41.5726 239.688 41.1672 239.901 40.6126C240.157 40.0579 240.392 39.6952 240.605 39.5246C240.818 39.3539 240.968 38.8419 241.053 37.9886C241.138 37.6472 241.202 37.3486 241.245 37.0926C241.288 36.7939 241.352 36.6659 241.437 36.7086C241.522 36.7086 241.65 36.5166 241.821 36.1326C241.949 35.7059 242.077 35.4926 242.205 35.4926C242.248 35.4926 242.312 35.3859 242.397 35.1726C242.525 34.9592 242.632 34.7032 242.717 34.4046C242.845 34.1059 242.952 33.8072 243.037 33.5086C243.165 33.2099 243.229 32.9966 243.229 32.8686ZM228.317 78.4366C228.445 78.2232 228.466 78.0739 228.381 77.9886C228.338 77.9032 228.274 78.0099 228.189 78.3086C228.189 78.6499 228.232 78.6926 228.317 78.4366ZM227.997 82.5326C228.168 82.3619 228.168 82.0846 227.997 81.7006C227.954 81.4872 227.912 81.5086 227.869 81.7646C227.826 81.9779 227.784 82.5112 227.741 83.3646C227.613 85.9672 227.634 87.1832 227.805 87.0126C227.848 86.9699 227.869 86.7352 227.869 86.3086C227.869 85.9246 227.869 85.4339 227.869 84.8366C227.869 84.2392 227.869 83.7272 227.869 83.3006C227.912 82.8739 227.954 82.6179 227.997 82.5326ZM232.669 38.8846C232.712 38.7992 232.69 38.8206 232.605 38.9486C232.52 39.0339 232.2 39.4606 231.645 40.2286C231.09 40.9539 230.45 41.8072 229.725 42.7886C228.488 44.5379 227.89 45.4552 227.933 45.5406C227.976 45.5832 228.637 44.8366 229.917 43.3006C230.173 42.9592 230.45 42.5966 230.749 42.2126C231.048 41.7859 231.325 41.3806 231.581 40.9966C231.837 40.6126 232.05 40.2926 232.221 40.0366C232.392 39.7379 232.477 39.5459 232.477 39.4606C232.477 39.2046 232.541 39.0126 232.669 38.8846ZM201.437 53.7966C201.181 54.2659 200.946 54.7566 200.733 55.2686C200.52 55.7379 200.306 56.2072 200.093 56.6766C199.922 57.1032 199.773 57.4872 199.645 57.8286C199.56 58.1272 199.517 58.3406 199.517 58.4686C199.517 58.5539 199.645 58.5112 199.901 58.3406C200.157 58.1699 200.84 57.7006 201.949 56.9326C202.802 56.3352 203.613 55.7592 204.381 55.2046C205.192 54.6072 205.682 54.2019 205.853 53.9886C205.896 53.9459 206.045 53.8179 206.301 53.6046C206.6 53.3486 206.941 53.0712 207.325 52.7726C207.709 52.4312 208.157 52.0259 208.669 51.5566C209.224 51.0446 209.757 50.5326 210.269 50.0206C210.781 49.4659 211.25 48.9539 211.677 48.4846C212.104 48.0152 212.402 47.6312 212.573 47.3326C212.957 46.7779 213.298 46.0312 213.597 45.0926C213.938 44.1539 214.066 43.4499 213.981 42.9806C213.896 42.5539 213.746 42.2552 213.533 42.0846C213.362 41.9139 213.021 41.7432 212.509 41.5726C212.125 41.4872 211.741 41.4872 211.357 41.5726C211.016 41.6152 210.632 41.7859 210.205 42.0846C209.821 42.3406 209.373 42.7246 208.861 43.2366C208.392 43.7486 207.816 44.4312 207.133 45.2846C205.896 46.7779 204.786 48.2499 203.805 49.7006C202.866 51.1512 202.077 52.5166 201.437 53.7966ZM243.677 16.1646C243.848 16.1646 243.997 16.1646 244.125 16.1646C244.296 16.1219 244.424 16.1006 244.509 16.1006C244.637 16.1006 244.765 16.0792 244.893 16.0366C244.893 15.9939 244.68 15.9939 244.253 16.0366C243.826 16.0366 243.357 16.0579 242.845 16.1006C242.333 16.1432 241.864 16.1859 241.437 16.2286C241.01 16.2712 240.776 16.3139 240.733 16.3566H241.501C241.757 16.3139 242.098 16.2926 242.525 16.2926C242.952 16.2499 243.336 16.2072 243.677 16.1646ZM240.349 16.3566C240.477 16.3139 240.434 16.2926 240.221 16.2926C239.965 16.2926 239.837 16.3139 239.837 16.3566C239.837 16.5272 240.008 16.5272 240.349 16.3566ZM237.725 16.6126C237.896 16.6126 237.981 16.5699 237.981 16.4846C237.981 16.3992 237.917 16.3566 237.789 16.3566C237.704 16.3566 237.618 16.3992 237.533 16.4846C237.448 16.5699 237.512 16.6126 237.725 16.6126ZM236.893 16.7406C237.021 16.7406 237.085 16.6979 237.085 16.6126C237.085 16.5272 237.021 16.4846 236.893 16.4846C236.765 16.4846 236.701 16.5272 236.701 16.6126C236.701 16.6979 236.765 16.7406 236.893 16.7406ZM233.629 16.9966C234.738 16.9112 235.442 16.8472 235.741 16.8046C236.04 16.7619 236.189 16.6979 236.189 16.6126C236.189 16.5699 236.125 16.5486 235.997 16.5486C235.826 16.6339 235.528 16.6766 235.101 16.6766C234.802 16.6766 234.312 16.7192 233.629 16.8046C232.989 16.8472 232.285 16.9112 231.517 16.9966C230.749 17.0392 229.981 17.1032 229.213 17.1886C228.445 17.2312 227.762 17.2952 227.165 17.3806C226.525 17.4659 225.778 17.5512 224.925 17.6366C224.072 17.6792 223.346 17.7219 222.749 17.7646C222.194 17.8072 221.682 17.8712 221.213 17.9566C221 17.9566 220.786 17.9779 220.573 18.0206C220.488 18.0632 220.744 18.0632 221.341 18.0206C221.981 17.9779 223.112 17.8926 224.733 17.7646C225.33 17.6792 226.056 17.6152 226.909 17.5726C227.805 17.5299 228.616 17.4659 229.341 17.3806C230.066 17.2952 230.834 17.2312 231.645 17.1886C232.498 17.1032 233.16 17.0392 233.629 16.9966ZM273.245 15.5886C272.946 15.5886 272.285 15.6099 271.261 15.6526C270.28 15.6526 269.17 15.6739 267.933 15.7166C266.738 15.7592 265.565 15.8019 264.413 15.8446C263.261 15.8872 262.365 15.9299 261.725 15.9726C261.213 16.0579 260.594 16.1219 259.869 16.1646C259.186 16.1646 258.61 16.1859 258.141 16.2286C257.33 16.2712 256.562 16.3139 255.837 16.3566C255.154 16.3566 254.536 16.3779 253.981 16.4206C253.768 16.8899 253.533 17.3379 253.277 17.7646C253.021 18.1486 252.786 18.5752 252.573 19.0446C251.378 21.3059 250.397 23.1406 249.629 24.5486C248.904 25.9566 248.306 27.1512 247.837 28.1326C247.368 29.0712 246.962 29.9032 246.621 30.6286C246.322 31.3539 245.981 32.1646 245.597 33.0606C245.341 33.7006 245.042 34.3832 244.701 35.1086C244.402 35.7912 244.104 36.4739 243.805 37.1566C243.506 37.7966 243.208 38.4152 242.909 39.0126C242.653 39.5672 242.44 40.0152 242.269 40.3566C241.97 40.9539 241.586 41.8072 241.117 42.9166C240.648 44.0259 240.136 45.3059 239.581 46.7566C239.069 48.1646 238.514 49.6792 237.917 51.3006C237.362 52.9219 236.808 54.5432 236.253 56.1646C235.698 57.7859 235.186 59.3646 234.717 60.9006C234.248 62.4366 233.842 63.8446 233.501 65.1246C233.288 65.9352 233.053 66.7886 232.797 67.6846C232.541 68.5806 232.349 69.2632 232.221 69.7326C231.794 71.1832 231.389 72.8046 231.005 74.5966C230.621 76.3459 230.301 78.1166 230.045 79.9086C229.832 81.6579 229.682 83.3432 229.597 84.9646C229.512 86.6286 229.512 88.0579 229.597 89.2526C229.64 89.9779 229.746 90.7032 229.917 91.4286C230.13 92.1539 230.322 92.5379 230.493 92.5806C230.536 92.5806 230.685 92.4952 230.941 92.3246C231.197 92.1966 231.496 92.0259 231.837 91.8126C232.178 91.5992 232.477 91.4286 232.733 91.3006C232.989 91.1726 233.16 91.1086 233.245 91.1086C233.373 91.1086 233.501 91.2579 233.629 91.5566C233.757 91.8979 233.864 92.2606 233.949 92.6446C234.034 93.0286 234.098 93.3912 234.141 93.7326C234.184 94.0739 234.162 94.2872 234.077 94.3726C233.864 94.5006 233.757 94.7352 233.757 95.0766C233.714 95.3326 233.416 95.5672 232.861 95.7806C232.306 95.9939 231.794 96.0579 231.325 95.9726C231.112 95.9726 230.877 95.9086 230.621 95.7806C230.365 95.6952 230.13 95.5886 229.917 95.4606C229.704 95.3752 229.469 95.2259 229.213 95.0126C229 94.8419 228.808 94.6926 228.637 94.5646C228.424 94.4366 228.232 94.3086 228.061 94.1806C227.933 94.0952 227.826 94.0526 227.741 94.0526C227.656 94.0526 227.485 93.9032 227.229 93.6046C227.016 93.3059 226.76 92.9646 226.461 92.5806C225.608 91.3006 225.074 89.5726 224.861 87.3966C224.648 85.2206 224.776 82.1912 225.245 78.3086C225.416 77.0286 225.586 75.8126 225.757 74.6606C225.97 73.4659 226.205 72.2712 226.461 71.0766C226.717 69.8392 227.016 68.5379 227.357 67.1726C227.698 65.7646 228.104 64.2072 228.573 62.5006C230.28 56.4846 232.2 50.6606 234.333 45.0286C236.466 39.3539 238.984 33.4872 241.885 27.4286C241.33 28.2819 240.797 29.1352 240.285 29.9886C239.816 30.7992 239.346 31.6312 238.877 32.4846C238.578 32.8686 238.28 33.2952 237.981 33.7646C237.725 34.1912 237.469 34.5752 237.213 34.9166C237 35.2579 236.765 35.6206 236.509 36.0046C236.253 36.3886 235.933 36.8579 235.549 37.4126C235.208 37.9246 234.76 38.6072 234.205 39.4606C233.565 40.3992 232.904 41.3806 232.221 42.4046C231.581 43.4286 230.706 44.8579 229.597 46.6926C229.469 46.9059 229.277 47.1832 229.021 47.5246C228.808 47.8232 228.552 48.1859 228.253 48.6126C228.253 48.6979 228.232 48.7619 228.189 48.8046C227.293 50.0846 226.354 51.3859 225.373 52.7086C224.434 54.0312 223.474 55.2899 222.493 56.4846C221.554 57.6366 220.637 58.7032 219.741 59.6846C218.845 60.6659 218.013 61.4339 217.245 61.9886C216.221 62.7566 215.325 63.3539 214.557 63.7806C213.789 64.1646 213.106 64.4632 212.509 64.6766C212.253 64.8046 212.082 64.9112 211.997 64.9966C211.57 65.2526 210.888 65.5086 209.949 65.7646C209.01 66.0206 208.029 66.2339 207.005 66.4046C205.981 66.5326 205.021 66.6179 204.125 66.6606C203.272 66.7032 202.696 66.6392 202.397 66.4686C202.141 66.2126 201.949 66.1486 201.821 66.2766C201.693 66.3619 201.394 66.2552 200.925 65.9566C200.498 65.6579 200.008 65.2952 199.453 64.8686C198.941 64.3992 198.429 63.9086 197.917 63.3966C197.448 62.8419 197.106 62.3726 196.893 61.9886C196.509 61.4766 196.168 61.1992 195.869 61.1566C195.229 61.0286 195.208 60.8152 195.805 60.5166C196.104 60.4312 196.232 60.2392 196.189 59.9406C195.848 58.8739 195.805 57.6579 196.061 56.2926C196.274 54.8846 196.744 53.3912 197.469 51.8126C197.768 51.1299 198.152 50.3619 198.621 49.5086C199.09 48.6552 199.581 47.8232 200.093 47.0126C200.605 46.2019 201.117 45.4552 201.629 44.7726C202.141 44.0472 202.568 43.5139 202.909 43.1726C203.037 43.0019 203.25 42.7672 203.549 42.4686C203.848 42.1272 204.125 41.7859 204.381 41.4446C205.106 40.5912 205.768 39.8872 206.365 39.3326C206.962 38.7779 207.41 38.4792 207.709 38.4366C207.88 38.3939 208.114 38.3726 208.413 38.3726C208.712 38.3726 209.01 38.4152 209.309 38.5006C209.992 38.6286 210.589 38.7779 211.101 38.9486C211.912 39.1192 212.616 39.3752 213.213 39.7166C213.81 40.0579 214.472 40.5912 215.197 41.3166C216.093 42.2126 216.712 43.0019 217.053 43.6846C217.394 44.3246 217.522 45.0286 217.437 45.7966C217.309 47.1619 216.712 48.6766 215.645 50.3406C215.09 51.1512 214.301 52.0899 213.277 53.1566C212.253 54.1806 211.336 54.9912 210.525 55.5886C209.416 56.3566 208.434 57.0179 207.581 57.5726C206.77 58.0846 206.002 58.5539 205.277 58.9806C204.552 59.4072 203.826 59.7912 203.101 60.1326C202.418 60.4312 201.629 60.7726 200.733 61.1566C200.392 61.3272 200.093 61.4766 199.837 61.6046C199.624 61.7326 199.517 61.8392 199.517 61.9246C199.517 62.2659 199.901 62.5432 200.669 62.7566C201.48 62.9699 202.333 63.0339 203.229 62.9486C205.064 62.7779 206.877 62.3939 208.669 61.7966C210.461 61.1566 212.274 60.3032 214.109 59.2366C215.474 58.2552 216.818 57.1246 218.141 55.8446C219.506 54.5219 220.744 53.2419 221.853 52.0046C223.09 50.5966 224.306 49.1459 225.501 47.6526C225.544 47.6099 225.586 47.5886 225.629 47.5886C225.928 47.2046 226.248 46.7992 226.589 46.3726C226.93 45.9032 227.25 45.4766 227.549 45.0926C227.848 44.6659 228.104 44.3032 228.317 44.0046C228.573 43.6632 228.744 43.4286 228.829 43.3006C229.298 42.6606 229.725 42.0632 230.109 41.5086C230.536 40.9539 230.92 40.4632 231.261 40.0366C231.688 39.5246 231.901 39.2046 231.901 39.0766C231.901 39.0339 231.986 38.9059 232.157 38.6926C232.328 38.4792 232.52 38.2446 232.733 37.9886C232.946 37.7326 233.117 37.4979 233.245 37.2846C233.416 37.0712 233.48 36.9432 233.437 36.9006C233.437 36.8579 233.629 36.6019 234.013 36.1326L234.653 35.5566L234.333 36.1326C233.736 37.2846 234.44 36.3672 236.445 33.3806C236.744 32.9539 237.106 32.4206 237.533 31.7806C237.96 31.1406 238.429 30.4792 238.941 29.7966C239.453 29.0712 239.965 28.3459 240.477 27.6206C240.989 26.8526 241.48 26.1272 241.949 25.4446C242.845 24.0792 243.634 22.9059 244.317 21.9246C245 20.9006 245.362 20.3459 245.405 20.2606C245.49 20.1326 245.469 20.1539 245.341 20.3246C245.213 20.4526 244.978 20.7512 244.637 21.2206C244.338 21.6899 243.997 22.2019 243.613 22.7566C243.229 23.3112 242.866 23.8232 242.525 24.2926C242.184 24.7619 241.97 25.0606 241.885 25.1886C241.714 25.4872 241.437 25.8926 241.053 26.4046C240.712 26.8739 240.37 27.3646 240.029 27.8766C239.688 28.3459 239.368 28.7726 239.069 29.1566C238.813 29.4979 238.642 29.7112 238.557 29.7966C238.344 30.0099 238.6 29.5619 239.325 28.4526C240.093 27.3006 241.202 25.7006 242.653 23.6526L244.957 20.3886H244.637C245.234 19.9192 245.704 19.4712 246.045 19.0446C246.258 18.7032 246.429 18.3832 246.557 18.0846C246.728 17.7432 246.92 17.4019 247.133 17.0606H246.493C246.493 17.0179 246.002 17.0392 245.021 17.1246C244.04 17.2099 242.952 17.3166 241.757 17.4446C240.562 17.5299 239.453 17.6366 238.429 17.7646C237.405 17.8926 236.85 17.9779 236.765 18.0206C236.722 18.0206 236.637 18.0419 236.509 18.0846C236.381 18.0846 235.976 18.1272 235.293 18.2126C234.653 18.2552 233.586 18.3406 232.093 18.4686C230.642 18.5966 228.552 18.7886 225.821 19.0446C223.56 19.2579 221.512 19.4499 219.677 19.6206C217.885 19.7912 216.242 19.9619 214.749 20.1326C213.256 20.3032 211.89 20.4526 210.653 20.5806C209.416 20.7086 208.264 20.8366 207.197 20.9646C206.77 21.0072 206.173 21.0499 205.405 21.0926C204.637 21.1352 203.89 21.1779 203.165 21.2206C202.44 21.2632 201.778 21.2846 201.181 21.2846C200.584 21.2846 200.221 21.2846 200.093 21.2846C199.837 21.2419 199.581 21.0926 199.325 20.8366C199.069 20.5379 198.941 20.2819 198.941 20.0686C198.941 19.8979 198.856 19.8126 198.685 19.8126C198.557 19.8552 198.493 19.6846 198.493 19.3006C198.493 18.9166 198.557 18.6606 198.685 18.5326C198.813 18.4899 198.92 18.3192 199.005 18.0206C199.09 17.8499 199.197 17.7646 199.325 17.7646C199.453 17.7219 199.922 17.7006 200.733 17.7006C201.458 17.7006 201.928 17.7006 202.141 17.7006C202.354 17.6579 202.61 17.5512 202.909 17.3806C203.336 17.0819 203.826 16.9539 204.381 16.9966C204.978 17.0392 205.426 17.2312 205.725 17.5726C205.896 17.7006 206.024 17.7859 206.109 17.8286C206.237 17.8286 206.536 17.8072 207.005 17.7646C207.261 17.7646 207.858 17.7219 208.797 17.6366C209.778 17.5512 210.824 17.4659 211.933 17.3806C213.042 17.2952 214.045 17.2312 214.941 17.1886C215.88 17.1032 216.456 17.0606 216.669 17.0606C217.181 16.9752 217.437 16.9966 217.437 17.1246C217.437 17.2099 217.288 17.2526 216.989 17.2526C216.605 17.2526 216.285 17.2952 216.029 17.3806C215.773 17.4232 215.901 17.4446 216.413 17.4446C216.925 17.4446 217.693 17.4232 218.717 17.3806C219.741 17.2952 220.936 17.1886 222.301 17.0606C223.666 16.9326 225.032 16.8046 226.397 16.6766C226.653 16.6766 227.037 16.6552 227.549 16.6126C228.061 16.5699 228.637 16.5272 229.277 16.4846C229.96 16.3992 230.664 16.3352 231.389 16.2926C232.157 16.2072 232.925 16.1432 233.693 16.1006C234.461 16.0152 235.25 15.9512 236.061 15.9086C236.872 15.8232 237.64 15.7592 238.365 15.7166C239.133 15.6312 239.816 15.5672 240.413 15.5246C241.053 15.4819 241.565 15.4392 241.949 15.3966C242.76 15.3112 243.528 15.2472 244.253 15.2046C244.978 15.1619 245.469 15.1192 245.725 15.0766C245.981 15.0766 246.28 15.0766 246.621 15.0766C246.962 15.0339 247.261 14.9912 247.517 14.9486L248.285 14.8846C248.712 14.0739 249.245 13.0926 249.885 11.9406C250.525 10.7886 251.165 9.6579 251.805 8.54857C252.445 7.43923 253.021 6.4579 253.533 5.60457C254.045 4.75124 254.386 4.19657 254.557 3.94057C254.77 3.6419 254.941 3.34324 255.069 3.04457C255.24 2.7459 255.325 2.53257 255.325 2.40457C255.41 2.06324 255.624 1.76457 255.965 1.50857C256.349 1.25257 256.733 1.1459 257.117 1.18857C257.33 1.18857 257.565 1.25257 257.821 1.38057C258.12 1.50857 258.397 1.63657 258.653 1.76457C258.909 1.89257 259.101 2.04191 259.229 2.21257C259.4 2.34057 259.485 2.44724 259.485 2.53257C259.485 2.70324 259.656 2.78857 259.997 2.78857C260.253 2.83124 260.466 2.98057 260.637 3.23657C260.85 3.4499 261 3.72724 261.085 4.06857C261.17 4.36724 261.192 4.68724 261.149 5.02857C261.106 5.32724 260.978 5.5619 260.765 5.73257C260.68 5.8179 260.594 5.92457 260.509 6.05257C260.466 6.13791 260.424 6.22324 260.381 6.30857C260.338 6.56457 260.061 7.0979 259.549 7.90857C259.08 8.67657 258.568 9.4019 258.013 10.0846C257.33 10.9379 256.392 12.3459 255.197 14.3086C256.221 14.2232 257.266 14.1592 258.333 14.1166C259.442 14.0312 260.488 13.9672 261.469 13.9246C262.45 13.8392 263.346 13.7752 264.157 13.7326C264.968 13.6472 265.608 13.5832 266.077 13.5406C266.632 13.4979 267.208 13.4552 267.805 13.4126C268.402 13.3699 269.085 13.3486 269.853 13.3486C270.664 13.3059 271.56 13.2846 272.541 13.2846C273.565 13.2846 274.738 13.2846 276.061 13.2846C277.768 13.2846 279.09 13.2846 280.029 13.2846C281.01 13.2846 281.778 13.3059 282.333 13.3486C282.888 13.3486 283.293 13.3699 283.549 13.4126C283.805 13.4126 284.082 13.4552 284.381 13.5406C285.106 13.7112 285.789 13.9246 286.429 14.1806C287.069 14.3939 287.453 14.6072 287.581 14.8206C287.709 14.9486 287.773 15.1832 287.773 15.5246C287.773 15.7806 287.858 15.9939 288.029 16.1646C288.37 16.2926 288.434 16.7406 288.221 17.5086C288.178 17.5939 288.05 17.7432 287.837 17.9566C287.666 18.1272 287.453 18.2979 287.197 18.4686C286.941 18.5966 286.706 18.7246 286.493 18.8526C286.28 18.9806 286.13 19.0232 286.045 18.9806C285.96 18.9806 285.746 19.0232 285.405 19.1086C285.234 19.1512 284.936 19.2152 284.509 19.3006C284.125 19.3859 283.698 19.4712 283.229 19.5566C282.802 19.5992 282.397 19.6419 282.013 19.6846C281.672 19.7272 281.458 19.7272 281.373 19.6846C281.33 19.6846 281.181 19.6846 280.925 19.6846C280.712 19.6419 280.456 19.6206 280.157 19.6206C279.474 19.6206 279.048 19.5779 278.877 19.4926C278.749 19.3646 278.557 19.3006 278.301 19.3006C278.088 19.3006 277.981 19.2792 277.981 19.2366C277.981 19.1512 278.109 19.0659 278.365 18.9806C278.706 18.8952 279.09 18.8099 279.517 18.7246C279.986 18.5966 280.413 18.4899 280.797 18.4046C281.181 18.2766 281.501 18.1699 281.757 18.0846C282.013 17.9992 282.141 17.9352 282.141 17.8926C282.141 17.8072 282.44 17.6579 283.037 17.4446C283.634 17.1886 284.189 16.9966 284.701 16.8686C285.384 16.6979 285.576 16.5699 285.277 16.4846C285.149 16.3992 284.658 16.3352 283.805 16.2926C282.994 16.2072 282.013 16.1219 280.861 16.0366C279.709 15.9512 278.45 15.8659 277.085 15.7806C275.762 15.6952 274.482 15.6312 273.245 15.5886Z" fill="#3F2419"/>
<path d="M283.717 48.0366C283.93 48.7192 283.93 49.3806 283.717 50.0206C283.546 50.6179 283.034 51.5139 282.181 52.7086C281.84 53.1779 281.541 53.6046 281.285 53.9886C281.072 54.3726 280.944 54.6499 280.901 54.8206C280.858 54.9486 280.773 55.1192 280.645 55.3326C280.56 55.5032 280.474 55.6526 280.389 55.7806C280.133 56.0366 280.005 56.2499 280.005 56.4206C280.005 56.5486 279.813 56.8472 279.429 57.3166C279.045 57.7432 278.576 58.2552 278.021 58.8526C277.509 59.4072 276.954 59.9832 276.357 60.5806C275.802 61.1352 275.333 61.5832 274.949 61.9246C274.608 62.2659 274.266 62.5432 273.925 62.7566C273.584 62.9272 273.349 63.0126 273.221 63.0126C273.008 63.0126 272.773 63.0979 272.517 63.2686C272.304 63.4392 271.877 63.3752 271.237 63.0766C270.597 62.7779 269.957 62.3299 269.317 61.7326C269.061 61.5192 268.762 61.2206 268.421 60.8366C268.122 60.4099 267.802 59.9619 267.461 59.4926C267.162 59.0232 266.864 58.5326 266.565 58.0206C266.309 57.4659 266.096 56.9752 265.925 56.5486C265.712 55.9512 265.52 55.4179 265.349 54.9486C265.178 54.4366 265.029 53.8819 264.901 53.2846C264.773 52.6872 264.666 51.9832 264.581 51.1726C264.496 50.3619 264.389 49.3806 264.261 48.2286C264.133 46.9912 264.005 45.9246 263.877 45.0286C263.792 44.1326 263.728 43.6632 263.685 43.6206C263.6 43.6632 263.514 43.7059 263.429 43.7486C263.258 43.8339 263.088 43.9619 262.917 44.1326C262.106 44.7299 261.146 45.5832 260.037 46.6926C258.97 47.7592 257.84 48.9752 256.645 50.3406C255.493 51.7059 254.298 53.1566 253.061 54.6926C251.866 56.1859 250.736 57.6579 249.669 59.1086C248.602 60.5592 247.664 61.9459 246.853 63.2686C246.042 64.5486 245.445 65.6366 245.061 66.5326C244.208 68.6232 243.525 69.6259 243.013 69.5406C242.714 69.5406 242.352 69.3272 241.925 68.9006C241.712 68.6872 241.541 68.4739 241.413 68.2606C241.285 68.0046 241.2 67.8126 241.157 67.6846C241.072 67.3006 240.901 67.0659 240.645 66.9806C240.133 66.8952 239.877 66.3192 239.877 65.2526C239.877 64.1859 240.154 62.7992 240.709 61.0926C240.922 60.4526 241.392 59.1512 242.117 57.1886C242.8 55.2259 243.717 52.8792 244.869 50.1486C246.064 47.4179 247.45 44.4739 249.029 41.3166C250.65 38.1166 252.464 35.0232 254.469 32.0366C254.554 32.2072 254.725 32.3779 254.981 32.5486C255.28 32.6766 255.429 32.9112 255.429 33.2526C255.429 33.5939 255.493 33.8286 255.621 33.9566C255.749 34.0846 255.77 34.1912 255.685 34.2766C255.642 34.4046 255.77 34.5752 256.069 34.7886C256.154 34.8739 256.261 35.0232 256.389 35.2366C256.517 35.4499 256.624 35.6632 256.709 35.8766C256.794 36.2179 256.816 36.4739 256.773 36.6446C256.73 36.7726 256.538 37.0499 256.197 37.4766C255.856 37.9459 255.258 38.9699 254.405 40.5486C253.594 42.0846 252.72 43.8126 251.781 45.7326C251.44 46.4579 251.034 47.3326 250.565 48.3566C250.096 49.3806 249.648 50.3619 249.221 51.3006C248.837 52.1966 248.517 52.9859 248.261 53.6686C248.005 54.3086 247.877 54.6499 247.877 54.6926C247.877 54.7352 248.176 54.4152 248.773 53.7326C249.37 53.0072 250.074 52.1539 250.885 51.1726C253.829 47.5459 255.429 45.7326 255.685 45.7326C255.728 45.7326 255.856 45.6259 256.069 45.4126C256.282 45.1992 256.538 44.9219 256.837 44.5806C257.178 44.2392 257.52 43.8766 257.861 43.4926C258.202 43.1086 258.522 42.7672 258.821 42.4686C259.034 42.1699 259.312 41.8712 259.653 41.5726C260.037 41.2739 260.4 40.9966 260.741 40.7406C261.082 40.4846 261.402 40.2926 261.701 40.1646C262.042 39.9939 262.277 39.9086 262.405 39.9086C262.618 39.9086 262.853 39.9726 263.109 40.1006C263.408 40.1859 263.685 40.2926 263.941 40.4206C264.197 40.5486 264.432 40.6979 264.645 40.8686C264.858 40.9966 264.965 41.1032 264.965 41.1886C264.965 41.2739 265.05 41.4446 265.221 41.7006C265.392 41.9139 265.584 42.1486 265.797 42.4046C266.138 42.7459 266.373 43.0659 266.501 43.3646C266.629 43.6632 266.736 44.1752 266.821 44.9006C266.906 45.3699 266.992 46.1166 267.077 47.1406C267.205 48.1646 267.312 49.1886 267.397 50.2126C267.568 52.2606 267.76 53.8819 267.973 55.0766C268.186 56.2286 268.442 57.1246 268.741 57.7646C268.954 58.1912 269.125 58.4472 269.253 58.5326C269.424 58.5752 269.808 58.6179 270.405 58.6606C270.874 58.6606 271.258 58.6179 271.557 58.5326C271.856 58.4472 272.24 58.2766 272.709 58.0206C273.434 57.5512 274.373 56.7832 275.525 55.7166C276.72 54.6499 278.021 53.3272 279.429 51.7486C280.069 51.0232 280.624 50.4259 281.093 49.9566C281.562 49.4446 281.84 49.2099 281.925 49.2526C282.053 49.2526 282.074 49.1886 281.989 49.0606C281.946 48.9752 281.968 48.8472 282.053 48.6766C282.181 48.4632 282.352 48.2499 282.565 48.0366L283.269 47.2046L282.949 47.9726L282.565 48.6766L283.077 48.0366L283.525 47.4606L283.717 48.0366Z" fill="#3F2419"/>
<path d="M291.781 44.4526C291.397 44.3672 291.055 44.3246 290.757 44.3246C290.501 44.2819 290.394 44.2819 290.437 44.3246C290.437 44.3672 290.501 44.5379 290.629 44.8366C290.757 45.1352 290.906 45.4979 291.077 45.9246C291.418 46.8632 291.653 47.7592 291.781 48.6126C291.909 49.4659 291.93 50.4472 291.845 51.5566C291.802 52.7512 291.482 53.9886 290.885 55.2686C290.33 56.5059 289.604 57.6792 288.708 58.7886C287.812 59.8552 286.789 60.8152 285.637 61.6686C284.485 62.4792 283.333 63.0339 282.181 63.3326C281.754 63.4179 281.349 63.5246 280.965 63.6526C280.581 63.7806 280.325 63.8659 280.197 63.9086C279.941 64.0366 279.621 64.1006 279.237 64.1006C278.81 64.1006 278.341 64.0152 277.829 63.8446C277.573 63.7592 277.295 63.6312 276.997 63.4606C276.698 63.2472 276.421 63.0126 276.165 62.7566C275.909 62.5006 275.717 62.2659 275.589 62.0526C275.418 61.7966 275.333 61.5832 275.333 61.4126C275.333 61.2846 275.141 60.9859 274.757 60.5166C274.458 60.1326 274.223 59.5779 274.053 58.8526C273.839 58.0846 273.711 57.2739 273.669 56.4206C273.626 55.5672 273.647 54.6926 273.733 53.7966C273.818 52.9006 273.989 52.1112 274.245 51.4286C274.927 49.5086 275.93 47.5886 277.253 45.6686C278.533 43.7059 279.983 41.9992 281.605 40.5486L282.821 39.4606L282.372 38.8206C282.031 38.4366 281.925 38.1806 282.053 38.0526C282.138 37.9246 282.373 37.9032 282.757 37.9886C283.183 38.0312 283.567 38.1592 283.909 38.3726C284.165 38.5432 284.356 38.6499 284.484 38.6926C284.655 38.6926 284.847 38.6499 285.061 38.5646C285.231 38.4792 285.53 38.4366 285.957 38.4366C286.426 38.4366 286.853 38.5432 287.237 38.7566C287.407 38.8419 287.599 38.9912 287.812 39.2046C288.026 39.3752 288.239 39.5886 288.453 39.8446C288.666 40.0579 288.837 40.2712 288.965 40.4846C289.093 40.6979 289.157 40.8472 289.157 40.9326C289.157 41.1459 289.541 41.3166 290.309 41.4446C291.119 41.5299 292.165 41.5726 293.445 41.5726C295.578 41.5726 297.69 41.4446 299.781 41.1886C301.914 40.9326 304.026 40.5912 306.117 40.1646H307.397C307.482 40.1646 307.61 40.1859 307.781 40.2286C307.951 40.2286 308.079 40.2499 308.165 40.2926L308.421 40.4206H308.485L308.613 40.5486C308.527 40.5486 308.442 40.5699 308.357 40.6126C308.314 40.6126 308.25 40.6126 308.165 40.6126C307.823 40.6979 307.546 40.7619 307.333 40.8046C307.119 40.8472 307.034 40.8899 307.077 40.9326C307.119 40.9752 307.674 40.8899 308.741 40.6766C308.783 40.7192 308.805 40.7619 308.805 40.8046C308.847 40.8046 308.868 40.8046 308.868 40.8046C308.868 40.9752 308.911 41.0606 308.997 41.0606C308.997 41.1459 308.997 41.2099 308.997 41.2526C309.039 41.2952 309.061 41.3379 309.061 41.3806C309.018 41.2952 308.997 41.3166 308.997 41.4446C309.039 41.5299 309.061 41.5939 309.061 41.6366V42.0846C309.061 42.1699 309.039 42.2339 308.997 42.2766C308.997 42.3192 308.997 42.3619 308.997 42.4046L308.933 42.4686C308.933 42.5112 308.911 42.5539 308.868 42.5966C308.868 42.5966 308.868 42.6179 308.868 42.6606C308.826 42.7032 308.805 42.7459 308.805 42.7886H308.741C308.741 42.8312 308.698 42.8952 308.613 42.9806H308.549V43.0446C306.202 43.5566 303.855 43.9406 301.509 44.1966C299.162 44.4526 297.007 44.5806 295.045 44.5806C294.447 44.5806 293.871 44.5806 293.316 44.5806C292.762 44.5806 292.25 44.5379 291.781 44.4526ZM286.341 55.9086C287.109 55.0552 287.727 54.1379 288.197 53.1566C288.709 52.1326 289.071 51.1086 289.285 50.0846C289.498 49.0606 289.541 48.0792 289.413 47.1406C289.327 46.2019 289.071 45.3486 288.645 44.5806C288.431 44.1966 288.261 43.9619 288.133 43.8766C288.005 43.7912 287.791 43.7486 287.493 43.7486C287.109 43.7486 286.853 43.6846 286.725 43.5566C286.682 43.4712 286.533 43.3859 286.277 43.3006C286.063 43.3006 285.893 43.2152 285.765 43.0446C285.679 42.8312 285.679 42.6179 285.765 42.4046C285.765 42.2339 285.722 42.1699 285.637 42.2126C285.594 42.2126 285.402 42.3619 285.061 42.6606C284.762 42.9592 284.42 43.2792 284.036 43.6206C283.695 43.9619 283.375 44.2819 283.077 44.5806C282.821 44.8792 282.693 45.0499 282.693 45.0926C282.65 45.1779 282.565 45.3059 282.437 45.4766C282.351 45.6046 282.202 45.7752 281.989 45.9886C281.775 46.2019 281.455 46.6286 281.029 47.2686C280.645 47.8659 280.218 48.5486 279.749 49.3166C279.322 50.0419 278.917 50.7886 278.533 51.5566C278.149 52.2819 277.85 52.8792 277.637 53.3486C277.167 54.5432 276.847 55.8019 276.677 57.1246C276.463 58.4472 276.463 59.4712 276.677 60.1966C276.762 60.4526 276.869 60.6019 276.997 60.6446C277.082 60.6872 277.402 60.7086 277.957 60.7086C278.725 60.7086 279.492 60.5592 280.26 60.2606C281.071 59.9619 281.839 59.5779 282.565 59.1086C283.333 58.6392 284.037 58.1272 284.677 57.5726C285.317 56.9752 285.871 56.4206 286.341 55.9086ZM305.477 41.2526C305.391 41.2952 305.391 41.3166 305.477 41.3166C305.605 41.3166 305.775 41.2952 305.989 41.2526C306.458 41.1672 306.735 41.0819 306.821 40.9966C306.863 40.9539 306.821 40.9539 306.693 40.9966C306.607 40.9966 306.479 41.0179 306.309 41.0606C306.138 41.0606 305.967 41.0819 305.797 41.1246C305.626 41.1672 305.519 41.2099 305.477 41.2526Z" fill="#3F2419"/>
</svg>
