<svg width="24" height="24" viewBox="0 0 24 24" fill="none" xmlns="http://www.w3.org/2000/svg">
<g clip-path="url(#clip0_9_363)">
<path d="M0.158624 11.6153L5.61304 6.16088C5.80898 5.93209 6.15331 5.90542 6.38211 6.1014C6.6109 6.29733 6.63757 6.64167 6.44159 6.87046C6.42331 6.89179 6.40343 6.91171 6.38211 6.92995L1.86039 11.4571H23.4546C23.7558 11.4571 24 11.7014 24 12.0026C24 12.3039 23.7558 12.5481 23.4546 12.5481H1.86039L6.38211 17.0698C6.6109 17.2657 6.63757 17.61 6.44159 17.8388C6.24561 18.0676 5.90132 18.0943 5.67253 17.8983C5.6512 17.88 5.63128 17.8602 5.61304 17.8388L0.158577 12.3844C-0.0528728 12.1717 -0.0528725 11.8281 0.158624 11.6153Z" fill="white"/>
</g>
<defs>
<clipPath id="clip0_9_363">
<rect width="24" height="24" fill="white" transform="matrix(-1 0 0 1 24 0)"/>
</clipPath>
</defs>
</svg>
