<svg width="48" height="48" viewBox="0 0 48 48" fill="none" xmlns="http://www.w3.org/2000/svg">
<rect width="48" height="48" fill="#3F2419"/>
<path d="M35.8414 23.6153L30.387 18.1609C30.191 17.9321 29.8467 17.9054 29.6179 18.1014C29.3891 18.2973 29.3624 18.6417 29.5584 18.8705C29.5767 18.8918 29.5966 18.9117 29.6179 18.9299L34.1396 23.4571H12.5454C12.2442 23.4571 12 23.7014 12 24.0026C12 24.3039 12.2442 24.5481 12.5454 24.5481H34.1396L29.6179 29.0698C29.3891 29.2657 29.3624 29.61 29.5584 29.8388C29.7544 30.0676 30.0987 30.0943 30.3275 29.8983C30.3488 29.88 30.3687 29.8602 30.387 29.8388L35.8414 24.3844C36.0529 24.1717 36.0529 23.8281 35.8414 23.6153Z" fill="white"/>
</svg>
