<svg width="24" height="24" viewBox="0 0 24 24" fill="none" xmlns="http://www.w3.org/2000/svg">
<g clip-path="url(#clip0_9_58)">
<path d="M0.158624 11.6155L5.61304 6.161C5.80898 5.93221 6.15331 5.90554 6.38211 6.10152C6.6109 6.29746 6.63757 6.64179 6.44159 6.87059C6.42331 6.89191 6.40343 6.91183 6.38211 6.93007L1.86039 11.4573H23.4546C23.7558 11.4573 24 11.7015 24 12.0027C24 12.304 23.7558 12.5482 23.4546 12.5482H1.86039L6.38211 17.0699C6.6109 17.2658 6.63757 17.6102 6.44159 17.839C6.24561 18.0677 5.90132 18.0944 5.67253 17.8984C5.6512 17.8802 5.63128 17.8603 5.61304 17.839L0.158577 12.3845C-0.0528728 12.1718 -0.0528725 11.8282 0.158624 11.6155Z" fill="black"/>
</g>
<defs>
<clipPath id="clip0_9_58">
<rect width="24" height="24" fill="white" transform="matrix(-1 0 0 1 24 0)"/>
</clipPath>
</defs>
</svg>
